Literata-M7.ufo
<glyph name="percent" format="2">
	<unicode hex="0025"/>
	<advance width="1106"/>
	<outline>
		<contour>
			<point x="241" y="-14" type="line"/>
			<point x="434" y="-14" type="line"/>
			<point x="872" y="597" type="line"/>
			<point x="682" y="597" type="line"/>
		</contour>
		<contour>
			<point x="247" y="274" type="curve" smooth="yes"/>
			<point x="370" y="274"/>
			<point x="473" y="323"/>
			<point x="473" y="442" type="curve" smooth="yes"/>
			<point x="473" y="555"/>
			<point x="370" y="594"/>
			<point x="253" y="594" type="curve" smooth="yes"/>
			<point x="129" y="594"/>
			<point x="22" y="550"/>
			<point x="22" y="425" type="curve" smooth="yes"/>
			<point x="22" y="319"/>
			<point x="122" y="274"/>
		</contour>
		<contour>
			<point x="247" y="354" type="curve" smooth="yes"/>
			<point x="226" y="354"/>
			<point x="207" y="367"/>
			<point x="207" y="437" type="curve" smooth="yes"/>
			<point x="207" y="504"/>
			<point x="227" y="514"/>
			<point x="245" y="514" type="curve" smooth="yes"/>
			<point x="265" y="514"/>
			<point x="286" y="504"/>
			<point x="286" y="437" type="curve" smooth="yes"/>
			<point x="286" y="367"/>
			<point x="265" y="354"/>
		</contour>
		<contour>
			<point x="858" y="-26" type="curve" smooth="yes"/>
			<point x="982" y="-26"/>
			<point x="1084" y="23"/>
			<point x="1084" y="142" type="curve" smooth="yes"/>
			<point x="1084" y="255"/>
			<point x="982" y="294"/>
			<point x="864" y="294" type="curve" smooth="yes"/>
			<point x="741" y="294"/>
			<point x="633" y="250"/>
			<point x="633" y="125" type="curve" smooth="yes"/>
			<point x="633" y="19"/>
			<point x="733" y="-26"/>
		</contour>
		<contour>
			<point x="859" y="54" type="curve" smooth="yes"/>
			<point x="837" y="54"/>
			<point x="819" y="67"/>
			<point x="819" y="137" type="curve" smooth="yes"/>
			<point x="819" y="204"/>
			<point x="838" y="214"/>
			<point x="857" y="214" type="curve" smooth="yes"/>
			<point x="876" y="214"/>
			<point x="897" y="205"/>
			<point x="897" y="137" type="curve" smooth="yes"/>
			<point x="897" y="67"/>
			<point x="877" y="54"/>
		</contour>
	</outline>
</glyph>
<glyph name="asterisk" format="2">
	<unicode hex="002A"/>
	<advance width="492"/>
	<outline>
		<contour>
			<point x="237" y="379" type="curve" smooth="yes"/>
			<point x="293" y="379"/>
			<point x="315" y="410"/>
			<point x="300" y="461" type="curve" smooth="yes"/>
			<point x="277" y="531" type="line"/>
			<point x="348" y="466" type="line" smooth="yes"/>
			<point x="386" y="432"/>
			<point x="413" y="434"/>
			<point x="438" y="476" type="curve" smooth="yes"/>
			<point x="467" y="524"/>
			<point x="449" y="561"/>
			<point x="398" y="572" type="curve" smooth="yes"/>
			<point x="301" y="593" type="line"/>
			<point x="409" y="617" type="line" smooth="yes"/>
			<point x="459" y="628"/>
			<point x="469" y="657"/>
			<point x="445" y="699" type="curve" smooth="yes"/>
			<point x="417" y="748"/>
			<point x="380" y="749"/>
			<point x="342" y="713" type="curve" smooth="yes"/>
			<point x="275" y="651" type="line"/>
			<point x="304" y="741" type="line" smooth="yes"/>
			<point x="319" y="789"/>
			<point x="298" y="812"/>
			<point x="250" y="812" type="curve" smooth="yes"/>
			<point x="194" y="812"/>
			<point x="171" y="781"/>
			<point x="187" y="730" type="curve" smooth="yes"/>
			<point x="212" y="652" type="line"/>
			<point x="144" y="718" type="line" smooth="yes"/>
			<point x="107" y="753"/>
			<point x="79" y="749"/>
			<point x="54" y="707" type="curve" smooth="yes"/>
			<point x="26" y="659"/>
			<point x="43" y="622"/>
			<point x="94" y="612" type="curve" smooth="yes"/>
			<point x="191" y="593" type="line"/>
			<point x="83" y="570" type="line" smooth="yes"/>
			<point x="33" y="559"/>
			<point x="23" y="530"/>
			<point x="47" y="488" type="curve" smooth="yes"/>
			<point x="75" y="439"/>
			<point x="112" y="436"/>
			<point x="150" y="474" type="curve" smooth="yes"/>
			<point x="210" y="534" type="line"/>
			<point x="183" y="450" type="line" smooth="yes"/>
			<point x="167" y="402"/>
			<point x="188" y="379"/>
		</contour>
	</outline>
</glyph>
<glyph name="one" format="2">
	<unicode hex="0031"/>
	<advance width="469"/>
	<outline>
		<contour>
			<point x="29" y="0" type="line"/>
			<point x="450" y="0" type="line"/>
			<point x="450" y="99" type="line"/>
			<point x="402" y="101" type="line" smooth="yes"/>
			<point x="370" y="102"/>
			<point x="363" y="112"/>
			<point x="363" y="148" type="curve"/>
			<point x="363" y="691" type="line"/>
			<point x="333" y="711" type="line"/>
			<point x="33" y="675" type="line"/>
			<point x="21" y="576" type="line"/>
			<point x="90" y="573" type="line" smooth="yes"/>
			<point x="128" y="571"/>
			<point x="128" y="559"/>
			<point x="128" y="537" type="curve" smooth="yes"/>
			<point x="128" y="152" type="line"/>
			<point x="128" y="108"/>
			<point x="117" y="103"/>
			<point x="89" y="102" type="curve" smooth="yes"/>
			<point x="29" y="99" type="line"/>
		</contour>
	</outline>
</glyph>
<glyph name="two" format="2">
	<unicode hex="0032"/>
	<advance width="622"/>
	<outline>
		<contour>
			<point x="40" y="0" type="line"/>
			<point x="569" y="0" type="line"/>
			<point x="590" y="239" type="line"/>
			<point x="466" y="239" type="line"/>
			<point x="440" y="144"/>
			<point x="427" y="128"/>
			<point x="364" y="128" type="curve" smooth="yes"/>
			<point x="242" y="128" type="line"/>
			<point x="529" y="364"/>
			<point x="579" y="412"/>
			<point x="579" y="529" type="curve" smooth="yes"/>
			<point x="579" y="639"/>
			<point x="483" y="714"/>
			<point x="309" y="714" type="curve" smooth="yes"/>
			<point x="135" y="714"/>
			<point x="20" y="644"/>
			<point x="20" y="550" type="curve" smooth="yes"/>
			<point x="20" y="491"/>
			<point x="54" y="455"/>
			<point x="123" y="455" type="curve" smooth="yes"/>
			<point x="190" y="455"/>
			<point x="226" y="486"/>
			<point x="226" y="530" type="curve" smooth="yes"/>
			<point x="226" y="553"/>
			<point x="219" y="567"/>
			<point x="197" y="601" type="curve"/>
			<point x="214" y="606"/>
			<point x="235" y="610"/>
			<point x="259" y="610" type="curve" smooth="yes"/>
			<point x="312" y="610"/>
			<point x="340" y="588"/>
			<point x="340" y="540" type="curve" smooth="yes"/>
			<point x="340" y="419"/>
			<point x="283" y="352"/>
			<point x="28" y="103" type="curve"/>
		</contour>
	</outline>
</glyph>
<glyph name="five" format="2">
	<unicode hex="0035"/>
	<advance width="630"/>
	<outline>
		<contour>
			<point x="291" y="-14" type="curve" smooth="yes"/>
			<point x="496" y="-14"/>
			<point x="598" y="76"/>
			<point x="598" y="240" type="curve" smooth="yes"/>
			<point x="598" y="382"/>
			<point x="501" y="461"/>
			<point x="351" y="461" type="curve" smooth="yes"/>
			<point x="295" y="461"/>
			<point x="247" y="453"/>
			<point x="208" y="436" type="curve"/>
			<point x="224" y="558" type="line"/>
			<point x="532" y="558" type="line"/>
			<point x="561" y="665" type="line"/>
			<point x="561" y="700" type="line"/>
			<point x="96" y="700" type="line"/>
			<point x="60" y="361" type="line"/>
			<point x="127" y="294" type="line"/>
			<point x="170" y="316"/>
			<point x="215" y="324"/>
			<point x="255" y="324" type="curve" smooth="yes"/>
			<point x="322" y="324"/>
			<point x="367" y="302"/>
			<point x="367" y="233" type="curve" smooth="yes"/>
			<point x="367" y="167"/>
			<point x="328" y="139"/>
			<point x="263" y="139" type="curve" smooth="yes"/>
			<point x="211" y="139"/>
			<point x="148" y="157"/>
			<point x="92" y="193" type="curve"/>
			<point x="19" y="75" type="line"/>
			<point x="96" y="15"/>
			<point x="186" y="-14"/>
		</contour>
	</outline>
</glyph>
<glyph name="six" format="2">
	<unicode hex="0036"/>
	<advance width="686"/>
	<outline>
		<contour>
			<point x="344" y="-16" type="curve" smooth="yes"/>
			<point x="529" y="-16"/>
			<point x="649" y="79"/>
			<point x="649" y="244" type="curve" smooth="yes"/>
			<point x="649" y="383"/>
			<point x="561" y="451"/>
			<point x="428" y="451" type="curve" smooth="yes"/>
			<point x="358" y="451"/>
			<point x="305" y="431"/>
			<point x="271" y="407" type="curve"/>
			<point x="282" y="571"/>
			<point x="338" y="616"/>
			<point x="411" y="616" type="curve" smooth="yes"/>
			<point x="439" y="616"/>
			<point x="459" y="612"/>
			<point x="478" y="605" type="curve"/>
			<point x="459" y="576"/>
			<point x="453" y="562"/>
			<point x="453" y="543" type="curve" smooth="yes"/>
			<point x="453" y="521"/>
			<point x="471" y="485"/>
			<point x="540" y="485" type="curve" smooth="yes"/>
			<point x="619" y="485"/>
			<point x="646" y="542"/>
			<point x="646" y="586" type="curve" smooth="yes"/>
			<point x="646" y="669"/>
			<point x="531" y="714"/>
			<point x="412" y="714" type="curve" smooth="yes"/>
			<point x="123" y="714"/>
			<point x="39" y="500"/>
			<point x="39" y="308" type="curve" smooth="yes"/>
			<point x="39" y="117"/>
			<point x="115" y="-16"/>
		</contour>
		<contour>
			<point x="352" y="104" type="curve" smooth="yes"/>
			<point x="290" y="104"/>
			<point x="270" y="149"/>
			<point x="270" y="223" type="curve" smooth="yes"/>
			<point x="270" y="306"/>
			<point x="307" y="332"/>
			<point x="353" y="332" type="curve" smooth="yes"/>
			<point x="401" y="332"/>
			<point x="432" y="306"/>
			<point x="432" y="223" type="curve" smooth="yes"/>
			<point x="432" y="140"/>
			<point x="402" y="104"/>
		</contour>
	</outline>
</glyph>
<glyph name="seven" format="2">
	<unicode hex="0037"/>
	<advance width="633"/>
	<outline>
		<contour>
			<point x="216" y="-14" type="line"/>
			<point x="410" y="5" type="line"/>
			<point x="388" y="312"/>
			<point x="474" y="462"/>
			<point x="626" y="590" type="curve"/>
			<point x="611" y="700" type="line"/>
			<point x="46" y="700" type="line"/>
			<point x="30" y="455" type="line"/>
			<point x="162" y="455" type="line"/>
			<point x="182" y="562"/>
			<point x="192" y="562"/>
			<point x="249" y="562" type="curve" smooth="yes"/>
			<point x="452" y="562" type="line"/>
			<point x="250" y="411"/>
			<point x="179" y="263"/>
			<point x="187" y="0" type="curve"/>
		</contour>
	</outline>
</glyph>
<glyph name="eight" format="2">
	<unicode hex="0038"/>
	<advance width="683"/>
	<outline>
		<contour>
			<point x="317" y="-16" type="curve" smooth="yes"/>
			<point x="512" y="-16"/>
			<point x="659" y="58"/>
			<point x="659" y="207" type="curve" smooth="yes"/>
			<point x="659" y="280"/>
			<point x="625" y="346"/>
			<point x="499" y="402" type="curve"/>
			<point x="578" y="443"/>
			<point x="624" y="488"/>
			<point x="624" y="555" type="curve" smooth="yes"/>
			<point x="624" y="650"/>
			<point x="542" y="714"/>
			<point x="356" y="714" type="curve" smooth="yes"/>
			<point x="142" y="714"/>
			<point x="58" y="614"/>
			<point x="58" y="521" type="curve" smooth="yes"/>
			<point x="58" y="438"/>
			<point x="100" y="388"/>
			<point x="185" y="345" type="curve"/>
			<point x="72" y="300"/>
			<point x="24" y="244"/>
			<point x="24" y="166" type="curve" smooth="yes"/>
			<point x="24" y="45"/>
			<point x="137" y="-16"/>
		</contour>
		<contour>
			<point x="336" y="110" type="curve" smooth="yes"/>
			<point x="278" y="110"/>
			<point x="228" y="131"/>
			<point x="228" y="190" type="curve" smooth="yes"/>
			<point x="228" y="221"/>
			<point x="243" y="254"/>
			<point x="291" y="292" type="curve"/>
			<point x="389" y="258"/>
			<point x="432" y="236"/>
			<point x="432" y="188" type="curve" smooth="yes"/>
			<point x="432" y="139"/>
			<point x="393" y="110"/>
		</contour>
		<contour>
			<point x="385" y="452" type="curve"/>
			<point x="283" y="493"/>
			<point x="267" y="515"/>
			<point x="267" y="548" type="curve" smooth="yes"/>
			<point x="267" y="582"/>
			<point x="298" y="602"/>
			<point x="344" y="602" type="curve" smooth="yes"/>
			<point x="392" y="602"/>
			<point x="427" y="586"/>
			<point x="427" y="541" type="curve" smooth="yes"/>
			<point x="427" y="518"/>
			<point x="413" y="484"/>
		</contour>
	</outline>
</glyph>
<glyph name="nine" format="2">
	<unicode hex="0039"/>
	<advance width="684"/>
	<outline>
		<contour>
			<point x="318" y="-14" type="curve" smooth="yes"/>
			<point x="539" y="-14"/>
			<point x="644" y="118"/>
			<point x="644" y="393" type="curve" smooth="yes"/>
			<point x="644" y="584"/>
			<point x="557" y="714"/>
			<point x="339" y="714" type="curve" smooth="yes"/>
			<point x="166" y="714"/>
			<point x="36" y="634"/>
			<point x="36" y="460" type="curve" smooth="yes"/>
			<point x="36" y="323"/>
			<point x="124" y="242"/>
			<point x="277" y="242" type="curve" smooth="yes"/>
			<point x="326" y="242"/>
			<point x="380" y="254"/>
			<point x="415" y="283" type="curve"/>
			<point x="408" y="174"/>
			<point x="371" y="139"/>
			<point x="289" y="139" type="curve" smooth="yes"/>
			<point x="226" y="139"/>
			<point x="167" y="158"/>
			<point x="114" y="191" type="curve"/>
			<point x="50" y="61" type="line"/>
			<point x="128" y="13"/>
			<point x="213" y="-14"/>
		</contour>
		<contour>
			<point x="332" y="359" type="curve" smooth="yes"/>
			<point x="289" y="359"/>
			<point x="256" y="384"/>
			<point x="256" y="491" type="curve" smooth="yes"/>
			<point x="256" y="570"/>
			<point x="290" y="600"/>
			<point x="336" y="600" type="curve" smooth="yes"/>
			<point x="394" y="600"/>
			<point x="415" y="553"/>
			<point x="415" y="473" type="curve" smooth="yes"/>
			<point x="415" y="391"/>
			<point x="378" y="359"/>
		</contour>
	</outline>
</glyph>
<glyph name="colon" format="2">
	<unicode hex="003A"/>
	<advance width="357"/>
	<outline>
		<contour>
			<point x="179" y="-15" type="curve" smooth="yes"/>
			<point x="255" y="-15"/>
			<point x="302" y="26"/>
			<point x="302" y="89" type="curve" smooth="yes"/>
			<point x="302" y="153"/>
			<point x="260" y="193"/>
			<point x="179" y="193" type="curve" smooth="yes"/>
			<point x="99" y="193"/>
			<point x="55" y="152"/>
			<point x="55" y="90" type="curve" smooth="yes"/>
			<point x="55" y="25"/>
			<point x="100" y="-15"/>
		</contour>
		<contour>
			<point x="179" y="335" type="curve" smooth="yes"/>
			<point x="255" y="335"/>
			<point x="302" y="376"/>
			<point x="302" y="439" type="curve" smooth="yes"/>
			<point x="302" y="503"/>
			<point x="260" y="543"/>
			<point x="179" y="543" type="curve" smooth="yes"/>
			<point x="99" y="543"/>
			<point x="55" y="502"/>
			<point x="55" y="440" type="curve" smooth="yes"/>
			<point x="55" y="375"/>
			<point x="100" y="335"/>
		</contour>
	</outline>
</glyph>
<glyph name="less" format="2">
	<unicode hex="003C"/>
	<advance width="620"/>
	<outline>
		<contour>
			<point x="447" y="37" type="line"/>
			<point x="520" y="161" type="line"/>
			<point x="289" y="285" type="line"/>
			<point x="520" y="410" type="line"/>
			<point x="447" y="532" type="line"/>
			<point x="89" y="325" type="line"/>
			<point x="89" y="243" type="line"/>
		</contour>
	</outline>
</glyph>
<glyph name="equal" format="2">
	<unicode hex="003D"/>
	<advance width="620"/>
	<outline>
		<contour>
			<point x="96" y="328" type="line"/>
			<point x="524" y="328" type="line"/>
			<point x="524" y="483" type="line"/>
			<point x="96" y="483" type="line"/>
		</contour>
		<contour>
			<point x="96" y="123" type="line"/>
			<point x="524" y="123" type="line"/>
			<point x="524" y="278" type="line"/>
			<point x="96" y="278" type="line"/>
		</contour>
	</outline>
</glyph>
<glyph name="greater" format="2">
	<unicode hex="003E"/>
	<advance width="620"/>
	<outline>
		<contour>
			<point x="162" y="37" type="line"/>
			<point x="520" y="243" type="line"/>
			<point x="520" y="325" type="line"/>
			<point x="162" y="532" type="line"/>
			<point x="89" y="410" type="line"/>
			<point x="320" y="285" type="line"/>
			<point x="89" y="161" type="line"/>
		</contour>
	</outline>
</glyph>
<glyph name="at" format="2">
	<unicode hex="0040"/>
	<advance width="1115"/>
	<outline>
		<contour>
			<point x="438" y="-218" type="curve" smooth="yes"/>
			<point x="555" y="-218"/>
			<point x="673" y="-183"/>
			<point x="747" y="-126" type="curve"/>
			<point x="695" y="-52" type="line"/>
			<point x="630" y="-89"/>
			<point x="561" y="-106"/>
			<point x="473" y="-106" type="curve" smooth="yes"/>
			<point x="297" y="-106"/>
			<point x="204" y="-15"/>
			<point x="204" y="158" type="curve" smooth="yes"/>
			<point x="204" y="379"/>
			<point x="350" y="515"/>
			<point x="587" y="515" type="curve" smooth="yes"/>
			<point x="816" y="515"/>
			<point x="923" y="432"/>
			<point x="923" y="255" type="curve" smooth="yes"/>
			<point x="923" y="152"/>
			<point x="870" y="56"/>
			<point x="813" y="56" type="curve" smooth="yes"/>
			<point x="786" y="56"/>
			<point x="779" y="70"/>
			<point x="784" y="109" type="curve" smooth="yes"/>
			<point x="822" y="396" type="line"/>
			<point x="801" y="402" type="line"/>
			<point x="713" y="373" type="line"/>
			<point x="657" y="407"/>
			<point x="599" y="426"/>
			<point x="548" y="426" type="curve" smooth="yes"/>
			<point x="397" y="426"/>
			<point x="299" y="313"/>
			<point x="299" y="139" type="curve" smooth="yes"/>
			<point x="299" y="39"/>
			<point x="368" y="-27"/>
			<point x="471" y="-27" type="curve" smooth="yes"/>
			<point x="557" y="-27"/>
			<point x="618" y="28"/>
			<point x="649" y="133" type="curve" smooth="yes"/>
			<point x="668" y="198" type="line"/>
			<point x="677" y="197" type="line"/>
			<point x="660" y="86" type="line" smooth="yes"/>
			<point x="649" y="10"/>
			<point x="690" y="-27"/>
			<point x="784" y="-27" type="curve" smooth="yes"/>
			<point x="951" y="-27"/>
			<point x="1055" y="90"/>
			<point x="1055" y="277" type="curve" smooth="yes"/>
			<point x="1055" y="495"/>
			<point x="891" y="619"/>
			<point x="603" y="619" type="curve" smooth="yes"/>
			<point x="276" y="619"/>
			<point x="70" y="430"/>
			<point x="70" y="129" type="curve" smooth="yes"/>
			<point x="70" y="-79"/>
			<point x="217" y="-218"/>
		</contour>
		<contour>
			<point x="507" y="60" type="curve" smooth="yes"/>
			<point x="480" y="60"/>
			<point x="467" y="85"/>
			<point x="467" y="139" type="curve" smooth="yes"/>
			<point x="467" y="248"/>
			<point x="525" y="344"/>
			<point x="590" y="344" type="curve" smooth="yes"/>
			<point x="612" y="344"/>
			<point x="630" y="339"/>
			<point x="656" y="327" type="curve"/>
			<point x="592" y="150" type="line" smooth="yes"/>
			<point x="569" y="86"/>
			<point x="544" y="60"/>
		</contour>
	</outline>
</glyph>
<glyph name="A" format="2">
	<unicode hex="0041"/>
	<advance width="851"/>
	<outline>
		<contour>
			<point x="7" y="0" type="line"/>
			<point x="311" y="0" type="line"/>
			<point x="311" y="99" type="line"/>
			<point x="273" y="102" type="line" smooth="yes"/>
			<point x="235" y="105"/>
			<point x="231" y="126"/>
			<point x="247" y="161" type="curve" smooth="yes"/>
			<point x="260" y="190" type="line"/>
			<point x="495" y="190" type="line"/>
			<point x="509" y="158" type="line" smooth="yes"/>
			<point x="520" y="132"/>
			<point x="516" y="107"/>
			<point x="490" y="105" type="curve" smooth="yes"/>
			<point x="448" y="101" type="line"/>
			<point x="448" y="0" type="line"/>
			<point x="844" y="0" type="line"/>
			<point x="844" y="100" type="line"/>
			<point x="810" y="102" type="line" smooth="yes"/>
			<point x="784" y="104"/>
			<point x="772" y="115"/>
			<point x="756" y="157" type="curve" smooth="yes"/>
			<point x="545" y="700" type="line"/>
			<point x="317" y="700" type="line"/>
			<point x="100" y="163" type="line" smooth="yes"/>
			<point x="88" y="133"/>
			<point x="74" y="111"/>
			<point x="46" y="107" type="curve" smooth="yes"/>
			<point x="7" y="102" type="line"/>
		</contour>
		<contour>
			<point x="297" y="299" type="line"/>
			<point x="383" y="522" type="line"/>
			<point x="387" y="522" type="line"/>
			<point x="464" y="299" type="line"/>
		</contour>
	</outline>
	<anchor name="bottom" x="403" y="-30"/>
	<anchor name="top" x="429" y="730"/>
</glyph>
<glyph name="B" format="2">
	<unicode hex="0042"/>
	<advance width="789"/>
	<outline>
		<contour>
			<point x="48" y="0" type="line"/>
			<point x="443" y="0" type="line" smooth="yes"/>
			<point x="653" y="0"/>
			<point x="756" y="79"/>
			<point x="756" y="206" type="curve" smooth="yes"/>
			<point x="756" y="307"/>
			<point x="677" y="357"/>
			<point x="560" y="373" type="curve"/>
			<point x="560" y="378" type="line"/>
			<point x="640" y="399"/>
			<point x="713" y="441"/>
			<point x="713" y="541" type="curve" smooth="yes"/>
			<point x="713" y="631"/>
			<point x="634" y="700"/>
			<point x="417" y="700" type="curve" smooth="yes"/>
			<point x="48" y="700" type="line"/>
			<point x="48" y="601" type="line"/>
			<point x="82" y="600" type="line" smooth="yes"/>
			<point x="115" y="599"/>
			<point x="118" y="582"/>
			<point x="118" y="552" type="curve" smooth="yes"/>
			<point x="118" y="154" type="line" smooth="yes"/>
			<point x="118" y="110"/>
			<point x="108" y="104"/>
			<point x="84" y="102" type="curve" smooth="yes"/>
			<point x="48" y="99" type="line"/>
		</contour>
		<contour>
			<point x="404" y="117" type="curve" smooth="yes"/>
			<point x="385" y="117"/>
			<point x="370" y="118"/>
			<point x="353" y="122" type="curve"/>
			<point x="353" y="302" type="line"/>
			<point x="369" y="305"/>
			<point x="384" y="306"/>
			<point x="402" y="306" type="curve" smooth="yes"/>
			<point x="469" y="306"/>
			<point x="514" y="286"/>
			<point x="514" y="217" type="curve" smooth="yes"/>
			<point x="514" y="152"/>
			<point x="474" y="117"/>
		</contour>
		<contour>
			<point x="394" y="416" type="curve" smooth="yes"/>
			<point x="378" y="416"/>
			<point x="365" y="416"/>
			<point x="353" y="418" type="curve"/>
			<point x="353" y="588" type="line"/>
			<point x="393" y="588" type="line" smooth="yes"/>
			<point x="457" y="588"/>
			<point x="481" y="555"/>
			<point x="481" y="505" type="curve" smooth="yes"/>
			<point x="481" y="448"/>
			<point x="447" y="416"/>
		</contour>
	</outline>
</glyph>
<glyph name="C" format="2">
	<unicode hex="0043"/>
	<advance width="794"/>
	<outline>
		<contour>
			<point x="420" y="-14" type="curve" smooth="yes"/>
			<point x="600" y="-14"/>
			<point x="702" y="70"/>
			<point x="751" y="116" type="curve"/>
			<point x="681" y="214" type="line"/>
			<point x="648" y="191"/>
			<point x="575" y="147"/>
			<point x="484" y="147" type="curve" smooth="yes"/>
			<point x="391" y="147"/>
			<point x="290" y="181"/>
			<point x="290" y="379" type="curve" smooth="yes"/>
			<point x="290" y="503"/>
			<point x="341" y="581"/>
			<point x="453" y="581" type="curve" smooth="yes"/>
			<point x="527" y="581"/>
			<point x="587" y="546"/>
			<point x="629" y="437" type="curve"/>
			<point x="742" y="458" type="line"/>
			<point x="700" y="714" type="line"/>
			<point x="615" y="714" type="line"/>
			<point x="601" y="667" type="line"/>
			<point x="552" y="696"/>
			<point x="497" y="714"/>
			<point x="432" y="714" type="curve" smooth="yes"/>
			<point x="197" y="714"/>
			<point x="48" y="569"/>
			<point x="48" y="345" type="curve" smooth="yes"/>
			<point x="48" y="111"/>
			<point x="191" y="-14"/>
		</contour>
	</outline>
	<anchor name="bottom" x="427" y="-30"/>
	<anchor name="top" x="418" y="730"/>
</glyph>
<glyph name="D" format="2">
	<unicode hex="0044"/>
	<advance width="867"/>
	<outline>
		<contour>
			<point x="48" y="0" type="line"/>
			<point x="352" y="0" type="line" smooth="yes"/>
			<point x="669" y="0"/>
			<point x="822" y="123"/>
			<point x="822" y="370" type="curve" smooth="yes"/>
			<point x="822" y="646"/>
			<point x="612" y="700"/>
			<point x="426" y="700" type="curve" smooth="yes"/>
			<point x="48" y="700" type="line"/>
			<point x="48" y="601" type="line"/>
			<point x="82" y="600" type="line" smooth="yes"/>
			<point x="115" y="599"/>
			<point x="118" y="582"/>
			<point x="118" y="552" type="curve" smooth="yes"/>
			<point x="118" y="154" type="line" smooth="yes"/>
			<point x="118" y="110"/>
			<point x="108" y="104"/>
			<point x="84" y="102" type="curve" smooth="yes"/>
			<point x="48" y="99" type="line"/>
		</contour>
		<contour>
			<point x="406" y="128" type="curve" smooth="yes"/>
			<point x="388" y="128"/>
			<point x="372" y="129"/>
			<point x="353" y="132" type="curve"/>
			<point x="353" y="572" type="line"/>
			<point x="410" y="572" type="line" smooth="yes"/>
			<point x="515" y="572"/>
			<point x="577" y="510"/>
			<point x="577" y="364" type="curve" smooth="yes"/>
			<point x="577" y="205"/>
			<point x="536" y="128"/>
		</contour>
	</outline>
	<anchor name="bottom" x="407" y="-30"/>
	<anchor name="top" x="403" y="730"/>
</glyph>
<glyph name="E" format="2">
	<unicode hex="0045"/>
	<advance width="759"/>
	<outline>
		<contour>
			<point x="48" y="0" type="line"/>
			<point x="696" y="0" type="line"/>
			<point x="725" y="243" type="line"/>
			<point x="596" y="243" type="line"/>
			<point x="576" y="151"/>
			<point x="558" y="116"/>
			<point x="472" y="116" type="curve" smooth="yes"/>
			<point x="353" y="116" type="line"/>
			<point x="353" y="296" type="line"/>
			<point x="393" y="296" type="line" smooth="yes"/>
			<point x="432" y="296"/>
			<point x="444" y="280"/>
			<point x="449" y="226" type="curve"/>
			<point x="543" y="239" type="line"/>
			<point x="543" y="479" type="line"/>
			<point x="451" y="473" type="line"/>
			<point x="440" y="417"/>
			<point x="425" y="407"/>
			<point x="395" y="407" type="curve" smooth="yes"/>
			<point x="353" y="407" type="line"/>
			<point x="353" y="586" type="line"/>
			<point x="463" y="586" type="line" smooth="yes"/>
			<point x="544" y="586"/>
			<point x="562" y="558"/>
			<point x="581" y="479" type="curve"/>
			<point x="710" y="493" type="line"/>
			<point x="675" y="700" type="line"/>
			<point x="48" y="700" type="line"/>
			<point x="48" y="601" type="line"/>
			<point x="82" y="600" type="line" smooth="yes"/>
			<point x="110" y="599"/>
			<point x="118" y="588"/>
			<point x="118" y="552" type="curve" smooth="yes"/>
			<point x="118" y="154" type="line" smooth="yes"/>
			<point x="118" y="109"/>
			<point x="108" y="104"/>
			<point x="84" y="102" type="curve" smooth="yes"/>
			<point x="48" y="99" type="line"/>
		</contour>
	</outline>
	<anchor name="bottom" x="393" y="-30"/>
	<anchor name="top" x="382" y="730"/>
</glyph>
<glyph name="J" format="2">
	<unicode hex="004A"/>
	<advance width="649"/>
	<outline>
		<contour>
			<point x="265" y="-14" type="curve" smooth="yes"/>
			<point x="451" y="-14"/>
			<point x="555" y="71"/>
			<point x="555" y="252" type="curve" smooth="yes"/>
			<point x="555" y="549" type="line" smooth="yes"/>
			<point x="555" y="580"/>
			<point x="562" y="596"/>
			<point x="588" y="598" type="curve" smooth="yes"/>
			<point x="625" y="601" type="line"/>
			<point x="625" y="700" type="line"/>
			<point x="222" y="700" type="line"/>
			<point x="222" y="597" type="line"/>
			<point x="284" y="594" type="line" smooth="yes"/>
			<point x="314" y="593"/>
			<point x="320" y="578"/>
			<point x="320" y="542" type="curve" smooth="yes"/>
			<point x="320" y="202" type="line" smooth="yes"/>
			<point x="320" y="149"/>
			<point x="299" y="103"/>
			<point x="245" y="103" type="curve" smooth="yes"/>
			<point x="220" y="103"/>
			<point x="198" y="109"/>
			<point x="180" y="121" type="curve"/>
			<point x="205" y="156"/>
			<point x="217" y="186"/>
			<point x="217" y="218" type="curve" smooth="yes"/>
			<point x="217" y="252"/>
			<point x="179" y="279"/>
			<point x="127" y="279" type="curve" smooth="yes"/>
			<point x="58" y="279"/>
			<point x="14" y="239"/>
			<point x="14" y="152" type="curve" smooth="yes"/>
			<point x="14" y="49"/>
			<point x="130" y="-14"/>
		</contour>
	</outline>
	<anchor name="top" x="420" y="730"/>
</glyph>
<glyph name="N" format="2">
	<unicode hex="004E"/>
	<advance width="926"/>
	<outline>
		<contour>
			<point x="48" y="0" type="line"/>
			<point x="349" y="0" type="line"/>
			<point x="349" y="99" type="line"/>
			<point x="315" y="102" type="line" smooth="yes"/>
			<point x="286" y="105"/>
			<point x="280" y="113"/>
			<point x="280" y="149" type="curve" smooth="yes"/>
			<point x="280" y="378" type="line"/>
			<point x="284" y="378" type="line"/>
			<point x="572" y="0" type="line"/>
			<point x="817" y="0" type="line"/>
			<point x="817" y="549" type="line" smooth="yes"/>
			<point x="817" y="586"/>
			<point x="825" y="599"/>
			<point x="851" y="600" type="curve" smooth="yes"/>
			<point x="886" y="601" type="line"/>
			<point x="886" y="700" type="line"/>
			<point x="586" y="700" type="line"/>
			<point x="586" y="601" type="line"/>
			<point x="619" y="598" type="line" smooth="yes"/>
			<point x="648" y="595"/>
			<point x="655" y="584"/>
			<point x="655" y="551" type="curve" smooth="yes"/>
			<point x="655" y="285" type="line"/>
			<point x="651" y="285" type="line"/>
			<point x="356" y="700" type="line"/>
			<point x="48" y="700" type="line"/>
			<point x="48" y="601" type="line"/>
			<point x="82" y="599" type="line" smooth="yes"/>
			<point x="115" y="597"/>
			<point x="118" y="583"/>
			<point x="118" y="550" type="curve" smooth="yes"/>
			<point x="118" y="153" type="line" smooth="yes"/>
			<point x="118" y="113"/>
			<point x="110" y="104"/>
			<point x="84" y="102" type="curve" smooth="yes"/>
			<point x="48" y="99" type="line"/>
		</contour>
	</outline>
	<anchor name="bottom" x="457" y="-30"/>
	<anchor name="top" x="459" y="730"/>
</glyph>
<glyph name="O" format="2">
	<unicode hex="004F"/>
	<advance width="874"/>
	<outline>
		<contour>
			<point x="430" y="-14" type="curve" smooth="yes"/>
			<point x="701" y="-14"/>
			<point x="829" y="161"/>
			<point x="829" y="366" type="curve" smooth="yes"/>
			<point x="829" y="597"/>
			<point x="680" y="714"/>
			<point x="455" y="714" type="curve" smooth="yes"/>
			<point x="212" y="714"/>
			<point x="48" y="586"/>
			<point x="48" y="340" type="curve" smooth="yes"/>
			<point x="48" y="139"/>
			<point x="164" y="-14"/>
		</contour>
		<contour>
			<point x="442" y="120" type="curve" smooth="yes"/>
			<point x="338" y="120"/>
			<point x="294" y="194"/>
			<point x="294" y="357" type="curve" smooth="yes"/>
			<point x="294" y="525"/>
			<point x="342" y="581"/>
			<point x="435" y="581" type="curve" smooth="yes"/>
			<point x="533" y="581"/>
			<point x="583" y="512"/>
			<point x="583" y="350" type="curve" smooth="yes"/>
			<point x="583" y="173"/>
			<point x="532" y="120"/>
		</contour>
	</outline>
	<anchor name="bottom" x="439" y="-30"/>
	<anchor name="top" x="440" y="730"/>
	<guideline x="400" y="380" angle="90"/>
</glyph>
<glyph name="P" format="2">
	<unicode hex="0050"/>
	<advance width="761"/>
	<outline>
		<contour>
			<point x="48" y="0" type="line"/>
			<point x="475" y="0" type="line"/>
			<point x="475" y="99" type="line"/>
			<point x="397" y="104" type="line" smooth="yes"/>
			<point x="357" y="107"/>
			<point x="353" y="115"/>
			<point x="353" y="151" type="curve" smooth="yes"/>
			<point x="353" y="248" type="line"/>
			<point x="368" y="245"/>
			<point x="411" y="243"/>
			<point x="447" y="243" type="curve" smooth="yes"/>
			<point x="533" y="243"/>
			<point x="736" y="273"/>
			<point x="736" y="486" type="curve" smooth="yes"/>
			<point x="736" y="690"/>
			<point x="542" y="700"/>
			<point x="422" y="700" type="curve" smooth="yes"/>
			<point x="48" y="700" type="line"/>
			<point x="48" y="601" type="line"/>
			<point x="81" y="600" type="line" smooth="yes"/>
			<point x="112" y="599"/>
			<point x="118" y="588"/>
			<point x="118" y="552" type="curve" smooth="yes"/>
			<point x="118" y="148" type="line" smooth="yes"/>
			<point x="118" y="108"/>
			<point x="110" y="104"/>
			<point x="84" y="102" type="curve" smooth="yes"/>
			<point x="48" y="99" type="line"/>
		</contour>
		<contour>
			<point x="393" y="370" type="curve" smooth="yes"/>
			<point x="376" y="370"/>
			<point x="365" y="371"/>
			<point x="353" y="372" type="curve"/>
			<point x="353" y="586" type="line"/>
			<point x="394" y="586" type="line" smooth="yes"/>
			<point x="463" y="586"/>
			<point x="501" y="554"/>
			<point x="501" y="484" type="curve" smooth="yes"/>
			<point x="501" y="406"/>
			<point x="463" y="370"/>
		</contour>
	</outline>
</glyph>
<glyph name="R" format="2">
	<unicode hex="0052"/>
	<advance width="832"/>
	<outline>
		<contour>
			<point x="663" y="-14" type="curve" smooth="yes"/>
			<point x="739" y="-14"/>
			<point x="795" y="10"/>
			<point x="828" y="33" type="curve"/>
			<point x="810" y="119" type="line"/>
			<point x="794" y="117"/>
			<point x="780" y="115"/>
			<point x="764" y="115" type="curve" smooth="yes"/>
			<point x="729" y="115"/>
			<point x="715" y="136"/>
			<point x="694" y="191" type="curve" smooth="yes"/>
			<point x="675" y="240" type="line" smooth="yes"/>
			<point x="649" y="306"/>
			<point x="602" y="335"/>
			<point x="499" y="343" type="curve"/>
			<point x="499" y="348" type="line"/>
			<point x="545" y="351"/>
			<point x="736" y="375"/>
			<point x="736" y="526" type="curve" smooth="yes"/>
			<point x="736" y="674"/>
			<point x="572" y="700"/>
			<point x="423" y="700" type="curve" smooth="yes"/>
			<point x="48" y="700" type="line"/>
			<point x="48" y="601" type="line"/>
			<point x="81" y="600" type="line" smooth="yes"/>
			<point x="112" y="599"/>
			<point x="118" y="583"/>
			<point x="118" y="552" type="curve" smooth="yes"/>
			<point x="118" y="154" type="line" smooth="yes"/>
			<point x="118" y="110"/>
			<point x="108" y="104"/>
			<point x="84" y="102" type="curve" smooth="yes"/>
			<point x="48" y="99" type="line"/>
			<point x="48" y="0" type="line"/>
			<point x="422" y="0" type="line"/>
			<point x="422" y="100" type="line"/>
			<point x="393" y="103" type="line" smooth="yes"/>
			<point x="355" y="107"/>
			<point x="353" y="118"/>
			<point x="353" y="153" type="curve" smooth="yes"/>
			<point x="353" y="301" type="line"/>
			<point x="362" y="302"/>
			<point x="372" y="302"/>
			<point x="379" y="302" type="curve" smooth="yes"/>
			<point x="414" y="302"/>
			<point x="431" y="268"/>
			<point x="439" y="239" type="curve" smooth="yes"/>
			<point x="472" y="117" type="line" smooth="yes"/>
			<point x="490" y="50"/>
			<point x="545" y="-14"/>
		</contour>
		<contour>
			<point x="386" y="399" type="curve" smooth="yes"/>
			<point x="378" y="399"/>
			<point x="365" y="399"/>
			<point x="356" y="400" type="curve"/>
			<point x="356" y="586" type="line"/>
			<point x="390" y="586" type="line" smooth="yes"/>
			<point x="432" y="586"/>
			<point x="487" y="567"/>
			<point x="487" y="500" type="curve" smooth="yes"/>
			<point x="487" y="437"/>
			<point x="451" y="399"/>
		</contour>
	</outline>
	<anchor name="bottom" x="411" y="-30"/>
	<anchor name="top" x="379" y="730"/>
</glyph>
<glyph name="U" format="2">
	<unicode hex="0055"/>
	<advance width="852"/>
	<outline>
		<contour>
			<point x="433" y="-14" type="curve" smooth="yes"/>
			<point x="638" y="-14"/>
			<point x="746" y="71"/>
			<point x="746" y="252" type="curve" smooth="yes"/>
			<point x="746" y="547" type="line" smooth="yes"/>
			<point x="746" y="582"/>
			<point x="752" y="596"/>
			<point x="779" y="598" type="curve" smooth="yes"/>
			<point x="815" y="601" type="line"/>
			<point x="815" y="700" type="line"/>
			<point x="538" y="700" type="line"/>
			<point x="538" y="601" type="line"/>
			<point x="572" y="600" type="line" smooth="yes"/>
			<point x="603" y="599"/>
			<point x="608" y="584"/>
			<point x="608" y="550" type="curve" smooth="yes"/>
			<point x="608" y="243" type="line" smooth="yes"/>
			<point x="608" y="185"/>
			<point x="579" y="132"/>
			<point x="471" y="132" type="curve" smooth="yes"/>
			<point x="375" y="132"/>
			<point x="342" y="178"/>
			<point x="342" y="246" type="curve" smooth="yes"/>
			<point x="342" y="547" type="line" smooth="yes"/>
			<point x="342" y="582"/>
			<point x="348" y="596"/>
			<point x="375" y="598" type="curve" smooth="yes"/>
			<point x="411" y="601" type="line"/>
			<point x="411" y="700" type="line"/>
			<point x="37" y="700" type="line"/>
			<point x="37" y="601" type="line"/>
			<point x="71" y="600" type="line" smooth="yes"/>
			<point x="102" y="599"/>
			<point x="107" y="584"/>
			<point x="107" y="550" type="curve" smooth="yes"/>
			<point x="107" y="252" type="line" smooth="yes"/>
			<point x="107" y="123"/>
			<point x="170" y="-14"/>
		</contour>
	</outline>
	<anchor name="bottom" x="435" y="-30"/>
	<anchor name="top" x="464" y="730"/>
</glyph>
<glyph name="W" format="2">
	<unicode hex="0057"/>
	<advance width="1236"/>
	<outline>
		<contour>
			<point x="239" y="0" type="line"/>
			<point x="496" y="0" type="line"/>
			<point x="612" y="406" type="line"/>
			<point x="615" y="406" type="line"/>
			<point x="736" y="0" type="line"/>
			<point x="994" y="0" type="line"/>
			<point x="1121" y="552" type="line" smooth="yes"/>
			<point x="1131" y="597"/>
			<point x="1150" y="596"/>
			<point x="1173" y="597" type="curve" smooth="yes"/>
			<point x="1227" y="600" type="line"/>
			<point x="1227" y="700" type="line"/>
			<point x="917" y="700" type="line"/>
			<point x="917" y="603" type="line"/>
			<point x="971" y="600" type="line" smooth="yes"/>
			<point x="998" y="599"/>
			<point x="1001" y="587"/>
			<point x="994" y="554" type="curve" smooth="yes"/>
			<point x="921" y="211" type="line"/>
			<point x="918" y="211" type="line"/>
			<point x="777" y="700" type="line"/>
			<point x="554" y="700" type="line"/>
			<point x="425" y="224" type="line"/>
			<point x="421" y="224" type="line"/>
			<point x="343" y="545" type="line" smooth="yes"/>
			<point x="335" y="578"/>
			<point x="343" y="595"/>
			<point x="370" y="597" type="curve" smooth="yes"/>
			<point x="419" y="600" type="line"/>
			<point x="419" y="700" type="line"/>
			<point x="9" y="700" type="line"/>
			<point x="9" y="603" type="line"/>
			<point x="53" y="601" type="line" smooth="yes"/>
			<point x="88" y="599"/>
			<point x="94" y="588"/>
			<point x="102" y="555" type="curve" smooth="yes"/>
		</contour>
	</outline>
	<anchor name="top" x="663" y="730"/>
</glyph>
<glyph name="backslash" format="2">
	<unicode hex="005C"/>
	<advance width="591"/>
	<outline>
		<contour>
			<point x="373" y="-110" type="line"/>
			<point x="549" y="-110" type="line"/>
			<point x="179" y="802" type="line"/>
			<point x="4" y="802" type="line"/>
		</contour>
	</outline>
</glyph>
<glyph name="c" format="2">
	<unicode hex="0063"/>
	<advance width="643"/>
	<outline>
		<contour>
			<point x="332" y="-14" type="curve" smooth="yes"/>
			<point x="473" y="-14"/>
			<point x="557" y="37"/>
			<point x="616" y="99" type="curve"/>
			<point x="556" y="186" type="line"/>
			<point x="494" y="150"/>
			<point x="448" y="141"/>
			<point x="398" y="141" type="curve" smooth="yes"/>
			<point x="308" y="141"/>
			<point x="265" y="189"/>
			<point x="265" y="292" type="curve" smooth="yes"/>
			<point x="265" y="392"/>
			<point x="304" y="435"/>
			<point x="365" y="435" type="curve" smooth="yes"/>
			<point x="392" y="435"/>
			<point x="412" y="431"/>
			<point x="433" y="422" type="curve"/>
			<point x="415" y="390"/>
			<point x="408" y="371"/>
			<point x="408" y="359" type="curve" smooth="yes"/>
			<point x="408" y="317"/>
			<point x="444" y="294"/>
			<point x="501" y="294" type="curve" smooth="yes"/>
			<point x="576" y="294"/>
			<point x="604" y="343"/>
			<point x="604" y="394" type="curve" smooth="yes"/>
			<point x="604" y="467"/>
			<point x="519" y="543"/>
			<point x="361" y="543" type="curve" smooth="yes"/>
			<point x="155" y="543"/>
			<point x="40" y="422"/>
			<point x="40" y="250" type="curve" smooth="yes"/>
			<point x="40" y="92"/>
			<point x="143" y="-14"/>
		</contour>
	</outline>
	<anchor name="bottom" x="352" y="-31"/>
	<anchor name="top" x="348" y="561"/>
</glyph>
<glyph name="e" format="2">
	<unicode hex="0065"/>
	<advance width="670"/>
	<outline>
		<contour>
			<point x="342" y="-14" type="curve" smooth="yes"/>
			<point x="474" y="-14"/>
			<point x="572" y="41"/>
			<point x="635" y="113" type="curve"/>
			<point x="570" y="191" type="line"/>
			<point x="517" y="160"/>
			<point x="470" y="140"/>
			<point x="397" y="140" type="curve" smooth="yes"/>
			<point x="326" y="140"/>
			<point x="277" y="169"/>
			<point x="271" y="229" type="curve"/>
			<point x="615" y="229" type="line"/>
			<point x="622" y="259"/>
			<point x="625" y="297"/>
			<point x="625" y="330" type="curve" smooth="yes"/>
			<point x="625" y="470"/>
			<point x="525" y="542"/>
			<point x="363" y="542" type="curve" smooth="yes"/>
			<point x="176" y="542"/>
			<point x="40" y="441"/>
			<point x="40" y="246" type="curve" smooth="yes"/>
			<point x="40" y="92"/>
			<point x="142" y="-14"/>
		</contour>
		<contour>
			<point x="270" y="331" type="line"/>
			<point x="272" y="387"/>
			<point x="298" y="437"/>
			<point x="355" y="437" type="curve" smooth="yes"/>
			<point x="394" y="437"/>
			<point x="415" y="414"/>
			<point x="415" y="381" type="curve" smooth="yes"/>
			<point x="415" y="368"/>
			<point x="414" y="352"/>
			<point x="411" y="331" type="curve"/>
		</contour>
	</outline>
	<anchor name="bottom" x="349" y="-31"/>
	<anchor name="top" x="353" y="561"/>
</glyph>
<glyph name="f" format="2">
	<unicode hex="0066"/>
	<advance width="516"/>
	<outline>
		<contour>
			<point x="47" y="0" type="line"/>
			<point x="441" y="0" type="line"/>
			<point x="441" y="96" type="line"/>
			<point x="384" y="98" type="line" smooth="yes"/>
			<point x="343" y="99"/>
			<point x="339" y="111"/>
			<point x="339" y="148" type="curve" smooth="yes"/>
			<point x="339" y="416" type="line"/>
			<point x="485" y="416" type="line"/>
			<point x="485" y="529" type="line"/>
			<point x="339" y="529" type="line"/>
			<point x="339" y="609" type="line" smooth="yes"/>
			<point x="339" y="661"/>
			<point x="347" y="695"/>
			<point x="394" y="695" type="curve" smooth="yes"/>
			<point x="412" y="695"/>
			<point x="428" y="691"/>
			<point x="441" y="684" type="curve"/>
			<point x="424" y="651"/>
			<point x="419" y="637"/>
			<point x="419" y="620" type="curve" smooth="yes"/>
			<point x="419" y="581"/>
			<point x="449" y="564"/>
			<point x="503" y="564" type="curve" smooth="yes"/>
			<point x="568" y="564"/>
			<point x="596" y="595"/>
			<point x="596" y="645" type="curve" smooth="yes"/>
			<point x="596" y="721"/>
			<point x="522" y="782"/>
			<point x="378" y="782" type="curve" smooth="yes"/>
			<point x="172" y="782"/>
			<point x="116" y="664"/>
			<point x="116" y="556" type="curve" smooth="yes"/>
			<point x="116" y="526" type="line"/>
			<point x="31" y="510" type="line"/>
			<point x="31" y="416" type="line"/>
			<point x="114" y="416" type="line"/>
			<point x="114" y="148" type="line" smooth="yes"/>
			<point x="114" y="111"/>
			<point x="108" y="98"/>
			<point x="81" y="97" type="curve" smooth="yes"/>
			<point x="47" y="96" type="line"/>
		</contour>
	</outline>
</glyph>
<glyph name="p" format="2">
	<unicode hex="0070"/>
	<advance width="763"/>
	<outline>
		<contour>
			<point x="36" y="-216" type="line"/>
			<point x="433" y="-216" type="line"/>
			<point x="433" y="-120" type="line"/>
			<point x="363" y="-115" type="line" smooth="yes"/>
			<point x="331" y="-113"/>
			<point x="326" y="-103"/>
			<point x="326" y="-69" type="curve" smooth="yes"/>
			<point x="326" y="12" type="line"/>
			<point x="361" y="-7"/>
			<point x="407" y="-14"/>
			<point x="452" y="-14" type="curve" smooth="yes"/>
			<point x="643" y="-14"/>
			<point x="727" y="107"/>
			<point x="727" y="285" type="curve" smooth="yes"/>
			<point x="727" y="457"/>
			<point x="643" y="543"/>
			<point x="498" y="543" type="curve" smooth="yes"/>
			<point x="399" y="543"/>
			<point x="348" y="494"/>
			<point x="311" y="442" type="curve"/>
			<point x="307" y="442" type="line"/>
			<point x="298" y="524" type="line"/>
			<point x="278" y="536" type="line"/>
			<point x="37" y="521" type="line"/>
			<point x="27" y="415" type="line"/>
			<point x="65" y="413" type="line" smooth="yes"/>
			<point x="98" y="411"/>
			<point x="102" y="394"/>
			<point x="102" y="354" type="curve" smooth="yes"/>
			<point x="102" y="-67" type="line" smooth="yes"/>
			<point x="102" y="-105"/>
			<point x="94" y="-115"/>
			<point x="72" y="-117" type="curve" smooth="yes"/>
			<point x="36" y="-120" type="line"/>
		</contour>
		<contour>
			<point x="405" y="113" type="curve" smooth="yes"/>
			<point x="377" y="113"/>
			<point x="343" y="123"/>
			<point x="326" y="133" type="curve"/>
			<point x="326" y="308" type="line" smooth="yes"/>
			<point x="326" y="367"/>
			<point x="352" y="411"/>
			<point x="408" y="411" type="curve" smooth="yes"/>
			<point x="464" y="411"/>
			<point x="493" y="369"/>
			<point x="493" y="274" type="curve" smooth="yes"/>
			<point x="493" y="152"/>
			<point x="468" y="113"/>
		</contour>
	</outline>
</glyph>
<glyph name="q" format="2">
	<unicode hex="0071"/>
	<advance width="750"/>
	<outline>
		<contour>
			<point x="338" y="-216" type="line"/>
			<point x="736" y="-216" type="line"/>
			<point x="736" y="-121" type="line"/>
			<point x="702" y="-120" type="line" smooth="yes"/>
			<point x="678" y="-119"/>
			<point x="671" y="-105"/>
			<point x="671" y="-68" type="curve" smooth="yes"/>
			<point x="671" y="528" type="line"/>
			<point x="559" y="542" type="line"/>
			<point x="492" y="488" type="line"/>
			<point x="442" y="525"/>
			<point x="395" y="543"/>
			<point x="324" y="543" type="curve" smooth="yes"/>
			<point x="144" y="543"/>
			<point x="43" y="429"/>
			<point x="43" y="250" type="curve" smooth="yes"/>
			<point x="43" y="88"/>
			<point x="117" y="-14"/>
			<point x="285" y="-14" type="curve" smooth="yes"/>
			<point x="341" y="-14"/>
			<point x="408" y="8"/>
			<point x="441" y="52" type="curve"/>
			<point x="446" y="52" type="line"/>
			<point x="446" y="-71" type="line" smooth="yes"/>
			<point x="446" y="-109"/>
			<point x="437" y="-118"/>
			<point x="405" y="-119" type="curve" smooth="yes"/>
			<point x="338" y="-121" type="line"/>
		</contour>
		<contour>
			<point x="363" y="111" type="curve" smooth="yes"/>
			<point x="306" y="111"/>
			<point x="278" y="159"/>
			<point x="278" y="261" type="curve" smooth="yes"/>
			<point x="278" y="365"/>
			<point x="305" y="415"/>
			<point x="367" y="415" type="curve" smooth="yes"/>
			<point x="396" y="415"/>
			<point x="421" y="407"/>
			<point x="446" y="394" type="curve"/>
			<point x="446" y="206" type="line" smooth="yes"/>
			<point x="446" y="146"/>
			<point x="416" y="111"/>
		</contour>
	</outline>
</glyph>
<glyph name="r" format="2">
	<unicode hex="0072"/>
	<advance width="656"/>
	<outline>
		<contour>
			<point x="47" y="0" type="line"/>
			<point x="441" y="0" type="line"/>
			<point x="441" y="96" type="line"/>
			<point x="371" y="98" type="line" smooth="yes"/>
			<point x="345" y="99"/>
			<point x="339" y="108"/>
			<point x="339" y="147" type="curve" smooth="yes"/>
			<point x="339" y="299" type="line" smooth="yes"/>
			<point x="339" y="384"/>
			<point x="398" y="429"/>
			<point x="458" y="414" type="curve"/>
			<point x="444" y="380"/>
			<point x="442" y="370"/>
			<point x="442" y="355" type="curve" smooth="yes"/>
			<point x="442" y="324"/>
			<point x="468" y="294"/>
			<point x="532" y="294" type="curve" smooth="yes"/>
			<point x="602" y="294"/>
			<point x="641" y="337"/>
			<point x="641" y="418" type="curve" smooth="yes"/>
			<point x="641" y="492"/>
			<point x="589" y="543"/>
			<point x="503" y="543" type="curve" smooth="yes"/>
			<point x="422" y="543"/>
			<point x="354" y="495"/>
			<point x="323" y="431" type="curve"/>
			<point x="319" y="431" type="line"/>
			<point x="310" y="524" type="line"/>
			<point x="290" y="536" type="line"/>
			<point x="49" y="521" type="line"/>
			<point x="39" y="415" type="line"/>
			<point x="78" y="413" type="line" smooth="yes"/>
			<point x="110" y="411"/>
			<point x="114" y="398"/>
			<point x="114" y="350" type="curve" smooth="yes"/>
			<point x="114" y="148" type="line" smooth="yes"/>
			<point x="114" y="108"/>
			<point x="106" y="99"/>
			<point x="86" y="98" type="curve" smooth="yes"/>
			<point x="47" y="96" type="line"/>
		</contour>
	</outline>
	<anchor name="bottom" x="241" y="-31"/>
	<anchor name="top" x="339" y="561"/>
</glyph>
<glyph name="s" format="2">
	<unicode hex="0073"/>
	<advance width="597"/>
	<outline>
		<contour>
			<point x="64" y="-14" type="line"/>
			<point x="154" y="-14" type="line"/>
			<point x="166" y="22" type="line"/>
			<point x="205" y="3"/>
			<point x="253" y="-14"/>
			<point x="326" y="-14" type="curve" smooth="yes"/>
			<point x="468" y="-14"/>
			<point x="562" y="57"/>
			<point x="562" y="183" type="curve" smooth="yes"/>
			<point x="562" y="309"/>
			<point x="460" y="336"/>
			<point x="345" y="359" type="curve" smooth="yes"/>
			<point x="262" y="376"/>
			<point x="229" y="385"/>
			<point x="229" y="414" type="curve" smooth="yes"/>
			<point x="229" y="440"/>
			<point x="253" y="452"/>
			<point x="298" y="452" type="curve" smooth="yes"/>
			<point x="351" y="452"/>
			<point x="404" y="429"/>
			<point x="434" y="368" type="curve"/>
			<point x="540" y="363" type="line"/>
			<point x="530" y="542" type="line"/>
			<point x="438" y="542" type="line"/>
			<point x="429" y="509" type="line"/>
			<point x="397" y="526"/>
			<point x="346" y="542"/>
			<point x="282" y="542" type="curve" smooth="yes"/>
			<point x="149" y="542"/>
			<point x="53" y="480"/>
			<point x="53" y="361" type="curve" smooth="yes"/>
			<point x="53" y="223"/>
			<point x="179" y="197"/>
			<point x="264" y="182" type="curve" smooth="yes"/>
			<point x="348" y="167"/>
			<point x="382" y="159"/>
			<point x="382" y="130" type="curve" smooth="yes"/>
			<point x="382" y="104"/>
			<point x="361" y="87"/>
			<point x="309" y="87" type="curve" smooth="yes"/>
			<point x="246" y="87"/>
			<point x="193" y="117"/>
			<point x="160" y="178" type="curve"/>
			<point x="50" y="172" type="line"/>
		</contour>
	</outline>
	<anchor name="bottom" x="310" y="-31"/>
	<anchor name="top" x="298" y="561"/>
</glyph>
<glyph name="v" format="2">
	<unicode hex="0076"/>
	<advance width="711"/>
	<outline>
		<contour>
			<point x="261" y="0" type="line"/>
			<point x="471" y="0" type="line"/>
			<point x="621" y="374" type="line" smooth="yes"/>
			<point x="639" y="419"/>
			<point x="646" y="425"/>
			<point x="671" y="428" type="curve" smooth="yes"/>
			<point x="706" y="432" type="line"/>
			<point x="706" y="529" type="line"/>
			<point x="454" y="529" type="line"/>
			<point x="439" y="431" type="line"/>
			<point x="474" y="429" type="line" smooth="yes"/>
			<point x="507" y="427"/>
			<point x="508" y="405"/>
			<point x="496" y="373" type="curve" smooth="yes"/>
			<point x="420" y="175" type="line"/>
			<point x="415" y="175" type="line"/>
			<point x="330" y="379" type="line" smooth="yes"/>
			<point x="317" y="410"/>
			<point x="318" y="428"/>
			<point x="339" y="429" type="curve" smooth="yes"/>
			<point x="376" y="431" type="line"/>
			<point x="376" y="529" type="line"/>
			<point x="30" y="529" type="line"/>
			<point x="15" y="425" type="line"/>
			<point x="56" y="421" type="line" smooth="yes"/>
			<point x="82" y="418"/>
			<point x="89" y="403"/>
			<point x="106" y="363" type="curve" smooth="yes"/>
		</contour>
	</outline>
	<anchor name="top" x="397" y="561"/>
</glyph>
<glyph name="w" format="2">
	<unicode hex="0077"/>
	<advance width="1026"/>
	<outline>
		<contour>
			<point x="226" y="0" type="line"/>
			<point x="442" y="0" type="line"/>
			<point x="525" y="334" type="line"/>
			<point x="529" y="334" type="line"/>
			<point x="623" y="0" type="line"/>
			<point x="811" y="0" type="line"/>
			<point x="922" y="351" type="line" smooth="yes"/>
			<point x="940" y="407"/>
			<point x="957" y="423"/>
			<point x="986" y="426" type="curve" smooth="yes"/>
			<point x="1021" y="430" type="line"/>
			<point x="1021" y="529" type="line"/>
			<point x="792" y="529" type="line"/>
			<point x="778" y="431" type="line"/>
			<point x="804" y="428" type="line" smooth="yes"/>
			<point x="834" y="425"/>
			<point x="842" y="409"/>
			<point x="830" y="371" type="curve" smooth="yes"/>
			<point x="779" y="211" type="line"/>
			<point x="773" y="211" type="line"/>
			<point x="685" y="529" type="line"/>
			<point x="462" y="529" type="line"/>
			<point x="382" y="210" type="line"/>
			<point x="377" y="210" type="line"/>
			<point x="320" y="374" type="line" smooth="yes"/>
			<point x="308" y="407"/>
			<point x="311" y="425"/>
			<point x="330" y="426" type="curve" smooth="yes"/>
			<point x="367" y="428" type="line"/>
			<point x="367" y="529" type="line"/>
			<point x="28" y="529" type="line"/>
			<point x="15" y="426" type="line"/>
			<point x="55" y="422" type="line" smooth="yes"/>
			<point x="84" y="419"/>
			<point x="91" y="400"/>
			<point x="104" y="361" type="curve" smooth="yes"/>
		</contour>
	</outline>
	<anchor name="top" x="572" y="561"/>
</glyph>
<glyph name="x" format="2">
	<unicode hex="0078"/>
	<advance width="698"/>
	<outline>
		<contour>
			<point x="25" y="0" type="line"/>
			<point x="279" y="0" type="line"/>
			<point x="279" y="95" type="line"/>
			<point x="259" y="99" type="line" smooth="yes"/>
			<point x="238" y="103"/>
			<point x="241" y="117"/>
			<point x="263" y="137" type="curve" smooth="yes"/>
			<point x="305" y="176" type="line"/>
			<point x="352" y="134" type="line" smooth="yes"/>
			<point x="373" y="115"/>
			<point x="368" y="103"/>
			<point x="345" y="99" type="curve" smooth="yes"/>
			<point x="321" y="95" type="line"/>
			<point x="321" y="0" type="line"/>
			<point x="689" y="0" type="line"/>
			<point x="689" y="95" type="line"/>
			<point x="673" y="98" type="line" smooth="yes"/>
			<point x="644" y="103"/>
			<point x="624" y="119"/>
			<point x="601" y="141" type="curve" smooth="yes"/>
			<point x="466" y="277" type="line"/>
			<point x="585" y="391" type="line" smooth="yes"/>
			<point x="606" y="411"/>
			<point x="614" y="420"/>
			<point x="641" y="424" type="curve" smooth="yes"/>
			<point x="671" y="428" type="line"/>
			<point x="671" y="527" type="line"/>
			<point x="433" y="527" type="line"/>
			<point x="418" y="428" type="line"/>
			<point x="443" y="425" type="line" smooth="yes"/>
			<point x="463" y="423"/>
			<point x="460" y="410"/>
			<point x="443" y="396" type="curve" smooth="yes"/>
			<point x="392" y="353" type="line"/>
			<point x="347" y="392" type="line" smooth="yes"/>
			<point x="329" y="407"/>
			<point x="332" y="422"/>
			<point x="348" y="424" type="curve" smooth="yes"/>
			<point x="376" y="428" type="line"/>
			<point x="376" y="527" type="line"/>
			<point x="29" y="527" type="line"/>
			<point x="14" y="423" type="line"/>
			<point x="50" y="417" type="line" smooth="yes"/>
			<point x="76" y="413"/>
			<point x="95" y="392"/>
			<point x="124" y="362" type="curve" smooth="yes"/>
			<point x="232" y="251" type="line"/>
			<point x="102" y="128" type="line" smooth="yes"/>
			<point x="78" y="106"/>
			<point x="72" y="102"/>
			<point x="52" y="99" type="curve" smooth="yes"/>
			<point x="25" y="95" type="line"/>
		</contour>
	</outline>
</glyph>
<glyph name="z" format="2">
	<unicode hex="007A"/>
	<advance width="622"/>
	<outline>
		<contour>
			<point x="50" y="0" type="line"/>
			<point x="581" y="0" type="line"/>
			<point x="596" y="223" type="line"/>
			<point x="501" y="223" type="line"/>
			<point x="467" y="125"/>
			<point x="449" y="110"/>
			<point x="391" y="110" type="curve" smooth="yes"/>
			<point x="307" y="110" type="line"/>
			<point x="578" y="444" type="line"/>
			<point x="578" y="529" type="line"/>
			<point x="64" y="529" type="line"/>
			<point x="50" y="295" type="line"/>
			<point x="148" y="300" type="line"/>
			<point x="177" y="417"/>
			<point x="191" y="421"/>
			<point x="249" y="421" type="curve" smooth="yes"/>
			<point x="329" y="421" type="line"/>
			<point x="50" y="89" type="line"/>
		</contour>
	</outline>
	<anchor name="bottom" x="318" y="-31"/>
	<anchor name="top" x="319" y="561"/>
</glyph>
<glyph name="braceright" format="2">
	<unicode hex="007D"/>
	<advance width="403"/>
	<outline>
		<contour>
			<point x="163" y="-233" type="curve" smooth="yes"/>
			<point x="264" y="-233"/>
			<point x="319" y="-180"/>
			<point x="319" y="-96" type="curve" smooth="yes"/>
			<point x="319" y="-42"/>
			<point x="297" y="80"/>
			<point x="297" y="190" type="curve" smooth="yes"/>
			<point x="297" y="255"/>
			<point x="341" y="254"/>
			<point x="386" y="255" type="curve"/>
			<point x="386" y="351" type="line"/>
			<point x="341" y="352"/>
			<point x="294" y="351"/>
			<point x="294" y="416" type="curve" smooth="yes"/>
			<point x="294" y="496"/>
			<point x="320" y="634"/>
			<point x="320" y="688" type="curve" smooth="yes"/>
			<point x="320" y="772"/>
			<point x="258" y="825"/>
			<point x="157" y="825" type="curve" smooth="yes"/>
			<point x="114" y="825"/>
			<point x="68" y="820"/>
			<point x="30" y="808" type="curve"/>
			<point x="47" y="716" type="line"/>
			<point x="57" y="718"/>
			<point x="78" y="720"/>
			<point x="91" y="720" type="curve" smooth="yes"/>
			<point x="111" y="720"/>
			<point x="118" y="707"/>
			<point x="118" y="678" type="curve" smooth="yes"/>
			<point x="118" y="610"/>
			<point x="97" y="475"/>
			<point x="97" y="429" type="curve" smooth="yes"/>
			<point x="97" y="359"/>
			<point x="131" y="324"/>
			<point x="193" y="303" type="curve"/>
			<point x="131" y="282"/>
			<point x="96" y="247"/>
			<point x="96" y="177" type="curve" smooth="yes"/>
			<point x="96" y="131"/>
			<point x="117" y="0"/>
			<point x="117" y="-84" type="curve" smooth="yes"/>
			<point x="117" y="-115"/>
			<point x="111" y="-128"/>
			<point x="86" y="-128" type="curve" smooth="yes"/>
			<point x="78" y="-128"/>
			<point x="54" y="-126"/>
			<point x="44" y="-124" type="curve"/>
			<point x="30" y="-216" type="line"/>
			<point x="66" y="-227"/>
			<point x="120" y="-233"/>
		</contour>
	</outline>
</glyph>
<glyph name="asciitilde" format="2">
	<unicode hex="007E"/>
	<advance width="582"/>
	<outline>
		<contour>
			<point x="114" y="214" type="line"/>
			<point x="130" y="241"/>
			<point x="139" y="258"/>
			<point x="169" y="258" type="curve" smooth="yes"/>
			<point x="193" y="258"/>
			<point x="222" y="253"/>
			<point x="269" y="241" type="curve" smooth="yes"/>
			<point x="337" y="224"/>
			<point x="381" y="216"/>
			<point x="414" y="216" type="curve" smooth="yes"/>
			<point x="485" y="216"/>
			<point x="518" y="297"/>
			<point x="548" y="385" type="curve"/>
			<point x="469" y="411" type="line"/>
			<point x="453" y="384"/>
			<point x="444" y="367"/>
			<point x="414" y="367" type="curve" smooth="yes"/>
			<point x="390" y="367"/>
			<point x="355" y="373"/>
			<point x="301" y="387" type="curve" smooth="yes"/>
			<point x="248" y="401"/>
			<point x="200" y="409"/>
			<point x="169" y="409" type="curve" smooth="yes"/>
			<point x="98" y="409"/>
			<point x="65" y="328"/>
			<point x="35" y="243" type="curve"/>
		</contour>
	</outline>
</glyph>
<glyph name="cent" format="2">
	<unicode hex="00A2"/>
	<advance width="648"/>
	<outline>
		<contour>
			<point x="226" y="-37" type="line"/>
			<point x="276" y="-37" type="line"/>
			<point x="425" y="656" type="line"/>
			<point x="375" y="656" type="line"/>
		</contour>
		<contour>
			<point x="329" y="31" type="curve" smooth="yes"/>
			<point x="470" y="31"/>
			<point x="554" y="82"/>
			<point x="613" y="144" type="curve"/>
			<point x="553" y="231" type="line"/>
			<point x="491" y="195"/>
			<point x="445" y="186"/>
			<point x="395" y="186" type="curve" smooth="yes"/>
			<point x="305" y="186"/>
			<point x="262" y="234"/>
			<point x="262" y="337" type="curve" smooth="yes"/>
			<point x="262" y="437"/>
			<point x="301" y="480"/>
			<point x="362" y="480" type="curve" smooth="yes"/>
			<point x="389" y="480"/>
			<point x="409" y="476"/>
			<point x="430" y="467" type="curve"/>
			<point x="412" y="435"/>
			<point x="405" y="416"/>
			<point x="405" y="404" type="curve" smooth="yes"/>
			<point x="405" y="362"/>
			<point x="441" y="339"/>
			<point x="498" y="339" type="curve" smooth="yes"/>
			<point x="573" y="339"/>
			<point x="601" y="388"/>
			<point x="601" y="439" type="curve" smooth="yes"/>
			<point x="601" y="512"/>
			<point x="516" y="588"/>
			<point x="358" y="588" type="curve" smooth="yes"/>
			<point x="152" y="588"/>
			<point x="37" y="467"/>
			<point x="37" y="295" type="curve" smooth="yes"/>
			<point x="37" y="137"/>
			<point x="140" y="31"/>
		</contour>
	</outline>
	<anchor name="bottom" x="349" y="14"/>
	<anchor name="top" x="345" y="606"/>
</glyph>
<glyph name="dieresis" format="2">
	<unicode hex="00A8"/>
	<advance width="500"/>
	<outline>
		<contour>
			<point x="381" y="605" type="curve" smooth="yes"/>
			<point x="444" y="605"/>
			<point x="489" y="642"/>
			<point x="489" y="702" type="curve" smooth="yes"/>
			<point x="489" y="761"/>
			<point x="457" y="797"/>
			<point x="381" y="797" type="curve" smooth="yes"/>
			<point x="318" y="797"/>
			<point x="275" y="760"/>
			<point x="275" y="703" type="curve" smooth="yes"/>
			<point x="275" y="641"/>
			<point x="318" y="605"/>
		</contour>
		<contour>
			<point x="117" y="605" type="curve" smooth="yes"/>
			<point x="179" y="605"/>
			<point x="224" y="642"/>
			<point x="224" y="702" type="curve" smooth="yes"/>
			<point x="224" y="761"/>
			<point x="192" y="797"/>
			<point x="117" y="797" type="curve" smooth="yes"/>
			<point x="53" y="797"/>
			<point x="10" y="760"/>
			<point x="10" y="703" type="curve" smooth="yes"/>
			<point x="10" y="641"/>
			<point x="53" y="605"/>
		</contour>
	</outline>
	<anchor name="_top" x="250" y="550"/>
</glyph>
<glyph name="copyright" format="2">
	<unicode hex="00A9"/>
	<advance width="958"/>
	<outline>
		<contour>
			<point x="479" y="-22" type="curve" smooth="yes"/>
			<point x="741" y="-22"/>
			<point x="888" y="123"/>
			<point x="888" y="342" type="curve" smooth="yes"/>
			<point x="888" y="553"/>
			<point x="705" y="696"/>
			<point x="479" y="696" type="curve" smooth="yes"/>
			<point x="266" y="696"/>
			<point x="70" y="553"/>
			<point x="70" y="342" type="curve" smooth="yes"/>
			<point x="70" y="123"/>
			<point x="213" y="-22"/>
		</contour>
		<contour>
			<point x="479" y="59" type="curve" smooth="yes"/>
			<point x="252" y="59"/>
			<point x="177" y="207"/>
			<point x="177" y="333" type="curve" smooth="yes"/>
			<point x="177" y="500"/>
			<point x="293" y="615"/>
			<point x="479" y="615" type="curve" smooth="yes"/>
			<point x="665" y="615"/>
			<point x="781" y="500"/>
			<point x="781" y="333" type="curve" smooth="yes"/>
			<point x="781" y="207"/>
			<point x="707" y="59"/>
		</contour>
		<contour>
			<point x="480" y="122" type="curve" smooth="yes"/>
			<point x="569" y="122"/>
			<point x="622" y="147"/>
			<point x="676" y="192" type="curve"/>
			<point x="632" y="258" type="line"/>
			<point x="602" y="239"/>
			<point x="571" y="218"/>
			<point x="521" y="218" type="curve" smooth="yes"/>
			<point x="453" y="218"/>
			<point x="416" y="259"/>
			<point x="416" y="343" type="curve" smooth="yes"/>
			<point x="416" y="422"/>
			<point x="449" y="454"/>
			<point x="503" y="454" type="curve" smooth="yes"/>
			<point x="550" y="454"/>
			<point x="579" y="412"/>
			<point x="599" y="366" type="curve"/>
			<point x="671" y="378" type="line"/>
			<point x="643" y="536" type="line"/>
			<point x="586" y="536" type="line"/>
			<point x="580" y="505" type="line"/>
			<point x="553" y="525"/>
			<point x="513" y="537"/>
			<point x="467" y="537" type="curve" smooth="yes"/>
			<point x="349" y="537"/>
			<point x="257" y="458"/>
			<point x="257" y="323" type="curve" smooth="yes"/>
			<point x="257" y="192"/>
			<point x="346" y="122"/>
		</contour>
	</outline>
</glyph>
<glyph name="registered" format="2">
	<unicode hex="00AE"/>
	<advance width="548"/>
	<outline>
		<contour>
			<point x="274" y="375" type="curve" smooth="yes"/>
			<point x="405" y="375"/>
			<point x="501" y="462"/>
			<point x="501" y="586" type="curve" smooth="yes"/>
			<point x="501" y="710"/>
			<point x="413" y="791"/>
			<point x="275" y="791" type="curve" smooth="yes"/>
			<point x="149" y="791"/>
			<point x="47" y="710"/>
			<point x="47" y="579" type="curve" smooth="yes"/>
			<point x="47" y="463"/>
			<point x="125" y="375"/>
		</contour>
		<contour>
			<point x="369" y="466" type="curve" smooth="yes"/>
			<point x="341" y="466"/>
			<point x="317" y="477"/>
			<point x="305" y="507" type="curve" smooth="yes"/>
			<point x="288" y="549" type="line" smooth="yes"/>
			<point x="281" y="567"/>
			<point x="271" y="570"/>
			<point x="263" y="570" type="curve" smooth="yes"/>
			<point x="249" y="570" type="line"/>
			<point x="249" y="514" type="line" smooth="yes"/>
			<point x="249" y="506"/>
			<point x="251" y="500"/>
			<point x="262" y="499" type="curve" smooth="yes"/>
			<point x="278" y="497" type="line"/>
			<point x="278" y="469" type="line"/>
			<point x="149" y="469" type="line"/>
			<point x="149" y="497" type="line"/>
			<point x="172" y="499" type="line" smooth="yes"/>
			<point x="183" y="500"/>
			<point x="182" y="506"/>
			<point x="182" y="514" type="curve" smooth="yes"/>
			<point x="182" y="661" type="line" smooth="yes"/>
			<point x="182" y="670"/>
			<point x="178" y="674"/>
			<point x="169" y="675" type="curve" smooth="yes"/>
			<point x="149" y="677" type="line"/>
			<point x="149" y="704" type="line"/>
			<point x="276" y="704" type="line" smooth="yes"/>
			<point x="334" y="704"/>
			<point x="370" y="685"/>
			<point x="370" y="647" type="curve" smooth="yes"/>
			<point x="370" y="609"/>
			<point x="337" y="594"/>
			<point x="306" y="590" type="curve"/>
			<point x="306" y="586" type="line"/>
			<point x="331" y="586"/>
			<point x="352" y="574"/>
			<point x="360" y="557" type="curve" smooth="yes"/>
			<point x="374" y="528" type="line" smooth="yes"/>
			<point x="380" y="516"/>
			<point x="387" y="504"/>
			<point x="398" y="504" type="curve" smooth="yes"/>
			<point x="405" y="504"/>
			<point x="411" y="506"/>
			<point x="416" y="508" type="curve"/>
			<point x="424" y="485" type="line"/>
			<point x="411" y="473"/>
			<point x="391" y="466"/>
		</contour>
		<contour>
			<point x="249" y="601" type="line"/>
			<point x="261" y="601" type="line" smooth="yes"/>
			<point x="292" y="601"/>
			<point x="298" y="620"/>
			<point x="298" y="638" type="curve" smooth="yes"/>
			<point x="298" y="655"/>
			<point x="289" y="674"/>
			<point x="263" y="674" type="curve" smooth="yes"/>
			<point x="249" y="674" type="line"/>
		</contour>
	</outline>
</glyph>
<glyph name="plusminus" format="2">
	<unicode hex="00B1"/>
	<advance width="620"/>
	<outline>
		<contour>
			<point x="227" y="205" type="line"/>
			<point x="386" y="205" type="line"/>
			<point x="386" y="320" type="line"/>
			<point x="530" y="320" type="line"/>
			<point x="530" y="475" type="line"/>
			<point x="386" y="475" type="line"/>
			<point x="386" y="587" type="line"/>
			<point x="227" y="587" type="line"/>
			<point x="227" y="475" type="line"/>
			<point x="90" y="475" type="line"/>
			<point x="90" y="320" type="line"/>
			<point x="227" y="320" type="line"/>
		</contour>
		<contour>
			<point x="86" y="1" type="line"/>
			<point x="534" y="1" type="line"/>
			<point x="534" y="156" type="line"/>
			<point x="86" y="156" type="line"/>
		</contour>
	</outline>
</glyph>
<glyph name="twosuperior" format="2">
	<unicode hex="00B2"/>
	<advance width="479"/>
	<outline>
		<contour>
			<point x="49" y="374" type="line"/>
			<point x="431" y="374" type="line"/>
			<point x="445" y="544" type="line"/>
			<point x="356" y="544" type="line"/>
			<point x="336" y="500"/>
			<point x="330" y="487"/>
			<point x="266" y="487" type="curve" smooth="yes"/>
			<point x="184" y="487" type="line"/>
			<point x="375" y="596"/>
			<point x="424" y="636"/>
			<point x="424" y="716" type="curve" smooth="yes"/>
			<point x="424" y="805"/>
			<point x="340" y="839"/>
			<point x="230" y="839" type="curve" smooth="yes"/>
			<point x="110" y="839"/>
			<point x="23" y="789"/>
			<point x="23" y="707" type="curve" smooth="yes"/>
			<point x="23" y="664"/>
			<point x="50" y="647"/>
			<point x="93" y="647" type="curve" smooth="yes"/>
			<point x="132" y="647"/>
			<point x="160" y="671"/>
			<point x="160" y="698" type="curve" smooth="yes"/>
			<point x="160" y="717"/>
			<point x="150" y="731"/>
			<point x="142" y="747" type="curve"/>
			<point x="157" y="752"/>
			<point x="177" y="755"/>
			<point x="197" y="755" type="curve" smooth="yes"/>
			<point x="232" y="755"/>
			<point x="254" y="736"/>
			<point x="254" y="703" type="curve" smooth="yes"/>
			<point x="254" y="652"/>
			<point x="221" y="625"/>
			<point x="36" y="478" type="curve"/>
		</contour>
	</outline>
</glyph>
<glyph name="acute" format="2">
	<unicode hex="00B4"/>
	<advance width="500"/>
	<outline>
		<contour>
			<point x="208" y="585" type="line"/>
			<point x="372" y="695" type="line" smooth="yes"/>
			<point x="401" y="715"/>
			<point x="412" y="739"/>
			<point x="412" y="761" type="curve" smooth="yes"/>
			<point x="412" y="788"/>
			<point x="393" y="845"/>
			<point x="336" y="845" type="curve" smooth="yes"/>
			<point x="312" y="845"/>
			<point x="295" y="840"/>
			<point x="276" y="811" type="curve" smooth="yes"/>
			<point x="160" y="633" type="line"/>
		</contour>
	</outline>
	<anchor name="_top" x="250" y="550"/>
</glyph>
<glyph name="paragraph" format="2">
	<unicode hex="00B6"/>
	<advance width="737"/>
	<outline>
		<contour>
			<point x="318" y="-144" type="line"/>
			<point x="639" y="-144" type="line"/>
			<point x="639" y="549" type="line" smooth="yes"/>
			<point x="639" y="585"/>
			<point x="646" y="598"/>
			<point x="673" y="600" type="curve" smooth="yes"/>
			<point x="706" y="602" type="line"/>
			<point x="706" y="700" type="line"/>
			<point x="446" y="700" type="line"/>
			<point x="446" y="9" type="line" smooth="yes"/>
			<point x="446" y="-32"/>
			<point x="438" y="-41"/>
			<point x="412" y="-42" type="curve" smooth="yes"/>
			<point x="318" y="-46" type="line"/>
		</contour>
		<contour>
			<point x="333" y="241" type="curve" smooth="yes"/>
			<point x="380" y="241" type="line"/>
			<point x="380" y="700" type="line"/>
			<point x="337" y="700" type="line" smooth="yes"/>
			<point x="137" y="700"/>
			<point x="42" y="622"/>
			<point x="42" y="463" type="curve" smooth="yes"/>
			<point x="42" y="302"/>
			<point x="158" y="241"/>
		</contour>
	</outline>
</glyph>
<glyph name="onesuperior" format="2">
	<unicode hex="00B9"/>
	<advance width="387"/>
	<outline>
		<contour>
			<point x="40" y="374" type="line"/>
			<point x="374" y="374" type="line"/>
			<point x="374" y="455" type="line"/>
			<point x="325" y="461" type="line" smooth="yes"/>
			<point x="303" y="464"/>
			<point x="298" y="472"/>
			<point x="298" y="491" type="curve" smooth="yes"/>
			<point x="298" y="817" type="line"/>
			<point x="276" y="834" type="line"/>
			<point x="33" y="803" type="line"/>
			<point x="26" y="719" type="line"/>
			<point x="85" y="716" type="line" smooth="yes"/>
			<point x="118" y="714"/>
			<point x="118" y="702"/>
			<point x="118" y="677" type="curve" smooth="yes"/>
			<point x="118" y="493" type="line" smooth="yes"/>
			<point x="118" y="472"/>
			<point x="112" y="463"/>
			<point x="92" y="461" type="curve" smooth="yes"/>
			<point x="40" y="455" type="line"/>
		</contour>
	</outline>
</glyph>
<glyph name="AE" format="2">
	<unicode hex="00C6"/>
	<advance width="1166"/>
	<outline>
		<contour>
			<point x="7" y="0" type="line"/>
			<point x="318" y="0" type="line"/>
			<point x="321" y="99" type="line"/>
			<point x="276" y="102" type="line" smooth="yes"/>
			<point x="237" y="104"/>
			<point x="231" y="126"/>
			<point x="256" y="171" type="curve" smooth="yes"/>
			<point x="320" y="287" type="line"/>
			<point x="528" y="287" type="line"/>
			<point x="528" y="154" type="line" smooth="yes"/>
			<point x="528" y="114"/>
			<point x="522" y="104"/>
			<point x="494" y="102" type="curve" smooth="yes"/>
			<point x="458" y="99" type="line"/>
			<point x="458" y="0" type="line"/>
			<point x="1104" y="0" type="line"/>
			<point x="1132" y="243" type="line"/>
			<point x="1003" y="243" type="line"/>
			<point x="981" y="140"/>
			<point x="957" y="116"/>
			<point x="879" y="116" type="curve" smooth="yes"/>
			<point x="760" y="116" type="line"/>
			<point x="760" y="287" type="line"/>
			<point x="800" y="287" type="line" smooth="yes"/>
			<point x="839" y="287"/>
			<point x="851" y="272"/>
			<point x="856" y="217" type="curve"/>
			<point x="950" y="230" type="line"/>
			<point x="950" y="470" type="line"/>
			<point x="858" y="464" type="line"/>
			<point x="848" y="413"/>
			<point x="835" y="398"/>
			<point x="802" y="398" type="curve" smooth="yes"/>
			<point x="760" y="398" type="line"/>
			<point x="760" y="586" type="line"/>
			<point x="870" y="586" type="line" smooth="yes"/>
			<point x="944" y="586"/>
			<point x="967" y="566"/>
			<point x="988" y="479" type="curve"/>
			<point x="1117" y="493" type="line"/>
			<point x="1082" y="700" type="line"/>
			<point x="240" y="700" type="line"/>
			<point x="240" y="603" type="line"/>
			<point x="325" y="598" type="line"/>
			<point x="95" y="156" type="line" smooth="yes"/>
			<point x="76" y="120"/>
			<point x="65" y="110"/>
			<point x="41" y="106" type="curve" smooth="yes"/>
			<point x="7" y="101" type="line"/>
		</contour>
		<contour>
			<point x="370" y="398" type="line"/>
			<point x="460" y="586" type="line"/>
			<point x="528" y="586" type="line"/>
			<point x="528" y="398" type="line"/>
		</contour>
	</outline>
	<anchor name="bottom" x="638" y="-30"/>
	<anchor name="top" x="700" y="730"/>
	<guideline x="608" y="296" angle="0"/>
</glyph>
<glyph name="Thorn" format="2">
	<unicode hex="00DE"/>
	<advance width="752"/>
	<outline>
		<contour>
			<point x="48" y="0" type="line"/>
			<point x="474" y="0" type="line"/>
			<point x="474" y="99" type="line"/>
			<point x="387" y="103" type="line" smooth="yes"/>
			<point x="359" y="104"/>
			<point x="352" y="114"/>
			<point x="352" y="149" type="curve" smooth="yes"/>
			<point x="352" y="166" type="line"/>
			<point x="367" y="163"/>
			<point x="420" y="161"/>
			<point x="455" y="161" type="curve" smooth="yes"/>
			<point x="551" y="161"/>
			<point x="744" y="186"/>
			<point x="744" y="354" type="curve" smooth="yes"/>
			<point x="744" y="535"/>
			<point x="559" y="538"/>
			<point x="431" y="538" type="curve" smooth="yes"/>
			<point x="352" y="538" type="line"/>
			<point x="352" y="550" type="line" smooth="yes"/>
			<point x="352" y="587"/>
			<point x="360" y="597"/>
			<point x="386" y="598" type="curve" smooth="yes"/>
			<point x="474" y="601" type="line"/>
			<point x="475" y="700" type="line"/>
			<point x="48" y="700" type="line"/>
			<point x="48" y="601" type="line"/>
			<point x="82" y="598" type="line" smooth="yes"/>
			<point x="117" y="595"/>
			<point x="118" y="578"/>
			<point x="118" y="551" type="curve" smooth="yes"/>
			<point x="118" y="152" type="line" smooth="yes"/>
			<point x="118" y="108"/>
			<point x="107" y="104"/>
			<point x="84" y="102" type="curve" smooth="yes"/>
			<point x="48" y="99" type="line"/>
		</contour>
		<contour>
			<point x="352" y="280" type="curve"/>
			<point x="352" y="434" type="line"/>
			<point x="403" y="434" type="line" smooth="yes"/>
			<point x="471" y="434"/>
			<point x="509" y="412"/>
			<point x="509" y="362" type="curve" smooth="yes"/>
			<point x="509" y="309"/>
			<point x="472" y="278"/>
			<point x="402" y="278" type="curve" smooth="yes"/>
			<point x="385" y="278"/>
			<point x="364" y="279"/>
		</contour>
	</outline>
</glyph>
<glyph name="eth" format="2">
	<unicode hex="00F0"/>
	<advance width="687"/>
	<outline>
		<contour>
			<point x="327" y="-14" type="curve" smooth="yes"/>
			<point x="560" y="-14"/>
			<point x="651" y="124"/>
			<point x="651" y="351" type="curve" smooth="yes"/>
			<point x="651" y="490"/>
			<point x="597" y="614"/>
			<point x="489" y="695" type="curve"/>
			<point x="597" y="759" type="line"/>
			<point x="538" y="863" type="line"/>
			<point x="380" y="756" type="line"/>
			<point x="310" y="781"/>
			<point x="225" y="795"/>
			<point x="131" y="795" type="curve"/>
			<point x="114" y="695" type="line"/>
			<point x="163" y="688"/>
			<point x="208" y="677"/>
			<point x="247" y="666" type="curve"/>
			<point x="166" y="621" type="line"/>
			<point x="231" y="522" type="line"/>
			<point x="353" y="603" type="line"/>
			<point x="388" y="573"/>
			<point x="426" y="506"/>
			<point x="439" y="446" type="curve"/>
			<point x="433" y="445" type="line"/>
			<point x="402" y="477"/>
			<point x="359" y="496"/>
			<point x="300" y="496" type="curve" smooth="yes"/>
			<point x="174" y="496"/>
			<point x="40" y="424"/>
			<point x="40" y="238" type="curve" smooth="yes"/>
			<point x="40" y="76"/>
			<point x="151" y="-14"/>
		</contour>
		<contour>
			<point x="351" y="94" type="curve" smooth="yes"/>
			<point x="288" y="94"/>
			<point x="268" y="154"/>
			<point x="268" y="244" type="curve" smooth="yes"/>
			<point x="268" y="321"/>
			<point x="290" y="389"/>
			<point x="351" y="389" type="curve" smooth="yes"/>
			<point x="376" y="389"/>
			<point x="400" y="379"/>
			<point x="410" y="362" type="curve" smooth="yes"/>
			<point x="422" y="341"/>
			<point x="428" y="310"/>
			<point x="428" y="244" type="curve" smooth="yes"/>
			<point x="428" y="129"/>
			<point x="404" y="94"/>
		</contour>
	</outline>
</glyph>
<glyph name="divide" format="2">
	<unicode hex="00F7"/>
	<advance width="620"/>
	<outline>
		<contour>
			<point x="76" y="229" type="line"/>
			<point x="544" y="229" type="line"/>
			<point x="544" y="384" type="line"/>
			<point x="76" y="384" type="line"/>
		</contour>
		<contour>
			<point x="310" y="9" type="curve" smooth="yes"/>
			<point x="363" y="9"/>
			<point x="407" y="49"/>
			<point x="407" y="101" type="curve" smooth="yes"/>
			<point x="407" y="153"/>
			<point x="363" y="191"/>
			<point x="310" y="191" type="curve" smooth="yes"/>
			<point x="258" y="191"/>
			<point x="214" y="151"/>
			<point x="214" y="99" type="curve" smooth="yes"/>
			<point x="214" y="48"/>
			<point x="258" y="9"/>
		</contour>
		<contour>
			<point x="310" y="422" type="curve" smooth="yes"/>
			<point x="363" y="422"/>
			<point x="407" y="462"/>
			<point x="407" y="514" type="curve" smooth="yes"/>
			<point x="407" y="566"/>
			<point x="363" y="604"/>
			<point x="310" y="604" type="curve" smooth="yes"/>
			<point x="258" y="604"/>
			<point x="214" y="564"/>
			<point x="214" y="512" type="curve" smooth="yes"/>
			<point x="214" y="461"/>
			<point x="258" y="422"/>
		</contour>
	</outline>
</glyph>
<glyph name="thorn" format="2">
	<unicode hex="00FE"/>
	<advance width="755"/>
	<outline>
		<contour>
			<point x="27" y="-216" type="line"/>
			<point x="424" y="-216" type="line"/>
			<point x="424" y="-120" type="line"/>
			<point x="355" y="-115" type="line" smooth="yes"/>
			<point x="323" y="-113"/>
			<point x="318" y="-103"/>
			<point x="318" y="-69" type="curve" smooth="yes"/>
			<point x="318" y="12" type="line"/>
			<point x="353" y="-7"/>
			<point x="399" y="-14"/>
			<point x="444" y="-14" type="curve" smooth="yes"/>
			<point x="635" y="-14"/>
			<point x="719" y="107"/>
			<point x="719" y="285" type="curve" smooth="yes"/>
			<point x="719" y="457"/>
			<point x="635" y="543"/>
			<point x="496" y="543" type="curve" smooth="yes"/>
			<point x="409" y="543"/>
			<point x="357" y="502"/>
			<point x="322" y="455" type="curve"/>
			<point x="318" y="455" type="line"/>
			<point x="318" y="757" type="line"/>
			<point x="298" y="768" type="line"/>
			<point x="27" y="754" type="line"/>
			<point x="20" y="648" type="line"/>
			<point x="53" y="646" type="line" smooth="yes"/>
			<point x="88" y="644"/>
			<point x="93" y="628"/>
			<point x="93" y="585" type="curve" smooth="yes"/>
			<point x="93" y="-67" type="line" smooth="yes"/>
			<point x="93" y="-105"/>
			<point x="85" y="-115"/>
			<point x="63" y="-117" type="curve" smooth="yes"/>
			<point x="27" y="-120" type="line"/>
		</contour>
		<contour>
			<point x="397" y="113" type="curve" smooth="yes"/>
			<point x="369" y="113"/>
			<point x="335" y="123"/>
			<point x="318" y="133" type="curve"/>
			<point x="318" y="308" type="line" smooth="yes"/>
			<point x="318" y="367"/>
			<point x="344" y="411"/>
			<point x="400" y="411" type="curve" smooth="yes"/>
			<point x="456" y="411"/>
			<point x="485" y="369"/>
			<point x="485" y="274" type="curve" smooth="yes"/>
			<point x="485" y="152"/>
			<point x="460" y="113"/>
		</contour>
	</outline>
</glyph>
<glyph name="Aogonek" format="2">
	<unicode hex="0104"/>
	<advance width="851"/>
	<outline>
		<contour>
			<point x="632" y="-255" type="curve" smooth="yes"/>
			<point x="720" y="-255"/>
			<point x="771" y="-224"/>
			<point x="807" y="-195" type="curve"/>
			<point x="773" y="-130" type="line"/>
			<point x="743" y="-145"/>
			<point x="718" y="-150"/>
			<point x="693" y="-150" type="curve" smooth="yes"/>
			<point x="671" y="-150"/>
			<point x="649" y="-142"/>
			<point x="649" y="-115" type="curve" smooth="yes"/>
			<point x="649" y="-88"/>
			<point x="670" y="-59"/>
			<point x="734" y="0" type="curve"/>
			<point x="844" y="0" type="line"/>
			<point x="844" y="100" type="line"/>
			<point x="810" y="102" type="line" smooth="yes"/>
			<point x="784" y="104"/>
			<point x="772" y="115"/>
			<point x="756" y="157" type="curve" smooth="yes"/>
			<point x="545" y="700" type="line"/>
			<point x="317" y="700" type="line"/>
			<point x="100" y="163" type="line" smooth="yes"/>
			<point x="88" y="133"/>
			<point x="74" y="111"/>
			<point x="46" y="107" type="curve" smooth="yes"/>
			<point x="7" y="102" type="line"/>
			<point x="7" y="0" type="line"/>
			<point x="311" y="0" type="line"/>
			<point x="311" y="99" type="line"/>
			<point x="273" y="102" type="line" smooth="yes"/>
			<point x="235" y="105"/>
			<point x="231" y="126"/>
			<point x="247" y="161" type="curve" smooth="yes"/>
			<point x="260" y="190" type="line"/>
			<point x="495" y="190" type="line"/>
			<point x="509" y="158" type="line" smooth="yes"/>
			<point x="520" y="132"/>
			<point x="516" y="107"/>
			<point x="490" y="105" type="curve" smooth="yes"/>
			<point x="448" y="101" type="line"/>
			<point x="448" y="0" type="line"/>
			<point x="629" y="0" type="line"/>
			<point x="547" y="-41"/>
			<point x="485" y="-87"/>
			<point x="485" y="-154" type="curve" smooth="yes"/>
			<point x="485" y="-196"/>
			<point x="519" y="-255"/>
		</contour>
		<contour>
			<point x="297" y="299" type="line"/>
			<point x="383" y="522" type="line"/>
			<point x="387" y="522" type="line"/>
			<point x="464" y="299" type="line"/>
		</contour>
	</outline>
	<anchor name="bottom" x="403" y="-30"/>
	<anchor name="top" x="429" y="730"/>
</glyph>
<glyph name="aogonek" format="2">
	<unicode hex="0105"/>
	<advance width="674"/>
	<outline>
		<contour>
			<point x="498" y="-255" type="curve" smooth="yes"/>
			<point x="560" y="-255"/>
			<point x="614" y="-235"/>
			<point x="659" y="-195" type="curve"/>
			<point x="625" y="-130" type="line"/>
			<point x="603" y="-142"/>
			<point x="579" y="-150"/>
			<point x="561" y="-150" type="curve" smooth="yes"/>
			<point x="539" y="-150"/>
			<point x="528" y="-139"/>
			<point x="528" y="-115" type="curve" smooth="yes"/>
			<point x="528" y="-65"/>
			<point x="575" y="-17"/>
			<point x="676" y="35" type="curve"/>
			<point x="659" y="114" type="line"/>
			<point x="638" y="108"/>
			<point x="630" y="107"/>
			<point x="620" y="107" type="curve" smooth="yes"/>
			<point x="594" y="107"/>
			<point x="584" y="120"/>
			<point x="584" y="153" type="curve" smooth="yes"/>
			<point x="584" y="337" type="line" smooth="yes"/>
			<point x="584" y="476"/>
			<point x="502" y="541"/>
			<point x="325" y="541" type="curve" smooth="yes"/>
			<point x="163" y="541"/>
			<point x="53" y="478"/>
			<point x="53" y="385" type="curve" smooth="yes"/>
			<point x="53" y="342"/>
			<point x="84" y="316"/>
			<point x="137" y="316" type="curve" smooth="yes"/>
			<point x="197" y="316"/>
			<point x="235" y="339"/>
			<point x="235" y="375" type="curve" smooth="yes"/>
			<point x="235" y="390"/>
			<point x="227" y="411"/>
			<point x="208" y="440" type="curve"/>
			<point x="228" y="451"/>
			<point x="255" y="457"/>
			<point x="286" y="457" type="curve" smooth="yes"/>
			<point x="341" y="457"/>
			<point x="360" y="431"/>
			<point x="360" y="358" type="curve" smooth="yes"/>
			<point x="360" y="293" type="line"/>
			<point x="122" y="286"/>
			<point x="41" y="244"/>
			<point x="41" y="126" type="curve" smooth="yes"/>
			<point x="41" y="39"/>
			<point x="108" y="-14"/>
			<point x="219" y="-14" type="curve" smooth="yes"/>
			<point x="291" y="-14"/>
			<point x="355" y="16"/>
			<point x="386" y="65" type="curve"/>
			<point x="398" y="25"/>
			<point x="437" y="-4"/>
			<point x="488" y="-12" type="curve"/>
			<point x="406" y="-55"/>
			<point x="364" y="-103"/>
			<point x="364" y="-154" type="curve" smooth="yes"/>
			<point x="364" y="-216"/>
			<point x="415" y="-255"/>
		</contour>
		<contour>
			<point x="304" y="94" type="curve" smooth="yes"/>
			<point x="274" y="94"/>
			<point x="258" y="113"/>
			<point x="258" y="148" type="curve" smooth="yes"/>
			<point x="258" y="191"/>
			<point x="289" y="210"/>
			<point x="360" y="210" type="curve"/>
			<point x="360" y="145" type="line" smooth="yes"/>
			<point x="360" y="112"/>
			<point x="341" y="94"/>
		</contour>
	</outline>
	<anchor name="bottom" x="341" y="-31"/>
	<anchor name="top" x="328" y="561"/>
</glyph>
<glyph name="Eogonek" format="2">
	<unicode hex="0118"/>
	<advance width="759"/>
	<outline>
		<contour>
			<point x="547" y="-255" type="curve" smooth="yes"/>
			<point x="621" y="-255"/>
			<point x="672" y="-227"/>
			<point x="708" y="-195" type="curve"/>
			<point x="674" y="-130" type="line"/>
			<point x="644" y="-146"/>
			<point x="620" y="-150"/>
			<point x="608" y="-150" type="curve" smooth="yes"/>
			<point x="589" y="-150"/>
			<point x="577" y="-142"/>
			<point x="577" y="-115" type="curve" smooth="yes"/>
			<point x="577" y="-86"/>
			<point x="618" y="-40"/>
			<point x="696" y="0" type="curve"/>
			<point x="725" y="243" type="line"/>
			<point x="596" y="243" type="line"/>
			<point x="576" y="151"/>
			<point x="558" y="116"/>
			<point x="472" y="116" type="curve" smooth="yes"/>
			<point x="353" y="116" type="line"/>
			<point x="353" y="296" type="line"/>
			<point x="393" y="296" type="line" smooth="yes"/>
			<point x="432" y="296"/>
			<point x="444" y="280"/>
			<point x="449" y="226" type="curve"/>
			<point x="543" y="239" type="line"/>
			<point x="543" y="479" type="line"/>
			<point x="451" y="473" type="line"/>
			<point x="440" y="417"/>
			<point x="425" y="407"/>
			<point x="395" y="407" type="curve" smooth="yes"/>
			<point x="353" y="407" type="line"/>
			<point x="353" y="586" type="line"/>
			<point x="463" y="586" type="line" smooth="yes"/>
			<point x="544" y="586"/>
			<point x="562" y="558"/>
			<point x="581" y="479" type="curve"/>
			<point x="710" y="493" type="line"/>
			<point x="675" y="700" type="line"/>
			<point x="48" y="700" type="line"/>
			<point x="48" y="601" type="line"/>
			<point x="82" y="600" type="line" smooth="yes"/>
			<point x="110" y="599"/>
			<point x="118" y="588"/>
			<point x="118" y="552" type="curve" smooth="yes"/>
			<point x="118" y="154" type="line" smooth="yes"/>
			<point x="118" y="109"/>
			<point x="108" y="104"/>
			<point x="84" y="102" type="curve" smooth="yes"/>
			<point x="48" y="99" type="line"/>
			<point x="48" y="0" type="line"/>
			<point x="574" y="0" type="line"/>
			<point x="475" y="-41"/>
			<point x="413" y="-87"/>
			<point x="413" y="-154" type="curve" smooth="yes"/>
			<point x="413" y="-196"/>
			<point x="437" y="-255"/>
		</contour>
	</outline>
	<anchor name="bottom" x="393" y="-30"/>
	<anchor name="top" x="382" y="730"/>
</glyph>
<glyph name="kgreenlandic" format="2">
	<unicode hex="0138"/>
	<advance width="806"/>
	<outline>
		<contour>
			<point x="642" y="-14" type="curve" smooth="yes"/>
			<point x="704" y="-14"/>
			<point x="766" y="8"/>
			<point x="801" y="33" type="curve"/>
			<point x="780" y="116" type="line"/>
			<point x="764" y="111"/>
			<point x="751" y="109"/>
			<point x="742" y="109" type="curve" smooth="yes"/>
			<point x="714" y="109"/>
			<point x="696" y="125"/>
			<point x="660" y="173" type="curve" smooth="yes"/>
			<point x="553" y="313" type="line"/>
			<point x="644" y="389" type="line" smooth="yes"/>
			<point x="672" y="413"/>
			<point x="682" y="420"/>
			<point x="709" y="423" type="curve" smooth="yes"/>
			<point x="756" y="428" type="line"/>
			<point x="756" y="529" type="line"/>
			<point x="461" y="529" type="line"/>
			<point x="444" y="435" type="line"/>
			<point x="485" y="431" type="line" smooth="yes"/>
			<point x="511" y="428"/>
			<point x="512" y="407"/>
			<point x="489" y="388" type="curve" smooth="yes"/>
			<point x="354" y="277" type="line"/>
			<point x="354" y="253" type="line"/>
			<point x="475" y="76" type="line" smooth="yes"/>
			<point x="522" y="8"/>
			<point x="576" y="-14"/>
		</contour>
		<contour>
			<point x="44" y="0" type="line"/>
			<point x="401" y="0" type="line"/>
			<point x="401" y="96" type="line"/>
			<point x="368" y="98" type="line" smooth="yes"/>
			<point x="343" y="100"/>
			<point x="340" y="111"/>
			<point x="340" y="146" type="curve" smooth="yes"/>
			<point x="340" y="524" type="line"/>
			<point x="321" y="536" type="line"/>
			<point x="48" y="521" type="line"/>
			<point x="40" y="414" type="line"/>
			<point x="77" y="412" type="line" smooth="yes"/>
			<point x="115" y="410"/>
			<point x="115" y="387"/>
			<point x="115" y="350" type="curve" smooth="yes"/>
			<point x="115" y="147" type="line" smooth="yes"/>
			<point x="115" y="111"/>
			<point x="110" y="99"/>
			<point x="86" y="98" type="curve" smooth="yes"/>
			<point x="44" y="96" type="line"/>
		</contour>
	</outline>
</glyph>
<glyph name="Lslash" format="2">
	<unicode hex="0141"/>
	<advance width="718"/>
	<outline>
		<contour>
			<point x="560" y="270" type="line"/>
			<point x="523" y="146"/>
			<point x="502" y="122"/>
			<point x="428" y="122" type="curve" smooth="yes"/>
			<point x="353" y="122" type="line"/>
			<point x="353" y="319" type="line"/>
			<point x="486" y="376" type="line"/>
			<point x="486" y="512" type="line"/>
			<point x="353" y="453" type="line"/>
			<point x="353" y="552" type="line" smooth="yes"/>
			<point x="353" y="587"/>
			<point x="360" y="597"/>
			<point x="390" y="599" type="curve" smooth="yes"/>
			<point x="442" y="602" type="line"/>
			<point x="442" y="700" type="line"/>
			<point x="48" y="700" type="line"/>
			<point x="48" y="601" type="line"/>
			<point x="83" y="600" type="line" smooth="yes"/>
			<point x="113" y="599"/>
			<point x="118" y="583"/>
			<point x="118" y="552" type="curve" smooth="yes"/>
			<point x="118" y="385" type="line"/>
			<point x="43" y="354" type="line"/>
			<point x="43" y="218" type="line"/>
			<point x="118" y="251" type="line"/>
			<point x="118" y="153" type="line" smooth="yes"/>
			<point x="118" y="113"/>
			<point x="111" y="104"/>
			<point x="85" y="102" type="curve" smooth="yes"/>
			<point x="48" y="99" type="line"/>
			<point x="48" y="0" type="line"/>
			<point x="662" y="0" type="line"/>
			<point x="690" y="270" type="line"/>
		</contour>
	</outline>
	<anchor name="bottom" x="359" y="-30"/>
	<anchor name="top" x="242" y="730"/>
</glyph>
<glyph name="eng" format="2">
	<unicode hex="014B"/>
	<advance width="777"/>
	<outline>
		<contour>
			<point x="519" y="542" type="curve" smooth="yes"/>
			<point x="420" y="542"/>
			<point x="357" y="500"/>
			<point x="322" y="431" type="curve"/>
			<point x="318" y="431" type="line"/>
			<point x="309" y="524" type="line"/>
			<point x="289" y="536" type="line"/>
			<point x="49" y="521" type="line"/>
			<point x="39" y="417" type="line"/>
			<point x="76" y="412" type="line" smooth="yes"/>
			<point x="110" y="407"/>
			<point x="114" y="394"/>
			<point x="114" y="355" type="curve" smooth="yes"/>
			<point x="114" y="150" type="line" smooth="yes"/>
			<point x="114" y="115"/>
			<point x="108" y="106"/>
			<point x="85" y="102" type="curve" smooth="yes"/>
			<point x="47" y="95" type="line"/>
			<point x="47" y="0" type="line"/>
			<point x="387" y="0" type="line"/>
			<point x="387" y="94" type="line"/>
			<point x="364" y="98" type="line" smooth="yes"/>
			<point x="341" y="102"/>
			<point x="338" y="113"/>
			<point x="338" y="142" type="curve" smooth="yes"/>
			<point x="338" y="293" type="line" smooth="yes"/>
			<point x="338" y="368"/>
			<point x="367" y="394"/>
			<point x="420" y="394" type="curve" smooth="yes"/>
			<point x="468" y="394"/>
			<point x="481" y="365"/>
			<point x="481" y="312" type="curve" smooth="yes"/>
			<point x="481" y="54" type="line" smooth="yes"/>
			<point x="481" y="-32"/>
			<point x="460" y="-85"/>
			<point x="397" y="-144" type="curve"/>
			<point x="470" y="-235" type="line"/>
			<point x="604" y="-167"/>
			<point x="705" y="-81"/>
			<point x="705" y="97" type="curve" smooth="yes"/>
			<point x="705" y="367" type="line" smooth="yes"/>
			<point x="705" y="462"/>
			<point x="653" y="542"/>
		</contour>
	</outline>
	<anchor name="bottom" x="219" y="-31"/>
	<anchor name="top" x="416" y="561"/>
</glyph>
<glyph name="OE" format="2">
	<unicode hex="0152"/>
	<advance width="1222"/>
	<outline>
		<contour>
			<point x="396" y="-14" type="curve" smooth="yes"/>
			<point x="495" y="-14"/>
			<point x="573" y="18"/>
			<point x="620" y="67" type="curve"/>
			<point x="620" y="0" type="line"/>
			<point x="1159" y="0" type="line"/>
			<point x="1188" y="243" type="line"/>
			<point x="1059" y="243" type="line"/>
			<point x="1032" y="138"/>
			<point x="1007" y="116"/>
			<point x="931" y="116" type="curve" smooth="yes"/>
			<point x="816" y="116" type="line"/>
			<point x="816" y="296" type="line"/>
			<point x="852" y="296" type="line" smooth="yes"/>
			<point x="892" y="296"/>
			<point x="903" y="280"/>
			<point x="912" y="226" type="curve"/>
			<point x="1006" y="239" type="line"/>
			<point x="1006" y="479" type="line"/>
			<point x="914" y="473" type="line"/>
			<point x="901" y="423"/>
			<point x="888" y="407"/>
			<point x="854" y="407" type="curve" smooth="yes"/>
			<point x="816" y="407" type="line"/>
			<point x="816" y="586" type="line"/>
			<point x="923" y="586" type="line" smooth="yes"/>
			<point x="996" y="586"/>
			<point x="1019" y="567"/>
			<point x="1044" y="479" type="curve"/>
			<point x="1173" y="493" type="line"/>
			<point x="1138" y="700" type="line"/>
			<point x="620" y="700" type="line"/>
			<point x="620" y="638" type="line"/>
			<point x="570" y="692"/>
			<point x="487" y="714"/>
			<point x="408" y="714" type="curve" smooth="yes"/>
			<point x="207" y="714"/>
			<point x="48" y="586"/>
			<point x="48" y="340" type="curve" smooth="yes"/>
			<point x="48" y="139"/>
			<point x="177" y="-14"/>
		</contour>
		<contour>
			<point x="446" y="120" type="curve" smooth="yes"/>
			<point x="343" y="120"/>
			<point x="293" y="193"/>
			<point x="293" y="357" type="curve" smooth="yes"/>
			<point x="293" y="534"/>
			<point x="346" y="581"/>
			<point x="438" y="581" type="curve" smooth="yes"/>
			<point x="536" y="581"/>
			<point x="587" y="513"/>
			<point x="587" y="350" type="curve" smooth="yes"/>
			<point x="587" y="168"/>
			<point x="536" y="120"/>
		</contour>
	</outline>
</glyph>
<glyph name="scedilla" format="2">
	<unicode hex="015F"/>
	<advance width="597"/>
	<outline>
		<contour>
			<point x="334" y="-259" type="curve" smooth="yes"/>
			<point x="402" y="-259"/>
			<point x="471" y="-226"/>
			<point x="471" y="-141" type="curve" smooth="yes"/>
			<point x="471" y="-79"/>
			<point x="419" y="-32"/>
			<point x="333" y="-40" type="curve"/>
			<point x="343" y="-14" type="line"/>
			<point x="475" y="-8"/>
			<point x="562" y="62"/>
			<point x="562" y="183" type="curve" smooth="yes"/>
			<point x="562" y="309"/>
			<point x="460" y="336"/>
			<point x="345" y="359" type="curve" smooth="yes"/>
			<point x="262" y="376"/>
			<point x="229" y="385"/>
			<point x="229" y="414" type="curve" smooth="yes"/>
			<point x="229" y="440"/>
			<point x="253" y="452"/>
			<point x="298" y="452" type="curve" smooth="yes"/>
			<point x="351" y="452"/>
			<point x="404" y="429"/>
			<point x="434" y="368" type="curve"/>
			<point x="540" y="363" type="line"/>
			<point x="530" y="542" type="line"/>
			<point x="438" y="542" type="line"/>
			<point x="429" y="509" type="line"/>
			<point x="397" y="526"/>
			<point x="346" y="542"/>
			<point x="282" y="542" type="curve" smooth="yes"/>
			<point x="149" y="542"/>
			<point x="53" y="480"/>
			<point x="53" y="361" type="curve" smooth="yes"/>
			<point x="53" y="223"/>
			<point x="179" y="197"/>
			<point x="264" y="182" type="curve" smooth="yes"/>
			<point x="348" y="167"/>
			<point x="382" y="159"/>
			<point x="382" y="130" type="curve" smooth="yes"/>
			<point x="382" y="104"/>
			<point x="361" y="87"/>
			<point x="309" y="87" type="curve" smooth="yes"/>
			<point x="246" y="87"/>
			<point x="193" y="117"/>
			<point x="160" y="178" type="curve"/>
			<point x="50" y="172" type="line"/>
			<point x="64" y="-14" type="line"/>
			<point x="154" y="-14" type="line"/>
			<point x="166" y="22" type="line"/>
			<point x="188" y="11"/>
			<point x="212" y="1"/>
			<point x="242" y="-5" type="curve"/>
			<point x="219" y="-66" type="line"/>
			<point x="234" y="-110" type="line"/>
			<point x="246" y="-106"/>
			<point x="260" y="-104"/>
			<point x="275" y="-104" type="curve" smooth="yes"/>
			<point x="311" y="-104"/>
			<point x="326" y="-120"/>
			<point x="326" y="-136" type="curve" smooth="yes"/>
			<point x="326" y="-157"/>
			<point x="308" y="-170"/>
			<point x="276" y="-170" type="curve" smooth="yes"/>
			<point x="249" y="-170"/>
			<point x="225" y="-165"/>
			<point x="192" y="-155" type="curve"/>
			<point x="172" y="-222" type="line"/>
			<point x="201" y="-237"/>
			<point x="261" y="-259"/>
		</contour>
	</outline>
	<anchor name="bottom" x="310" y="-31"/>
	<anchor name="top" x="298" y="561"/>
</glyph>
<glyph name="Tcedilla" format="2">
	<unicode hex="0162"/>
	<advance width="822"/>
	<outline>
		<contour>
			<point x="434" y="-258" type="curve" smooth="yes"/>
			<point x="502" y="-258"/>
			<point x="571" y="-225"/>
			<point x="571" y="-140" type="curve" smooth="yes"/>
			<point x="571" y="-78"/>
			<point x="519" y="-31"/>
			<point x="433" y="-39" type="curve"/>
			<point x="447" y="0" type="line"/>
			<point x="634" y="0" type="line"/>
			<point x="634" y="99" type="line"/>
			<point x="565" y="103" type="line" smooth="yes"/>
			<point x="533" y="105"/>
			<point x="529" y="113"/>
			<point x="529" y="155" type="curve" smooth="yes"/>
			<point x="529" y="586" type="line"/>
			<point x="560" y="586" type="line" smooth="yes"/>
			<point x="622" y="586"/>
			<point x="651" y="559"/>
			<point x="674" y="449" type="curve"/>
			<point x="806" y="473" type="line"/>
			<point x="775" y="700" type="line"/>
			<point x="48" y="700" type="line"/>
			<point x="16" y="474" type="line"/>
			<point x="149" y="449" type="line"/>
			<point x="174" y="563"/>
			<point x="199" y="586"/>
			<point x="266" y="586" type="curve" smooth="yes"/>
			<point x="295" y="586" type="line"/>
			<point x="295" y="155" type="line" smooth="yes"/>
			<point x="295" y="112"/>
			<point x="286" y="105"/>
			<point x="259" y="103" type="curve" smooth="yes"/>
			<point x="189" y="99" type="line"/>
			<point x="189" y="0" type="line"/>
			<point x="344" y="0" type="line"/>
			<point x="319" y="-65" type="line"/>
			<point x="334" y="-109" type="line"/>
			<point x="346" y="-105"/>
			<point x="360" y="-103"/>
			<point x="375" y="-103" type="curve" smooth="yes"/>
			<point x="411" y="-103"/>
			<point x="426" y="-119"/>
			<point x="426" y="-135" type="curve" smooth="yes"/>
			<point x="426" y="-156"/>
			<point x="408" y="-169"/>
			<point x="376" y="-169" type="curve" smooth="yes"/>
			<point x="349" y="-169"/>
			<point x="325" y="-164"/>
			<point x="292" y="-154" type="curve"/>
			<point x="272" y="-221" type="line"/>
			<point x="301" y="-236"/>
			<point x="361" y="-258"/>
		</contour>
	</outline>
	<anchor name="bottom" x="410" y="-30"/>
	<anchor name="top" x="408" y="730"/>
</glyph>
<glyph name="Schwa" format="2">
	<unicode hex="018F"/>
	<advance width="775"/>
	<outline>
		<contour>
			<point x="358" y="-14" type="curve" smooth="yes"/>
			<point x="534" y="-14"/>
			<point x="730" y="74"/>
			<point x="730" y="362" type="curve" smooth="yes"/>
			<point x="730" y="593"/>
			<point x="603" y="714"/>
			<point x="394" y="714" type="curve" smooth="yes"/>
			<point x="245" y="714"/>
			<point x="141" y="653"/>
			<point x="64" y="556" type="curve"/>
			<point x="121" y="484" type="line"/>
			<point x="192" y="539"/>
			<point x="272" y="569"/>
			<point x="340" y="569" type="curve" smooth="yes"/>
			<point x="412" y="569"/>
			<point x="477" y="536"/>
			<point x="485" y="382" type="curve"/>
			<point x="58" y="382" type="line"/>
			<point x="51" y="341"/>
			<point x="48" y="300"/>
			<point x="48" y="273" type="curve" smooth="yes"/>
			<point x="48" y="117"/>
			<point x="144" y="-14"/>
		</contour>
		<contour>
			<point x="382" y="121" type="curve" smooth="yes"/>
			<point x="317" y="121"/>
			<point x="286" y="160"/>
			<point x="286" y="220" type="curve" smooth="yes"/>
			<point x="286" y="235"/>
			<point x="288" y="254"/>
			<point x="289" y="261" type="curve"/>
			<point x="482" y="261" type="line"/>
			<point x="475" y="161"/>
			<point x="447" y="121"/>
		</contour>
	</outline>
</glyph>
<glyph name="Ohorn" format="2">
	<unicode hex="01A0"/>
	<advance width="933"/>
	<outline>
		<contour>
			<point x="402" y="-14" type="curve" smooth="yes"/>
			<point x="659" y="-14"/>
			<point x="772" y="161"/>
			<point x="772" y="366" type="curve" smooth="yes"/>
			<point x="772" y="399"/>
			<point x="769" y="429"/>
			<point x="764" y="457" type="curve"/>
			<point x="879" y="484"/>
			<point x="933" y="565"/>
			<point x="933" y="666" type="curve" smooth="yes"/>
			<point x="933" y="746"/>
			<point x="880" y="782"/>
			<point x="822" y="782" type="curve" smooth="yes"/>
			<point x="778" y="782"/>
			<point x="727" y="756"/>
			<point x="727" y="693" type="curve" smooth="yes"/>
			<point x="727" y="648"/>
			<point x="751" y="618"/>
			<point x="801" y="618" type="curve" smooth="yes"/>
			<point x="815" y="618" type="line"/>
			<point x="813" y="576"/>
			<point x="790" y="552"/>
			<point x="739" y="539" type="curve"/>
			<point x="686" y="655"/>
			<point x="574" y="714"/>
			<point x="427" y="714" type="curve" smooth="yes"/>
			<point x="201" y="714"/>
			<point x="48" y="586"/>
			<point x="48" y="340" type="curve" smooth="yes"/>
			<point x="48" y="139"/>
			<point x="149" y="-14"/>
		</contour>
		<contour>
			<point x="414" y="120" type="curve" smooth="yes"/>
			<point x="327" y="120"/>
			<point x="293" y="193"/>
			<point x="293" y="357" type="curve" smooth="yes"/>
			<point x="293" y="534"/>
			<point x="331" y="581"/>
			<point x="407" y="581" type="curve" smooth="yes"/>
			<point x="488" y="581"/>
			<point x="527" y="513"/>
			<point x="527" y="350" type="curve" smooth="yes"/>
			<point x="527" y="162"/>
			<point x="487" y="120"/>
		</contour>
	</outline>
	<anchor name="bottom" x="408" y="-30"/>
	<anchor name="top" x="404" y="730"/>
</glyph>
<glyph name="uhorn" format="2">
	<unicode hex="01B0"/>
	<advance width="882"/>
	<outline>
		<contour>
			<point x="259" y="-14" type="curve" smooth="yes"/>
			<point x="376" y="-14"/>
			<point x="411" y="36"/>
			<point x="437" y="83" type="curve"/>
			<point x="442" y="83" type="line"/>
			<point x="455" y="-9" type="line"/>
			<point x="709" y="0" type="line"/>
			<point x="709" y="98" type="line"/>
			<point x="680" y="104" type="line" smooth="yes"/>
			<point x="657" y="109"/>
			<point x="649" y="123"/>
			<point x="649" y="169" type="curve" smooth="yes"/>
			<point x="649" y="351" type="line"/>
			<point x="808" y="361"/>
			<point x="882" y="451"/>
			<point x="882" y="569" type="curve" smooth="yes"/>
			<point x="882" y="649"/>
			<point x="829" y="685"/>
			<point x="771" y="685" type="curve" smooth="yes"/>
			<point x="727" y="685"/>
			<point x="676" y="659"/>
			<point x="676" y="596" type="curve" smooth="yes"/>
			<point x="676" y="551"/>
			<point x="700" y="521"/>
			<point x="750" y="521" type="curve" smooth="yes"/>
			<point x="764" y="521" type="line"/>
			<point x="761" y="470"/>
			<point x="728" y="438"/>
			<point x="649" y="428" type="curve"/>
			<point x="649" y="514" type="line"/>
			<point x="630" y="525" type="line"/>
			<point x="382" y="511" type="line"/>
			<point x="367" y="406" type="line"/>
			<point x="390" y="402" type="line" smooth="yes"/>
			<point x="418" y="397"/>
			<point x="424" y="390"/>
			<point x="424" y="341" type="curve" smooth="yes"/>
			<point x="424" y="232" type="line" smooth="yes"/>
			<point x="424" y="164"/>
			<point x="404" y="133"/>
			<point x="363" y="133" type="curve" smooth="yes"/>
			<point x="332" y="133"/>
			<point x="317" y="152"/>
			<point x="317" y="209" type="curve" smooth="yes"/>
			<point x="317" y="514" type="line"/>
			<point x="298" y="525" type="line"/>
			<point x="35" y="511" type="line"/>
			<point x="28" y="407" type="line"/>
			<point x="59" y="402" type="line" smooth="yes"/>
			<point x="87" y="397"/>
			<point x="92" y="386"/>
			<point x="92" y="340" type="curve" smooth="yes"/>
			<point x="92" y="156" type="line" smooth="yes"/>
			<point x="92" y="51"/>
			<point x="150" y="-14"/>
		</contour>
	</outline>
	<anchor name="bottom" x="365" y="-30"/>
	<anchor name="top" x="360" y="550"/>
</glyph>
<glyph name="Oogonek" format="2">
	<unicode hex="01EA"/>
	<advance width="874"/>
	<outline>
		<contour>
			<point x="477" y="-255" type="curve" smooth="yes"/>
			<point x="565" y="-255"/>
			<point x="616" y="-224"/>
			<point x="652" y="-195" type="curve"/>
			<point x="618" y="-130" type="line"/>
			<point x="588" y="-145"/>
			<point x="563" y="-150"/>
			<point x="538" y="-150" type="curve" smooth="yes"/>
			<point x="516" y="-150"/>
			<point x="494" y="-142"/>
			<point x="494" y="-115" type="curve" smooth="yes"/>
			<point x="494" y="-87"/>
			<point x="517" y="-55"/>
			<point x="591" y="11" type="curve"/>
			<point x="752" y="66"/>
			<point x="829" y="207"/>
			<point x="829" y="366" type="curve" smooth="yes"/>
			<point x="829" y="597"/>
			<point x="680" y="714"/>
			<point x="455" y="714" type="curve" smooth="yes"/>
			<point x="212" y="714"/>
			<point x="48" y="586"/>
			<point x="48" y="340" type="curve" smooth="yes"/>
			<point x="48" y="139"/>
			<point x="164" y="-14"/>
			<point x="430" y="-14" type="curve" smooth="yes"/>
			<point x="436" y="-14"/>
			<point x="442" y="-14"/>
			<point x="448" y="-14" type="curve"/>
			<point x="379" y="-51"/>
			<point x="330" y="-94"/>
			<point x="330" y="-154" type="curve" smooth="yes"/>
			<point x="330" y="-196"/>
			<point x="364" y="-255"/>
		</contour>
		<contour>
			<point x="442" y="120" type="curve" smooth="yes"/>
			<point x="338" y="120"/>
			<point x="294" y="194"/>
			<point x="294" y="357" type="curve" smooth="yes"/>
			<point x="294" y="525"/>
			<point x="342" y="581"/>
			<point x="435" y="581" type="curve" smooth="yes"/>
			<point x="533" y="581"/>
			<point x="583" y="512"/>
			<point x="583" y="350" type="curve" smooth="yes"/>
			<point x="583" y="173"/>
			<point x="532" y="120"/>
		</contour>
	</outline>
	<anchor name="bottom" x="439" y="-30"/>
	<anchor name="top" x="440" y="730"/>
</glyph>
<glyph name="jdotless" format="2">
	<unicode hex="0237"/>
	<advance width="399"/>
	<outline>
		<contour>
			<point x="93" y="-230" type="line"/>
			<point x="225" y="-163"/>
			<point x="327" y="-77"/>
			<point x="327" y="102" type="curve" smooth="yes"/>
			<point x="327" y="524" type="line"/>
			<point x="308" y="536" type="line"/>
			<point x="35" y="521" type="line"/>
			<point x="28" y="414" type="line"/>
			<point x="64" y="412" type="line" smooth="yes"/>
			<point x="95" y="410"/>
			<point x="102" y="396"/>
			<point x="102" y="352" type="curve" smooth="yes"/>
			<point x="102" y="59" type="line" smooth="yes"/>
			<point x="102" y="-27"/>
			<point x="82" y="-80"/>
			<point x="20" y="-139" type="curve"/>
		</contour>
	</outline>
	<anchor name="top" x="198" y="557"/>
</glyph>
<glyph name="alpha-latin" format="2">
	<unicode hex="0251"/>
	<advance width="766"/>
	<outline>
		<contour>
			<point x="286" y="-14" type="curve" smooth="yes"/>
			<point x="380" y="-14"/>
			<point x="438" y="12"/>
			<point x="468" y="73" type="curve"/>
			<point x="473" y="73" type="line"/>
			<point x="491" y="10"/>
			<point x="533" y="-14"/>
			<point x="602" y="-14" type="curve" smooth="yes"/>
			<point x="666" y="-14"/>
			<point x="722" y="12"/>
			<point x="751" y="35" type="curve"/>
			<point x="735" y="113" type="line"/>
			<point x="725" y="110"/>
			<point x="714" y="107"/>
			<point x="702" y="107" type="curve" smooth="yes"/>
			<point x="677" y="107"/>
			<point x="671" y="121"/>
			<point x="671" y="152" type="curve" smooth="yes"/>
			<point x="671" y="528" type="line"/>
			<point x="559" y="542" type="line"/>
			<point x="492" y="488" type="line"/>
			<point x="442" y="525"/>
			<point x="395" y="543"/>
			<point x="324" y="543" type="curve" smooth="yes"/>
			<point x="144" y="543"/>
			<point x="43" y="429"/>
			<point x="43" y="250" type="curve" smooth="yes"/>
			<point x="43" y="88"/>
			<point x="117" y="-14"/>
		</contour>
		<contour>
			<point x="363" y="111" type="curve" smooth="yes"/>
			<point x="306" y="111"/>
			<point x="278" y="159"/>
			<point x="278" y="261" type="curve" smooth="yes"/>
			<point x="278" y="365"/>
			<point x="305" y="415"/>
			<point x="367" y="415" type="curve" smooth="yes"/>
			<point x="396" y="415"/>
			<point x="421" y="407"/>
			<point x="446" y="394" type="curve"/>
			<point x="446" y="206" type="line" smooth="yes"/>
			<point x="446" y="146"/>
			<point x="416" y="111"/>
		</contour>
	</outline>
</glyph>
<glyph name="schwa" format="2">
	<unicode hex="0259"/>
	<advance width="675"/>
	<outline>
		<contour>
			<point x="312" y="-13" type="curve" smooth="yes"/>
			<point x="499" y="-13"/>
			<point x="635" y="88"/>
			<point x="635" y="283" type="curve" smooth="yes"/>
			<point x="635" y="437"/>
			<point x="533" y="543"/>
			<point x="333" y="543" type="curve" smooth="yes"/>
			<point x="201" y="543"/>
			<point x="103" y="488"/>
			<point x="40" y="416" type="curve"/>
			<point x="105" y="338" type="line"/>
			<point x="158" y="369"/>
			<point x="205" y="389"/>
			<point x="278" y="389" type="curve" smooth="yes"/>
			<point x="349" y="389"/>
			<point x="398" y="360"/>
			<point x="404" y="300" type="curve"/>
			<point x="60" y="300" type="line"/>
			<point x="53" y="270"/>
			<point x="50" y="232"/>
			<point x="50" y="199" type="curve" smooth="yes"/>
			<point x="50" y="59"/>
			<point x="150" y="-13"/>
		</contour>
		<contour>
			<point x="320" y="92" type="curve" smooth="yes"/>
			<point x="281" y="92"/>
			<point x="260" y="115"/>
			<point x="260" y="148" type="curve" smooth="yes"/>
			<point x="260" y="161"/>
			<point x="261" y="177"/>
			<point x="264" y="198" type="curve"/>
			<point x="405" y="198" type="line"/>
			<point x="403" y="142"/>
			<point x="377" y="92"/>
		</contour>
	</outline>
	<anchor name="bottom" x="315" y="-30"/>
	<anchor name="top" x="323" y="550"/>
</glyph>
<glyph name="ringhalfright" format="2">
	<unicode hex="02BE"/>
	<advance width="500"/>
	<outline>
		<contour>
			<point x="188" y="578" type="line"/>
			<point x="217" y="578" type="line" smooth="yes"/>
			<point x="315" y="578"/>
			<point x="391" y="620"/>
			<point x="391" y="698" type="curve" smooth="yes"/>
			<point x="391" y="768"/>
			<point x="336" y="822"/>
			<point x="214" y="822" type="curve" smooth="yes"/>
			<point x="188" y="822" type="line"/>
			<point x="188" y="751" type="line"/>
			<point x="205" y="751" type="line" smooth="yes"/>
			<point x="226" y="751"/>
			<point x="254" y="742"/>
			<point x="254" y="697" type="curve" smooth="yes"/>
			<point x="254" y="660"/>
			<point x="226" y="647"/>
			<point x="204" y="647" type="curve" smooth="yes"/>
			<point x="188" y="647" type="line"/>
		</contour>
	</outline>
	<anchor name="_top" x="250" y="550"/>
</glyph>
<glyph name="ringhalfleft" format="2">
	<unicode hex="02BF"/>
	<advance width="500"/>
	<outline>
		<contour>
			<point x="306" y="578" type="curve" smooth="yes"/>
			<point x="332" y="578" type="line"/>
			<point x="332" y="649" type="line"/>
			<point x="315" y="649" type="line" smooth="yes"/>
			<point x="294" y="649"/>
			<point x="266" y="658"/>
			<point x="266" y="703" type="curve" smooth="yes"/>
			<point x="266" y="740"/>
			<point x="294" y="753"/>
			<point x="316" y="753" type="curve" smooth="yes"/>
			<point x="332" y="753" type="line"/>
			<point x="332" y="822" type="line"/>
			<point x="303" y="822" type="line" smooth="yes"/>
			<point x="205" y="822"/>
			<point x="129" y="780"/>
			<point x="129" y="702" type="curve" smooth="yes"/>
			<point x="129" y="632"/>
			<point x="184" y="578"/>
		</contour>
	</outline>
	<anchor name="_top" x="250" y="550"/>
</glyph>
<glyph name="circumflex" format="2">
	<unicode hex="02C6"/>
	<advance width="500"/>
	<outline>
		<contour>
			<point x="88" y="585" type="line"/>
			<point x="250" y="696" type="line"/>
			<point x="413" y="585" type="line"/>
			<point x="469" y="638" type="line"/>
			<point x="359" y="776" type="line" smooth="yes"/>
			<point x="325" y="819"/>
			<point x="308" y="843"/>
			<point x="251" y="843" type="curve" smooth="yes"/>
			<point x="209" y="843"/>
			<point x="188" y="833"/>
			<point x="152" y="788" type="curve" smooth="yes"/>
			<point x="32" y="638" type="line"/>
		</contour>
	</outline>
	<anchor name="_top" x="250" y="550"/>
</glyph>
<glyph name="verticallinelowmod" format="2">
	<unicode hex="02CC"/>
	<advance width="500"/>
	<outline>
		<contour>
			<point x="180" y="-286" type="line"/>
			<point x="320" y="-286" type="line"/>
			<point x="320" y="-60" type="line"/>
			<point x="180" y="-60" type="line"/>
		</contour>
	</outline>
	<anchor name="_bottom" x="250" y="-30"/>
</glyph>
<glyph name="tilde" format="2">
	<unicode hex="02DC"/>
	<advance width="500"/>
	<outline>
		<contour>
			<point x="335" y="609" type="curve" smooth="yes"/>
			<point x="396" y="609"/>
			<point x="434" y="650"/>
			<point x="472" y="754" type="curve"/>
			<point x="401" y="793" type="line"/>
			<point x="388" y="766"/>
			<point x="373" y="752"/>
			<point x="349" y="752" type="curve" smooth="yes"/>
			<point x="323" y="752"/>
			<point x="290" y="764"/>
			<point x="265" y="774" type="curve" smooth="yes"/>
			<point x="238" y="785"/>
			<point x="207" y="799"/>
			<point x="163" y="799" type="curve" smooth="yes"/>
			<point x="99" y="799"/>
			<point x="63" y="766"/>
			<point x="21" y="654" type="curve"/>
			<point x="92" y="615" type="line"/>
			<point x="106" y="644"/>
			<point x="122" y="656"/>
			<point x="146" y="656" type="curve" smooth="yes"/>
			<point x="174" y="656"/>
			<point x="201" y="641"/>
			<point x="230" y="631" type="curve" smooth="yes"/>
			<point x="257" y="622"/>
			<point x="293" y="609"/>
		</contour>
	</outline>
	<anchor name="_top" x="250" y="550"/>
</glyph>
<glyph name="gravecomb" format="2">
	<unicode hex="0300"/>
	<outline>
		<contour>
			<point x="43" y="585" type="line"/>
			<point x="91" y="633" type="line"/>
			<point x="-25" y="811" type="line" smooth="yes"/>
			<point x="-44" y="840"/>
			<point x="-61" y="845"/>
			<point x="-85" y="845" type="curve" smooth="yes"/>
			<point x="-142" y="845"/>
			<point x="-161" y="788"/>
			<point x="-161" y="761" type="curve" smooth="yes"/>
			<point x="-161" y="739"/>
			<point x="-150" y="715"/>
			<point x="-121" y="695" type="curve" smooth="yes"/>
		</contour>
	</outline>
	<anchor name="_top" x="0" y="550"/>
</glyph>
<glyph name="tildecomb" format="2">
	<unicode hex="0303"/>
	<outline>
		<contour>
			<point x="89" y="609" type="curve" smooth="yes"/>
			<point x="150" y="609"/>
			<point x="188" y="650"/>
			<point x="226" y="754" type="curve"/>
			<point x="155" y="793" type="line"/>
			<point x="142" y="766"/>
			<point x="127" y="752"/>
			<point x="103" y="752" type="curve" smooth="yes"/>
			<point x="77" y="752"/>
			<point x="44" y="764"/>
			<point x="19" y="774" type="curve" smooth="yes"/>
			<point x="-8" y="785"/>
			<point x="-39" y="799"/>
			<point x="-83" y="799" type="curve" smooth="yes"/>
			<point x="-147" y="799"/>
			<point x="-183" y="766"/>
			<point x="-225" y="654" type="curve"/>
			<point x="-154" y="615" type="line"/>
			<point x="-140" y="644"/>
			<point x="-124" y="656"/>
			<point x="-100" y="656" type="curve" smooth="yes"/>
			<point x="-72" y="656"/>
			<point x="-45" y="641"/>
			<point x="-16" y="631" type="curve" smooth="yes"/>
			<point x="11" y="622"/>
			<point x="47" y="609"/>
		</contour>
	</outline>
	<anchor name="_top" x="0" y="550"/>
</glyph>
<glyph name="brevecomb" format="2">
	<unicode hex="0306"/>
	<outline>
		<contour>
			<point x="-3" y="593" type="curve" smooth="yes"/>
			<point x="117" y="593"/>
			<point x="194" y="671"/>
			<point x="214" y="820" type="curve"/>
			<point x="132" y="837" type="line"/>
			<point x="111" y="772"/>
			<point x="76" y="728"/>
			<point x="0" y="728" type="curve" smooth="yes"/>
			<point x="-68" y="728"/>
			<point x="-117" y="763"/>
			<point x="-134" y="837" type="curve"/>
			<point x="-217" y="820" type="line"/>
			<point x="-209" y="669"/>
			<point x="-124" y="593"/>
		</contour>
	</outline>
	<anchor name="_top" x="0" y="550"/>
</glyph>
<glyph name="dieresiscomb" format="2">
	<unicode hex="0308"/>
	<outline>
		<contour>
			<point x="131" y="605" type="curve" smooth="yes"/>
			<point x="194" y="605"/>
			<point x="239" y="642"/>
			<point x="239" y="702" type="curve" smooth="yes"/>
			<point x="239" y="761"/>
			<point x="207" y="797"/>
			<point x="131" y="797" type="curve" smooth="yes"/>
			<point x="68" y="797"/>
			<point x="25" y="760"/>
			<point x="25" y="703" type="curve" smooth="yes"/>
			<point x="25" y="641"/>
			<point x="68" y="605"/>
		</contour>
		<contour>
			<point x="-133" y="605" type="curve" smooth="yes"/>
			<point x="-71" y="605"/>
			<point x="-26" y="642"/>
			<point x="-26" y="702" type="curve" smooth="yes"/>
			<point x="-26" y="761"/>
			<point x="-58" y="797"/>
			<point x="-133" y="797" type="curve" smooth="yes"/>
			<point x="-197" y="797"/>
			<point x="-240" y="760"/>
			<point x="-240" y="703" type="curve" smooth="yes"/>
			<point x="-240" y="641"/>
			<point x="-197" y="605"/>
		</contour>
	</outline>
	<anchor name="_top" x="0" y="550"/>
</glyph>
<glyph name="hookabovecomb" format="2">
	<unicode hex="0309"/>
	<outline>
		<contour>
			<point x="-66" y="592" type="line"/>
			<point x="77" y="592" type="line"/>
			<point x="77" y="619" type="line" smooth="yes"/>
			<point x="77" y="664"/>
			<point x="171" y="678"/>
			<point x="171" y="758" type="curve" smooth="yes"/>
			<point x="171" y="843"/>
			<point x="87" y="871"/>
			<point x="-11" y="871" type="curve" smooth="yes"/>
			<point x="-130" y="871"/>
			<point x="-211" y="816"/>
			<point x="-211" y="757" type="curve" smooth="yes"/>
			<point x="-211" y="729"/>
			<point x="-201" y="694"/>
			<point x="-140" y="694" type="curve" smooth="yes"/>
			<point x="-88" y="694"/>
			<point x="-73" y="718"/>
			<point x="-73" y="736" type="curve" smooth="yes"/>
			<point x="-73" y="746"/>
			<point x="-75" y="755"/>
			<point x="-89" y="785" type="curve"/>
			<point x="-72" y="790"/>
			<point x="-50" y="794"/>
			<point x="-37" y="794" type="curve" smooth="yes"/>
			<point x="-1" y="794"/>
			<point x="15" y="781"/>
			<point x="15" y="765" type="curve" smooth="yes"/>
			<point x="15" y="707"/>
			<point x="-66" y="704"/>
			<point x="-66" y="639" type="curve" smooth="yes"/>
		</contour>
	</outline>
	<anchor name="_top" x="0" y="550"/>
</glyph>
<glyph name="ringcomb" format="2">
	<unicode hex="030A"/>
	<outline>
		<contour>
			<point x="-10" y="592" type="curve" smooth="yes"/>
			<point x="98" y="592"/>
			<point x="180" y="636"/>
			<point x="180" y="714" type="curve" smooth="yes"/>
			<point x="180" y="797"/>
			<point x="119" y="836"/>
			<point x="5" y="836" type="curve" smooth="yes"/>
			<point x="-97" y="836"/>
			<point x="-179" y="798"/>
			<point x="-179" y="714" type="curve" smooth="yes"/>
			<point x="-179" y="639"/>
			<point x="-108" y="592"/>
		</contour>
		<contour>
			<point x="0" y="655" type="curve" smooth="yes"/>
			<point x="-26" y="655"/>
			<point x="-42" y="665"/>
			<point x="-42" y="715" type="curve" smooth="yes"/>
			<point x="-42" y="759"/>
			<point x="-27" y="773"/>
			<point x="-1" y="773" type="curve" smooth="yes"/>
			<point x="22" y="773"/>
			<point x="42" y="764"/>
			<point x="42" y="715" type="curve" smooth="yes"/>
			<point x="42" y="670"/>
			<point x="24" y="655"/>
		</contour>
	</outline>
	<anchor name="_top" x="0" y="550"/>
</glyph>
<glyph name="caroncomb" format="2">
	<unicode hex="030C"/>
	<outline>
		<contour>
			<point x="1" y="593" type="curve" smooth="yes"/>
			<point x="37" y="593"/>
			<point x="63" y="608"/>
			<point x="95" y="646" type="curve" smooth="yes"/>
			<point x="223" y="798" type="line"/>
			<point x="166" y="852" type="line"/>
			<point x="0" y="740" type="line"/>
			<point x="-167" y="854" type="line"/>
			<point x="-224" y="797" type="line"/>
			<point x="-107" y="658" type="line" smooth="yes"/>
			<point x="-75" y="620"/>
			<point x="-57" y="593"/>
		</contour>
	</outline>
	<anchor name="_top" x="2" y="550"/>
</glyph>
<glyph name="dblgravecomb" format="2">
	<unicode hex="030F"/>
	<outline>
		<contour>
			<point x="-109" y="585" type="line"/>
			<point x="-61" y="633" type="line"/>
			<point x="-184" y="811" type="line" smooth="yes"/>
			<point x="-203" y="838"/>
			<point x="-221" y="845"/>
			<point x="-243" y="845" type="curve" smooth="yes"/>
			<point x="-290" y="845"/>
			<point x="-313" y="800"/>
			<point x="-313" y="765" type="curve" smooth="yes"/>
			<point x="-313" y="740"/>
			<point x="-302" y="712"/>
			<point x="-273" y="693" type="curve" smooth="yes"/>
		</contour>
		<contour>
			<point x="113" y="585" type="line"/>
			<point x="161" y="633" type="line"/>
			<point x="45" y="811" type="line" smooth="yes"/>
			<point x="28" y="837"/>
			<point x="9" y="845"/>
			<point x="-15" y="845" type="curve" smooth="yes"/>
			<point x="-62" y="845"/>
			<point x="-85" y="797"/>
			<point x="-85" y="768" type="curve" smooth="yes"/>
			<point x="-85" y="746"/>
			<point x="-74" y="721"/>
			<point x="-45" y="700" type="curve" smooth="yes"/>
		</contour>
	</outline>
	<anchor name="_top" x="0" y="550"/>
</glyph>
<glyph name="breveinvertedcomb" format="2">
	<unicode hex="0311"/>
	<outline>
		<contour>
			<point x="2" y="832" type="curve" smooth="yes"/>
			<point x="-114" y="832"/>
			<point x="-194" y="754"/>
			<point x="-214" y="605" type="curve"/>
			<point x="-135" y="593" type="line"/>
			<point x="-113" y="670"/>
			<point x="-70" y="697"/>
			<point x="-1" y="697" type="curve" smooth="yes"/>
			<point x="53" y="697"/>
			<point x="113" y="677"/>
			<point x="142" y="593" type="curve"/>
			<point x="215" y="605" type="line"/>
			<point x="201" y="766"/>
			<point x="119" y="832"/>
		</contour>
	</outline>
	<anchor name="_top" x="0" y="550"/>
</glyph>
<glyph name="dieresisbelowcomb" format="2">
	<unicode hex="0324"/>
	<outline>
		<contour>
			<point x="134" y="-267" type="curve" smooth="yes"/>
			<point x="197" y="-267"/>
			<point x="242" y="-230"/>
			<point x="242" y="-170" type="curve" smooth="yes"/>
			<point x="242" y="-111"/>
			<point x="210" y="-75"/>
			<point x="134" y="-75" type="curve" smooth="yes"/>
			<point x="71" y="-75"/>
			<point x="28" y="-112"/>
			<point x="28" y="-169" type="curve" smooth="yes"/>
			<point x="28" y="-231"/>
			<point x="71" y="-267"/>
		</contour>
		<contour>
			<point x="-136" y="-267" type="curve" smooth="yes"/>
			<point x="-74" y="-267"/>
			<point x="-29" y="-230"/>
			<point x="-29" y="-170" type="curve" smooth="yes"/>
			<point x="-29" y="-111"/>
			<point x="-61" y="-75"/>
			<point x="-136" y="-75" type="curve" smooth="yes"/>
			<point x="-200" y="-75"/>
			<point x="-243" y="-112"/>
			<point x="-243" y="-169" type="curve" smooth="yes"/>
			<point x="-243" y="-231"/>
			<point x="-200" y="-267"/>
		</contour>
	</outline>
	<anchor name="_bottom" x="0" y="-30"/>
</glyph>
<glyph name="commaaccentcomb" format="2">
	<unicode hex="0326"/>
	<outline>
		<contour>
			<point x="-62" y="-363" type="line"/>
			<point x="64" y="-293"/>
			<point x="94" y="-220"/>
			<point x="94" y="-166" type="curve" smooth="yes"/>
			<point x="94" y="-86"/>
			<point x="44" y="-66"/>
			<point x="-4" y="-66" type="curve" smooth="yes"/>
			<point x="-52" y="-66"/>
			<point x="-104" y="-84"/>
			<point x="-104" y="-152" type="curve" smooth="yes"/>
			<point x="-104" y="-185"/>
			<point x="-86" y="-214"/>
			<point x="-52" y="-214" type="curve" smooth="yes"/>
			<point x="-42" y="-214" type="line"/>
			<point x="-47" y="-250"/>
			<point x="-70" y="-272"/>
			<point x="-113" y="-306" type="curve"/>
		</contour>
	</outline>
	<anchor name="_bottom" x="0" y="-30"/>
</glyph>
<glyph name="cedillacomb" format="2">
	<unicode hex="0327"/>
	<outline>
		<contour>
			<point x="24" y="-258" type="curve" smooth="yes"/>
			<point x="92" y="-258"/>
			<point x="161" y="-225"/>
			<point x="161" y="-140" type="curve" smooth="yes"/>
			<point x="161" y="-78"/>
			<point x="109" y="-31"/>
			<point x="23" y="-39" type="curve"/>
			<point x="42" y="13" type="line"/>
			<point x="-61" y="13" type="line"/>
			<point x="-91" y="-65" type="line"/>
			<point x="-76" y="-109" type="line"/>
			<point x="-64" y="-105"/>
			<point x="-50" y="-103"/>
			<point x="-35" y="-103" type="curve" smooth="yes"/>
			<point x="1" y="-103"/>
			<point x="16" y="-119"/>
			<point x="16" y="-135" type="curve" smooth="yes"/>
			<point x="16" y="-156"/>
			<point x="-2" y="-169"/>
			<point x="-34" y="-169" type="curve" smooth="yes"/>
			<point x="-61" y="-169"/>
			<point x="-85" y="-164"/>
			<point x="-118" y="-154" type="curve"/>
			<point x="-138" y="-221" type="line"/>
			<point x="-109" y="-236"/>
			<point x="-49" y="-258"/>
		</contour>
	</outline>
	<anchor name="_bottom" x="0" y="-30"/>
</glyph>
<glyph name="numeral-greek" format="2">
	<unicode hex="0374"/>
	<advance width="324"/>
	<outline>
		<contour>
			<point x="91" y="484" type="line"/>
			<point x="256" y="685" type="line"/>
			<point x="256" y="704" type="line"/>
			<point x="238" y="741"/>
			<point x="211" y="761"/>
			<point x="181" y="761" type="curve" smooth="yes"/>
			<point x="146" y="761"/>
			<point x="126" y="744"/>
			<point x="109" y="699" type="curve" smooth="yes"/>
			<point x="40" y="515" type="line"/>
		</contour>
	</outline>
</glyph>
<glyph name="ypogegrammeni" format="2">
	<unicode hex="037A"/>
	<advance width="305"/>
	<outline>
		<contour>
			<point x="195" y="-229" type="curve" smooth="yes"/>
			<point x="229" y="-229"/>
			<point x="282" y="-216"/>
			<point x="300" y="-203" type="curve"/>
			<point x="288" y="-140" type="line"/>
			<point x="277" y="-145"/>
			<point x="267" y="-147"/>
			<point x="261" y="-147" type="curve" smooth="yes"/>
			<point x="248" y="-147"/>
			<point x="246" y="-143"/>
			<point x="246" y="-118" type="curve" smooth="yes"/>
			<point x="246" y="-98"/>
			<point x="246" y="-98"/>
			<point x="252" y="-38" type="curve"/>
			<point x="243" y="-34" type="line"/>
			<point x="63" y="-41" type="line"/>
			<point x="63" y="-118" type="line" smooth="yes"/>
			<point x="63" y="-193"/>
			<point x="106" y="-229"/>
		</contour>
	</outline>
	<anchor name="_bottom" x="157" y="-20"/>
</glyph>
<glyph name="Delta" format="2">
	<unicode hex="0394"/>
	<advance width="773"/>
	<outline>
		<contour>
			<point x="35" y="0" type="line"/>
			<point x="738" y="0" type="line"/>
			<point x="756" y="79" type="line"/>
			<point x="505" y="700" type="line"/>
			<point x="276" y="699" type="line"/>
			<point x="17" y="78" type="line"/>
		</contour>
		<contour>
			<point x="187" y="149" type="line"/>
			<point x="344" y="523" type="line"/>
			<point x="347" y="523" type="line"/>
			<point x="481" y="149" type="line"/>
		</contour>
	</outline>
</glyph>
<glyph name="Theta" format="2">
	<unicode hex="0398"/>
	<advance width="857"/>
	<outline>
		<contour>
			<point x="422" y="-14" type="curve" smooth="yes"/>
			<point x="655" y="-14"/>
			<point x="812" y="139"/>
			<point x="812" y="365" type="curve" smooth="yes"/>
			<point x="812" y="584"/>
			<point x="677" y="713"/>
			<point x="447" y="713" type="curve" smooth="yes"/>
			<point x="198" y="713"/>
			<point x="48" y="573"/>
			<point x="48" y="340" type="curve" smooth="yes"/>
			<point x="48" y="115"/>
			<point x="184" y="-14"/>
		</contour>
		<contour>
			<point x="434" y="117" type="curve" smooth="yes"/>
			<point x="333" y="117"/>
			<point x="283" y="196"/>
			<point x="283" y="356" type="curve" smooth="yes"/>
			<point x="283" y="513"/>
			<point x="327" y="583"/>
			<point x="427" y="583" type="curve" smooth="yes"/>
			<point x="525" y="583"/>
			<point x="577" y="502"/>
			<point x="577" y="350" type="curve" smooth="yes"/>
			<point x="577" y="188"/>
			<point x="533" y="117"/>
		</contour>
		<contour>
			<point x="319" y="254" type="line"/>
			<point x="381" y="260" type="line"/>
			<point x="393" y="309"/>
			<point x="399" y="318"/>
			<point x="419" y="318" type="curve" smooth="yes"/>
			<point x="439" y="318" type="line" smooth="yes"/>
			<point x="464" y="318"/>
			<point x="469" y="310"/>
			<point x="477" y="256" type="curve"/>
			<point x="541" y="269" type="line"/>
			<point x="541" y="448" type="line"/>
			<point x="479" y="442" type="line"/>
			<point x="466" y="393"/>
			<point x="460" y="384"/>
			<point x="441" y="384" type="curve" smooth="yes"/>
			<point x="421" y="384" type="line" smooth="yes"/>
			<point x="393" y="384"/>
			<point x="390" y="400"/>
			<point x="383" y="446" type="curve"/>
			<point x="319" y="433" type="line"/>
		</contour>
	</outline>
</glyph>
<glyph name="Xi" format="2">
	<unicode hex="039E"/>
	<advance width="732"/>
	<outline>
		<contour>
			<point x="61" y="0" type="line"/>
			<point x="670" y="0" type="line"/>
			<point x="698" y="234" type="line"/>
			<point x="565" y="234" type="line"/>
			<point x="543" y="163"/>
			<point x="522" y="146"/>
			<point x="456" y="146" type="curve" smooth="yes"/>
			<point x="276" y="146" type="line" smooth="yes"/>
			<point x="203" y="146"/>
			<point x="186" y="159"/>
			<point x="166" y="234" type="curve"/>
			<point x="34" y="234" type="line"/>
		</contour>
		<contour>
			<point x="188" y="234" type="line"/>
			<point x="281" y="240" type="line"/>
			<point x="290" y="272"/>
			<point x="307" y="285"/>
			<point x="340" y="285" type="curve" smooth="yes"/>
			<point x="390" y="285" type="line" smooth="yes"/>
			<point x="427" y="285"/>
			<point x="442" y="273"/>
			<point x="448" y="236" type="curve"/>
			<point x="543" y="249" type="line"/>
			<point x="543" y="459" type="line"/>
			<point x="450" y="453" type="line"/>
			<point x="441" y="421"/>
			<point x="424" y="408"/>
			<point x="392" y="408" type="curve" smooth="yes"/>
			<point x="342" y="408" type="line" smooth="yes"/>
			<point x="304" y="408"/>
			<point x="289" y="420"/>
			<point x="283" y="457" type="curve"/>
			<point x="188" y="444" type="line"/>
		</contour>
		<contour>
			<point x="184" y="489" type="line"/>
			<point x="202" y="541"/>
			<point x="221" y="553"/>
			<point x="284" y="553" type="curve" smooth="yes"/>
			<point x="446" y="553" type="line" smooth="yes"/>
			<point x="510" y="553"/>
			<point x="529" y="541"/>
			<point x="546" y="489" type="curve"/>
			<point x="680" y="503" type="line"/>
			<point x="648" y="699" type="line"/>
			<point x="83" y="699" type="line"/>
			<point x="51" y="503" type="line"/>
		</contour>
	</outline>
</glyph>
<glyph name="alpha" format="2">
	<unicode hex="03B1"/>
	<advance width="739"/>
	<outline>
		<contour>
			<point x="279" y="-14" type="curve" smooth="yes"/>
			<point x="349" y="-14"/>
			<point x="408" y="15"/>
			<point x="436" y="64" type="curve"/>
			<point x="437" y="64" type="line"/>
			<point x="453" y="16"/>
			<point x="502" y="-14"/>
			<point x="565" y="-14" type="curve" smooth="yes"/>
			<point x="619" y="-14"/>
			<point x="676" y="5"/>
			<point x="714" y="36" type="curve"/>
			<point x="698" y="118" type="line"/>
			<point x="684" y="114"/>
			<point x="675" y="112"/>
			<point x="665" y="112" type="curve" smooth="yes"/>
			<point x="641" y="112"/>
			<point x="631" y="125"/>
			<point x="631" y="153" type="curve" smooth="yes"/>
			<point x="631" y="240"/>
			<point x="641" y="343"/>
			<point x="668" y="525" type="curve"/>
			<point x="648" y="537" type="line"/>
			<point x="445" y="524" type="line"/>
			<point x="438" y="476" type="line"/>
			<point x="436" y="476" type="line"/>
			<point x="398" y="525"/>
			<point x="356" y="543"/>
			<point x="280" y="543" type="curve" smooth="yes"/>
			<point x="134" y="543"/>
			<point x="46" y="437"/>
			<point x="46" y="261" type="curve" smooth="yes"/>
			<point x="46" y="77"/>
			<point x="123" y="-14"/>
		</contour>
		<contour>
			<point x="361" y="116" type="curve" smooth="yes"/>
			<point x="306" y="116"/>
			<point x="286" y="157"/>
			<point x="286" y="269" type="curve" smooth="yes"/>
			<point x="286" y="365"/>
			<point x="310" y="410"/>
			<point x="361" y="410" type="curve" smooth="yes"/>
			<point x="384" y="410"/>
			<point x="405" y="402"/>
			<point x="423" y="386" type="curve"/>
			<point x="420" y="324"/>
			<point x="419" y="264"/>
			<point x="419" y="165" type="curve"/>
			<point x="406" y="130"/>
			<point x="389" y="116"/>
		</contour>
	</outline>
	<anchor name="bottom" x="415" y="-45"/>
	<anchor name="top" x="373" y="561"/>
</glyph>
<glyph name="beta" format="2">
	<unicode hex="03B2"/>
	<advance width="750"/>
	<outline>
		<contour>
			<point x="102" y="-227" type="line"/>
			<point x="314" y="-214" type="line"/>
			<point x="298" y="-149"/>
			<point x="285" y="-45"/>
			<point x="285" y="23" type="curve"/>
			<point x="287" y="23" type="line"/>
			<point x="320" y="1"/>
			<point x="389" y="-14"/>
			<point x="456" y="-14" type="curve" smooth="yes"/>
			<point x="609" y="-14"/>
			<point x="714" y="84"/>
			<point x="714" y="229" type="curve" smooth="yes"/>
			<point x="714" y="332"/>
			<point x="657" y="407"/>
			<point x="560" y="431" type="curve"/>
			<point x="560" y="433" type="line"/>
			<point x="624" y="469"/>
			<point x="655" y="519"/>
			<point x="655" y="586" type="curve" smooth="yes"/>
			<point x="655" y="711"/>
			<point x="557" y="782"/>
			<point x="386" y="782" type="curve" smooth="yes"/>
			<point x="169" y="782"/>
			<point x="73" y="676"/>
			<point x="73" y="437" type="curve" smooth="yes"/>
			<point x="73" y="32" type="line" smooth="yes"/>
			<point x="73" y="-60"/>
			<point x="76" y="-147"/>
			<point x="82" y="-216" type="curve"/>
		</contour>
		<contour>
			<point x="379" y="96" type="curve" smooth="yes"/>
			<point x="339" y="96"/>
			<point x="308" y="110"/>
			<point x="278" y="141" type="curve"/>
			<point x="278" y="551" type="line" smooth="yes"/>
			<point x="278" y="635"/>
			<point x="313" y="685"/>
			<point x="373" y="685" type="curve" smooth="yes"/>
			<point x="428" y="685"/>
			<point x="459" y="643"/>
			<point x="459" y="568" type="curve" smooth="yes"/>
			<point x="459" y="521"/>
			<point x="452" y="490"/>
			<point x="435" y="456" type="curve"/>
			<point x="405" y="488"/>
			<point x="386" y="499"/>
			<point x="362" y="499" type="curve" smooth="yes"/>
			<point x="325" y="499"/>
			<point x="303" y="471"/>
			<point x="303" y="423" type="curve" smooth="yes"/>
			<point x="303" y="377"/>
			<point x="327" y="346"/>
			<point x="362" y="346" type="curve" smooth="yes"/>
			<point x="390" y="346"/>
			<point x="404" y="354"/>
			<point x="434" y="389" type="curve"/>
			<point x="475" y="358"/>
			<point x="494" y="311"/>
			<point x="494" y="240" type="curve" smooth="yes"/>
			<point x="494" y="156"/>
			<point x="446" y="96"/>
		</contour>
	</outline>
</glyph>
<glyph name="eta" format="2">
	<unicode hex="03B7"/>
	<advance width="723"/>
	<outline>
		<contour>
			<point x="632" y="-231" type="line"/>
			<point x="651" y="-220" type="line"/>
			<point x="656" y="-174"/>
			<point x="660" y="-42"/>
			<point x="660" y="61" type="curve" smooth="yes"/>
			<point x="660" y="347" type="line" smooth="yes"/>
			<point x="660" y="480"/>
			<point x="604" y="543"/>
			<point x="486" y="543" type="curve" smooth="yes"/>
			<point x="404" y="543"/>
			<point x="343" y="505"/>
			<point x="303" y="430" type="curve"/>
			<point x="300" y="430" type="line"/>
			<point x="280" y="505"/>
			<point x="237" y="538"/>
			<point x="163" y="538" type="curve" smooth="yes"/>
			<point x="103" y="538"/>
			<point x="59" y="524"/>
			<point x="10" y="489" type="curve"/>
			<point x="26" y="406" type="line"/>
			<point x="39" y="410"/>
			<point x="51" y="412"/>
			<point x="60" y="412" type="curve" smooth="yes"/>
			<point x="88" y="412"/>
			<point x="102" y="397"/>
			<point x="102" y="366" type="curve" smooth="yes"/>
			<point x="102" y="0" type="line"/>
			<point x="321" y="0" type="line"/>
			<point x="321" y="307" type="line" smooth="yes"/>
			<point x="321" y="358"/>
			<point x="344" y="390"/>
			<point x="380" y="390" type="curve" smooth="yes"/>
			<point x="414" y="390"/>
			<point x="431" y="366"/>
			<point x="431" y="316" type="curve" smooth="yes"/>
			<point x="431" y="42" type="line" smooth="yes"/>
			<point x="431" y="-59"/>
			<point x="423" y="-139"/>
			<point x="404" y="-218" type="curve"/>
		</contour>
	</outline>
	<anchor name="bottom" x="206" y="-30"/>
	<anchor name="top" x="334" y="561"/>
</glyph>
<glyph name="theta" format="2">
	<unicode hex="03B8"/>
	<advance width="709"/>
	<outline>
		<contour>
			<point x="351" y="-14" type="curve" smooth="yes"/>
			<point x="542" y="-14"/>
			<point x="659" y="137"/>
			<point x="659" y="385" type="curve" smooth="yes"/>
			<point x="659" y="648"/>
			<point x="558" y="782"/>
			<point x="360" y="782" type="curve" smooth="yes"/>
			<point x="161" y="782"/>
			<point x="50" y="640"/>
			<point x="50" y="387" type="curve" smooth="yes"/>
			<point x="50" y="125"/>
			<point x="155" y="-14"/>
		</contour>
		<contour>
			<point x="357" y="84" type="curve" smooth="yes"/>
			<point x="300" y="84"/>
			<point x="274" y="145"/>
			<point x="268" y="292" type="curve"/>
			<point x="440" y="328" type="line"/>
			<point x="440" y="146"/>
			<point x="419" y="84"/>
		</contour>
		<contour>
			<point x="268" y="445" type="line"/>
			<point x="268" y="613"/>
			<point x="292" y="685"/>
			<point x="349" y="685" type="curve" smooth="yes"/>
			<point x="410" y="685"/>
			<point x="440" y="606"/>
			<point x="440" y="445" type="curve"/>
		</contour>
	</outline>
</glyph>
<glyph name="iota" format="2">
	<unicode hex="03B9"/>
	<advance width="442"/>
	<outline>
		<contour>
			<point x="256" y="-14" type="curve" smooth="yes"/>
			<point x="321" y="-14"/>
			<point x="393" y="15"/>
			<point x="437" y="59" type="curve"/>
			<point x="391" y="152" type="line"/>
			<point x="377" y="140"/>
			<point x="354" y="132"/>
			<point x="334" y="132" type="curve" smooth="yes"/>
			<point x="294" y="132"/>
			<point x="274" y="156"/>
			<point x="274" y="204" type="curve" smooth="yes"/>
			<point x="274" y="286"/>
			<point x="280" y="390"/>
			<point x="292" y="525" type="curve"/>
			<point x="272" y="536" type="line"/>
			<point x="68" y="524" type="line"/>
			<point x="68" y="487"/>
			<point x="63" y="221"/>
			<point x="63" y="158" type="curve" smooth="yes"/>
			<point x="63" y="49"/>
			<point x="134" y="-14"/>
		</contour>
	</outline>
	<anchor name="top" x="180" y="561"/>
</glyph>
<glyph name="nu" format="2">
	<unicode hex="03BD"/>
	<advance width="719"/>
	<outline>
		<contour>
			<point x="398" y="-18" type="line"/>
			<point x="571" y="88"/>
			<point x="669" y="245"/>
			<point x="669" y="415" type="curve" smooth="yes"/>
			<point x="669" y="464"/>
			<point x="667" y="490"/>
			<point x="661" y="516" type="curve"/>
			<point x="639" y="527" type="line"/>
			<point x="424" y="527" type="line"/>
			<point x="434" y="498"/>
			<point x="440" y="444"/>
			<point x="440" y="384" type="curve" smooth="yes"/>
			<point x="440" y="291"/>
			<point x="418" y="183"/>
			<point x="393" y="154" type="curve"/>
			<point x="390" y="154" type="line"/>
			<point x="371" y="457"/>
			<point x="328" y="537"/>
			<point x="184" y="537" type="curve" smooth="yes"/>
			<point x="124" y="537"/>
			<point x="53" y="516"/>
			<point x="15" y="487" type="curve"/>
			<point x="33" y="406" type="line"/>
			<point x="46" y="410"/>
			<point x="58" y="412"/>
			<point x="69" y="412" type="curve" smooth="yes"/>
			<point x="147" y="412"/>
			<point x="203" y="267"/>
			<point x="229" y="0" type="curve"/>
		</contour>
	</outline>
</glyph>
<glyph name="xi" format="2">
	<unicode hex="03BE"/>
	<advance width="605"/>
	<outline>
		<contour>
			<point x="469" y="-230" type="line"/>
			<point x="546" y="-150"/>
			<point x="588" y="-67"/>
			<point x="588" y="4" type="curve" smooth="yes"/>
			<point x="588" y="95"/>
			<point x="534" y="144"/>
			<point x="394" y="181" type="curve" smooth="yes"/>
			<point x="284" y="210"/>
			<point x="260" y="224"/>
			<point x="260" y="258" type="curve" smooth="yes"/>
			<point x="260" y="289"/>
			<point x="294" y="316"/>
			<point x="343" y="325" type="curve"/>
			<point x="382" y="294"/>
			<point x="406" y="283"/>
			<point x="438" y="283" type="curve" smooth="yes"/>
			<point x="488" y="283"/>
			<point x="521" y="316"/>
			<point x="521" y="365" type="curve" smooth="yes"/>
			<point x="521" y="414"/>
			<point x="488" y="448"/>
			<point x="440" y="448" type="curve" smooth="yes"/>
			<point x="412" y="448"/>
			<point x="379" y="432"/>
			<point x="346" y="401" type="curve"/>
			<point x="296" y="423"/>
			<point x="280" y="439"/>
			<point x="280" y="467" type="curve" smooth="yes"/>
			<point x="280" y="526"/>
			<point x="361" y="562"/>
			<point x="568" y="595" type="curve"/>
			<point x="568" y="619" type="line"/>
			<point x="463" y="766" type="line"/>
			<point x="374" y="756"/>
			<point x="265" y="718"/>
			<point x="198" y="674" type="curve"/>
			<point x="183" y="679"/>
			<point x="170" y="685"/>
			<point x="164" y="690" type="curve"/>
			<point x="192" y="742"/>
			<point x="199" y="758"/>
			<point x="199" y="770" type="curve" smooth="yes"/>
			<point x="199" y="809"/>
			<point x="166" y="833"/>
			<point x="113" y="833" type="curve" smooth="yes"/>
			<point x="50" y="833"/>
			<point x="10" y="791"/>
			<point x="10" y="725" type="curve" smooth="yes"/>
			<point x="10" y="664"/>
			<point x="49" y="619"/>
			<point x="117" y="601" type="curve"/>
			<point x="92" y="569"/>
			<point x="79" y="530"/>
			<point x="79" y="489" type="curve" smooth="yes"/>
			<point x="79" y="429"/>
			<point x="120" y="384"/>
			<point x="199" y="358" type="curve"/>
			<point x="199" y="357" type="line"/>
			<point x="94" y="314"/>
			<point x="44" y="256"/>
			<point x="44" y="176" type="curve" smooth="yes"/>
			<point x="44" y="75"/>
			<point x="107" y="28"/>
			<point x="308" y="-21" type="curve" smooth="yes"/>
			<point x="393" y="-42"/>
			<point x="415" y="-57"/>
			<point x="415" y="-95" type="curve" smooth="yes"/>
			<point x="415" y="-117"/>
			<point x="405" y="-142"/>
			<point x="379" y="-183" type="curve"/>
		</contour>
	</outline>
</glyph>
<glyph name="omicron" format="2">
	<unicode hex="03BF"/>
	<advance width="673"/>
	<outline>
		<contour>
			<point x="328" y="-14" type="curve" smooth="yes"/>
			<point x="527" y="-14"/>
			<point x="633" y="86"/>
			<point x="633" y="274" type="curve" smooth="yes"/>
			<point x="633" y="449"/>
			<point x="535" y="542"/>
			<point x="351" y="542" type="curve" smooth="yes"/>
			<point x="149" y="542"/>
			<point x="40" y="441"/>
			<point x="40" y="256" type="curve" smooth="yes"/>
			<point x="40" y="80"/>
			<point x="140" y="-14"/>
		</contour>
		<contour>
			<point x="340" y="107" type="curve" smooth="yes"/>
			<point x="293" y="107"/>
			<point x="277" y="153"/>
			<point x="277" y="291" type="curve" smooth="yes"/>
			<point x="277" y="379"/>
			<point x="296" y="421"/>
			<point x="336" y="421" type="curve" smooth="yes"/>
			<point x="378" y="421"/>
			<point x="396" y="372"/>
			<point x="396" y="256" type="curve" smooth="yes"/>
			<point x="396" y="142"/>
			<point x="383" y="107"/>
		</contour>
	</outline>
	<anchor name="top" x="354" y="561"/>
</glyph>
<glyph name="sigma" format="2">
	<unicode hex="03C3"/>
	<advance width="758"/>
	<outline>
		<contour>
			<point x="341" y="-14" type="curve" smooth="yes"/>
			<point x="523" y="-14"/>
			<point x="639" y="83"/>
			<point x="639" y="236" type="curve" smooth="yes"/>
			<point x="639" y="311"/>
			<point x="604" y="366"/>
			<point x="541" y="392" type="curve"/>
			<point x="541" y="394" type="line"/>
			<point x="694" y="374" type="line"/>
			<point x="713" y="385" type="line"/>
			<point x="713" y="543" type="line"/>
			<point x="397" y="539" type="line" smooth="yes"/>
			<point x="170" y="536"/>
			<point x="40" y="431"/>
			<point x="40" y="250" type="curve" smooth="yes"/>
			<point x="40" y="88"/>
			<point x="156" y="-14"/>
		</contour>
		<contour>
			<point x="351" y="97" type="curve" smooth="yes"/>
			<point x="304" y="97"/>
			<point x="277" y="154"/>
			<point x="277" y="253" type="curve" smooth="yes"/>
			<point x="277" y="348"/>
			<point x="305" y="394"/>
			<point x="363" y="394" type="curve" smooth="yes"/>
			<point x="371" y="394" type="line"/>
			<point x="402" y="370"/>
			<point x="419" y="314"/>
			<point x="419" y="238" type="curve" smooth="yes"/>
			<point x="419" y="153"/>
			<point x="392" y="97"/>
		</contour>
	</outline>
</glyph>
<glyph name="tau" format="2">
	<unicode hex="03C4"/>
	<advance width="617"/>
	<outline>
		<contour>
			<point x="359" y="-14" type="curve" smooth="yes"/>
			<point x="434" y="-14"/>
			<point x="512" y="15"/>
			<point x="558" y="60" type="curve"/>
			<point x="510" y="153" type="line"/>
			<point x="485" y="138"/>
			<point x="462" y="132"/>
			<point x="435" y="132" type="curve" smooth="yes"/>
			<point x="385" y="132"/>
			<point x="367" y="160"/>
			<point x="367" y="235" type="curve" smooth="yes"/>
			<point x="367" y="283"/>
			<point x="369" y="304"/>
			<point x="380" y="374" type="curve"/>
			<point x="562" y="374" type="line"/>
			<point x="582" y="385" type="line"/>
			<point x="582" y="542" type="line"/>
			<point x="133" y="534" type="line" smooth="yes"/>
			<point x="96" y="532"/>
			<point x="46" y="521"/>
			<point x="20" y="508" type="curve"/>
			<point x="-2" y="374" type="line"/>
			<point x="184" y="374" type="line"/>
			<point x="162" y="279"/>
			<point x="152" y="218"/>
			<point x="152" y="169" type="curve" smooth="yes"/>
			<point x="152" y="48"/>
			<point x="222" y="-14"/>
		</contour>
	</outline>
</glyph>
<glyph name="upsilon" format="2">
	<unicode hex="03C5"/>
	<advance width="729"/>
	<outline>
		<contour>
			<point x="361" y="-13" type="curve" smooth="yes"/>
			<point x="557" y="-13"/>
			<point x="689" y="102"/>
			<point x="689" y="271" type="curve" smooth="yes"/>
			<point x="689" y="371"/>
			<point x="657" y="468"/>
			<point x="605" y="526" type="curve"/>
			<point x="585" y="537" type="line"/>
			<point x="374" y="512" type="line"/>
			<point x="427" y="427"/>
			<point x="456" y="332"/>
			<point x="456" y="243" type="curve" smooth="yes"/>
			<point x="456" y="153"/>
			<point x="430" y="108"/>
			<point x="379" y="108" type="curve" smooth="yes"/>
			<point x="330" y="108"/>
			<point x="308" y="144"/>
			<point x="308" y="223" type="curve" smooth="yes"/>
			<point x="308" y="267"/>
			<point x="316" y="345"/>
			<point x="316" y="398" type="curve" smooth="yes"/>
			<point x="316" y="494"/>
			<point x="271" y="538"/>
			<point x="175" y="538" type="curve" smooth="yes"/>
			<point x="114" y="538"/>
			<point x="51" y="519"/>
			<point x="10" y="488" type="curve"/>
			<point x="26" y="406" type="line"/>
			<point x="39" y="410"/>
			<point x="50" y="412"/>
			<point x="59" y="412" type="curve" smooth="yes"/>
			<point x="82" y="412"/>
			<point x="91" y="402"/>
			<point x="91" y="373" type="curve" smooth="yes"/>
			<point x="91" y="345"/>
			<point x="81" y="277"/>
			<point x="81" y="213" type="curve" smooth="yes"/>
			<point x="81" y="67"/>
			<point x="180" y="-13"/>
		</contour>
	</outline>
	<anchor name="top" x="363" y="561"/>
</glyph>
<glyph name="chi" format="2">
	<unicode hex="03C7"/>
	<advance width="674"/>
	<outline>
		<contour>
			<point x="510" y="-230" type="curve" smooth="yes"/>
			<point x="561" y="-230"/>
			<point x="617" y="-211"/>
			<point x="658" y="-180" type="curve"/>
			<point x="641" y="-99" type="line"/>
			<point x="635" y="-102"/>
			<point x="619" y="-105"/>
			<point x="612" y="-105" type="curve" smooth="yes"/>
			<point x="589" y="-105"/>
			<point x="574" y="-94"/>
			<point x="560" y="-67" type="curve" smooth="yes"/>
			<point x="450" y="147" type="line"/>
			<point x="690" y="524" type="line"/>
			<point x="671" y="535" type="line"/>
			<point x="465" y="527" type="line"/>
			<point x="372" y="307" type="line"/>
			<point x="370" y="307" type="line"/>
			<point x="327" y="416" type="line" smooth="yes"/>
			<point x="291" y="505"/>
			<point x="251" y="536"/>
			<point x="168" y="536" type="curve" smooth="yes"/>
			<point x="118" y="536"/>
			<point x="61" y="517"/>
			<point x="20" y="486" type="curve"/>
			<point x="37" y="405" type="line"/>
			<point x="44" y="407"/>
			<point x="62" y="411"/>
			<point x="66" y="411" type="curve" smooth="yes"/>
			<point x="89" y="411"/>
			<point x="103" y="401"/>
			<point x="117" y="373" type="curve" smooth="yes"/>
			<point x="234" y="147" type="line"/>
			<point x="14" y="-213" type="line"/>
			<point x="34" y="-224" type="line"/>
			<point x="239" y="-216" type="line"/>
			<point x="315" y="-21" type="line"/>
			<point x="317" y="-21" type="line"/>
			<point x="350" y="-109" type="line" smooth="yes"/>
			<point x="386" y="-200"/>
			<point x="426" y="-230"/>
		</contour>
	</outline>
</glyph>
<glyph name="psi" format="2">
	<unicode hex="03C8"/>
	<advance width="905"/>
	<outline>
		<contour>
			<point x="383" y="-219" type="line"/>
			<point x="541" y="-219" type="line"/>
			<point x="545" y="-7" type="line"/>
			<point x="746" y="3"/>
			<point x="865" y="107"/>
			<point x="865" y="273" type="curve" smooth="yes"/>
			<point x="865" y="351"/>
			<point x="838" y="455"/>
			<point x="800" y="528" type="curve"/>
			<point x="783" y="538" type="line"/>
			<point x="585" y="512" type="line"/>
			<point x="623" y="425"/>
			<point x="644" y="338"/>
			<point x="644" y="266" type="curve" smooth="yes"/>
			<point x="644" y="161"/>
			<point x="615" y="114"/>
			<point x="549" y="114" type="curve"/>
			<point x="568" y="719" type="line"/>
			<point x="549" y="730" type="line"/>
			<point x="373" y="720" type="line"/>
			<point x="381" y="111" type="line"/>
			<point x="323" y="111"/>
			<point x="296" y="151"/>
			<point x="296" y="235" type="curve" smooth="yes"/>
			<point x="296" y="294"/>
			<point x="304" y="347"/>
			<point x="304" y="399" type="curve" smooth="yes"/>
			<point x="304" y="498"/>
			<point x="264" y="539"/>
			<point x="168" y="539" type="curve" smooth="yes"/>
			<point x="111" y="539"/>
			<point x="54" y="521"/>
			<point x="10" y="489" type="curve"/>
			<point x="28" y="408" type="line"/>
			<point x="39" y="412"/>
			<point x="50" y="414"/>
			<point x="60" y="414" type="curve" smooth="yes"/>
			<point x="81" y="414"/>
			<point x="90" y="403"/>
			<point x="90" y="374" type="curve" smooth="yes"/>
			<point x="90" y="321"/>
			<point x="80" y="283"/>
			<point x="80" y="233" type="curve" smooth="yes"/>
			<point x="80" y="85"/>
			<point x="191" y="-4"/>
			<point x="381" y="-9" type="curve"/>
		</contour>
	</outline>
</glyph>
<glyph name="omega" format="2">
	<unicode hex="03C9"/>
	<advance width="920"/>
	<outline>
		<contour>
			<point x="282" y="-14" type="curve" smooth="yes"/>
			<point x="359" y="-14"/>
			<point x="419" y="18"/>
			<point x="458" y="80" type="curve"/>
			<point x="461" y="80" type="line"/>
			<point x="489" y="25"/>
			<point x="562" y="-14"/>
			<point x="639" y="-14" type="curve" smooth="yes"/>
			<point x="785" y="-14"/>
			<point x="875" y="86"/>
			<point x="875" y="250" type="curve" smooth="yes"/>
			<point x="875" y="351"/>
			<point x="835" y="464"/>
			<point x="777" y="526" type="curve"/>
			<point x="758" y="538" type="line"/>
			<point x="547" y="512" type="line"/>
			<point x="604" y="441"/>
			<point x="642" y="329"/>
			<point x="642" y="234" type="curve" smooth="yes"/>
			<point x="642" y="159"/>
			<point x="618" y="109"/>
			<point x="583" y="109" type="curve" smooth="yes"/>
			<point x="552" y="109"/>
			<point x="538" y="135"/>
			<point x="509" y="167" type="curve"/>
			<point x="544" y="218"/>
			<point x="558" y="254"/>
			<point x="558" y="295" type="curve" smooth="yes"/>
			<point x="558" y="355"/>
			<point x="520" y="395"/>
			<point x="462" y="395" type="curve" smooth="yes"/>
			<point x="401" y="395"/>
			<point x="362" y="356"/>
			<point x="362" y="295" type="curve" smooth="yes"/>
			<point x="362" y="260"/>
			<point x="375" y="224"/>
			<point x="410" y="168" type="curve"/>
			<point x="383" y="133"/>
			<point x="368" y="108"/>
			<point x="338" y="108" type="curve" smooth="yes"/>
			<point x="302" y="108"/>
			<point x="278" y="156"/>
			<point x="278" y="227" type="curve" smooth="yes"/>
			<point x="278" y="325"/>
			<point x="313" y="425"/>
			<point x="375" y="503" type="curve"/>
			<point x="165" y="533" type="line"/>
			<point x="92" y="473"/>
			<point x="45" y="357"/>
			<point x="45" y="237" type="curve" smooth="yes"/>
			<point x="45" y="79"/>
			<point x="133" y="-14"/>
		</contour>
	</outline>
	<anchor name="bottom" x="464" y="-45"/>
	<anchor name="top" x="462" y="561"/>
</glyph>
<glyph name="Stigma" format="2">
	<unicode hex="03DA"/>
	<advance width="706"/>
	<outline>
		<contour>
			<point x="501" y="-231" type="line"/>
			<point x="583" y="-163"/>
			<point x="640" y="-67"/>
			<point x="640" y="2" type="curve" smooth="yes"/>
			<point x="640" y="101"/>
			<point x="588" y="154"/>
			<point x="457" y="186" type="curve" smooth="yes"/>
			<point x="327" y="218"/>
			<point x="290" y="265"/>
			<point x="290" y="397" type="curve" smooth="yes"/>
			<point x="290" y="510"/>
			<point x="338" y="582"/>
			<point x="414" y="582" type="curve" smooth="yes"/>
			<point x="436" y="582"/>
			<point x="454" y="578"/>
			<point x="474" y="569" type="curve"/>
			<point x="459" y="536"/>
			<point x="451" y="513"/>
			<point x="451" y="498" type="curve" smooth="yes"/>
			<point x="451" y="453"/>
			<point x="487" y="427"/>
			<point x="550" y="427" type="curve" smooth="yes"/>
			<point x="624" y="427"/>
			<point x="663" y="470"/>
			<point x="663" y="551" type="curve" smooth="yes"/>
			<point x="663" y="644"/>
			<point x="554" y="713"/>
			<point x="406" y="713" type="curve" smooth="yes"/>
			<point x="186" y="713"/>
			<point x="48" y="570"/>
			<point x="48" y="344" type="curve" smooth="yes"/>
			<point x="48" y="141"/>
			<point x="136" y="47"/>
			<point x="387" y="-17" type="curve" smooth="yes"/>
			<point x="457" y="-35"/>
			<point x="478" y="-53"/>
			<point x="478" y="-94" type="curve" smooth="yes"/>
			<point x="478" y="-119"/>
			<point x="465" y="-143"/>
			<point x="435" y="-179" type="curve"/>
		</contour>
	</outline>
</glyph>
<glyph name="Sampi" format="2">
	<unicode hex="03E0"/>
	<advance width="844"/>
	<outline>
		<contour>
			<point x="300" y="-230" type="line"/>
			<point x="365" y="-185" type="line"/>
			<point x="361" y="-168" type="line" smooth="yes"/>
			<point x="356" y="-144"/>
			<point x="359" y="-138"/>
			<point x="386" y="-119" type="curve" smooth="yes"/>
			<point x="625" y="47" type="line"/>
			<point x="627" y="24"/>
			<point x="627" y="11"/>
			<point x="627" y="-17" type="curve" smooth="yes"/>
			<point x="627" y="-51"/>
			<point x="624" y="-131"/>
			<point x="622" y="-170" type="curve"/>
			<point x="790" y="-172" type="line"/>
			<point x="794" y="-138"/>
			<point x="796" y="-78"/>
			<point x="796" y="-17" type="curve" smooth="yes"/>
			<point x="796" y="392"/>
			<point x="609" y="563"/>
			<point x="164" y="563" type="curve"/>
			<point x="159" y="407" type="line"/>
			<point x="234" y="407"/>
			<point x="305" y="399"/>
			<point x="370" y="384" type="curve"/>
			<point x="148" y="229" type="line" smooth="yes"/>
			<point x="121" y="211"/>
			<point x="115" y="210"/>
			<point x="94" y="223" type="curve" smooth="yes"/>
			<point x="80" y="231" type="line"/>
			<point x="16" y="186" type="line"/>
			<point x="150" y="-9" type="line"/>
			<point x="215" y="36" type="line"/>
			<point x="212" y="53" type="line" smooth="yes"/>
			<point x="207" y="78"/>
			<point x="209" y="82"/>
			<point x="237" y="102" type="curve" smooth="yes"/>
			<point x="525" y="303" type="line"/>
			<point x="552" y="277"/>
			<point x="573" y="246"/>
			<point x="588" y="211" type="curve"/>
			<point x="298" y="8" type="line" smooth="yes"/>
			<point x="270" y="-10"/>
			<point x="264" y="-11"/>
			<point x="243" y="2" type="curve" smooth="yes"/>
			<point x="229" y="11" type="line"/>
			<point x="165" y="-35" type="line"/>
		</contour>
	</outline>
</glyph>
<glyph name="sampi" format="2">
	<unicode hex="03E1"/>
	<advance width="600"/>
	<outline>
		<contour>
			<point x="127" y="573" type="curve"/>
			<point x="101" y="477" type="line"/>
			<point x="207" y="453"/>
			<point x="289" y="415"/>
			<point x="348" y="362" type="curve"/>
			<point x="194" y="305" type="line" smooth="yes"/>
			<point x="132" y="282"/>
			<point x="124" y="283"/>
			<point x="108" y="307" type="curve" smooth="yes"/>
			<point x="102" y="316" type="line"/>
			<point x="33" y="292" type="line"/>
			<point x="101" y="121" type="line"/>
			<point x="170" y="147" type="line"/>
			<point x="168" y="158" type="line" smooth="yes"/>
			<point x="163" y="185"/>
			<point x="168" y="189"/>
			<point x="232" y="213" type="curve" smooth="yes"/>
			<point x="417" y="277" type="line"/>
			<point x="439" y="236"/>
			<point x="454" y="190"/>
			<point x="459" y="139" type="curve"/>
			<point x="285" y="75" type="line" smooth="yes"/>
			<point x="224" y="52"/>
			<point x="216" y="53"/>
			<point x="199" y="77" type="curve" smooth="yes"/>
			<point x="193" y="86" type="line"/>
			<point x="124" y="62" type="line"/>
			<point x="192" y="-109" type="line"/>
			<point x="262" y="-84" type="line"/>
			<point x="260" y="-73" type="line" smooth="yes"/>
			<point x="254" y="-45"/>
			<point x="260" y="-40"/>
			<point x="324" y="-18" type="curve" smooth="yes"/>
			<point x="459" y="31" type="line"/>
			<point x="452" y="-45"/>
			<point x="431" y="-130"/>
			<point x="397" y="-225" type="curve"/>
			<point x="537" y="-255" type="line"/>
			<point x="599" y="-128"/>
			<point x="624" y="-30"/>
			<point x="624" y="90" type="curve" smooth="yes"/>
			<point x="624" y="380"/>
			<point x="439" y="559"/>
		</contour>
	</outline>
</glyph>
<glyph name="De-cy" format="2">
	<unicode hex="0414"/>
	<advance width="799"/>
	<outline>
		<contour>
			<point x="10" y="-150" type="line"/>
			<point x="141" y="-150" type="line"/>
			<point x="151" y="-83" type="line" smooth="yes"/>
			<point x="161" y="-18"/>
			<point x="182" y="0"/>
			<point x="223" y="0" type="curve" smooth="yes"/>
			<point x="576" y="0" type="line" smooth="yes"/>
			<point x="617" y="0"/>
			<point x="638" y="-18"/>
			<point x="648" y="-83" type="curve" smooth="yes"/>
			<point x="658" y="-150" type="line"/>
			<point x="789" y="-150" type="line"/>
			<point x="789" y="133" type="line"/>
			<point x="671" y="133" type="line"/>
			<point x="671" y="547" type="line" smooth="yes"/>
			<point x="671" y="584"/>
			<point x="678" y="594"/>
			<point x="702" y="598" type="curve" smooth="yes"/>
			<point x="729" y="602" type="line"/>
			<point x="729" y="700" type="line"/>
			<point x="117" y="700" type="line"/>
			<point x="117" y="602" type="line"/>
			<point x="155" y="595" type="line" smooth="yes"/>
			<point x="180" y="590"/>
			<point x="194" y="579"/>
			<point x="194" y="557" type="curve" smooth="yes"/>
			<point x="194" y="394"/>
			<point x="181" y="246"/>
			<point x="119" y="133" type="curve"/>
			<point x="10" y="133" type="line"/>
		</contour>
		<contour>
			<point x="259" y="133" type="line"/>
			<point x="281" y="188"/>
			<point x="300" y="261"/>
			<point x="309" y="338" type="curve" smooth="yes"/>
			<point x="319" y="421"/>
			<point x="323" y="527"/>
			<point x="323" y="567" type="curve"/>
			<point x="436" y="567" type="line"/>
			<point x="436" y="133" type="line"/>
		</contour>
	</outline>
	<guideline x="729" y="632" angle="180.6042"/>
</glyph>
<glyph name="Shcha-cy" format="2">
	<unicode hex="0429"/>
	<advance width="1257"/>
	<outline>
		<contour>
			<point x="1116" y="-142" type="line"/>
			<point x="1247" y="-127" type="line"/>
			<point x="1247" y="133" type="line"/>
			<point x="1122" y="133" type="line"/>
			<point x="1122" y="547" type="line" smooth="yes"/>
			<point x="1122" y="584"/>
			<point x="1129" y="594"/>
			<point x="1153" y="598" type="curve" smooth="yes"/>
			<point x="1180" y="602" type="line"/>
			<point x="1180" y="700" type="line"/>
			<point x="829" y="700" type="line"/>
			<point x="829" y="602" type="line"/>
			<point x="854" y="596" type="line" smooth="yes"/>
			<point x="880" y="590"/>
			<point x="887" y="583"/>
			<point x="887" y="549" type="curve" smooth="yes"/>
			<point x="887" y="133" type="line"/>
			<point x="728" y="133" type="line"/>
			<point x="728" y="547" type="line" smooth="yes"/>
			<point x="728" y="584"/>
			<point x="735" y="594"/>
			<point x="759" y="598" type="curve" smooth="yes"/>
			<point x="786" y="602" type="line"/>
			<point x="786" y="700" type="line"/>
			<point x="435" y="700" type="line"/>
			<point x="435" y="602" type="line"/>
			<point x="460" y="596" type="line" smooth="yes"/>
			<point x="486" y="590"/>
			<point x="493" y="583"/>
			<point x="493" y="549" type="curve" smooth="yes"/>
			<point x="493" y="133" type="line"/>
			<point x="334" y="133" type="line"/>
			<point x="334" y="545" type="line" smooth="yes"/>
			<point x="334" y="581"/>
			<point x="340" y="591"/>
			<point x="364" y="596" type="curve" smooth="yes"/>
			<point x="392" y="602" type="line"/>
			<point x="392" y="700" type="line"/>
			<point x="40" y="700" type="line"/>
			<point x="40" y="602" type="line"/>
			<point x="66" y="598" type="line" smooth="yes"/>
			<point x="92" y="594"/>
			<point x="99" y="585"/>
			<point x="99" y="548" type="curve" smooth="yes"/>
			<point x="99" y="155" type="line" smooth="yes"/>
			<point x="99" y="115"/>
			<point x="92" y="109"/>
			<point x="68" y="104" type="curve" smooth="yes"/>
			<point x="40" y="98" type="line"/>
			<point x="40" y="0" type="line"/>
			<point x="1034" y="-5" type="line" smooth="yes"/>
			<point x="1075" y="-5"/>
			<point x="1094" y="-23"/>
			<point x="1106" y="-88" type="curve" smooth="yes"/>
		</contour>
	</outline>
</glyph>
<glyph name="ve-cy" format="2">
	<unicode hex="0432"/>
	<advance width="635"/>
	<outline>
		<contour>
			<point x="33" y="0" type="line"/>
			<point x="392" y="0" type="line" smooth="yes"/>
			<point x="558" y="0"/>
			<point x="615" y="77"/>
			<point x="615" y="152" type="curve" smooth="yes"/>
			<point x="615" y="223"/>
			<point x="570" y="264"/>
			<point x="469" y="280" type="curve"/>
			<point x="469" y="282" type="line"/>
			<point x="563" y="302"/>
			<point x="597" y="359"/>
			<point x="597" y="407" type="curve" smooth="yes"/>
			<point x="597" y="474"/>
			<point x="550" y="529"/>
			<point x="392" y="529" type="curve" smooth="yes"/>
			<point x="34" y="529" type="line"/>
			<point x="25" y="434" type="line"/>
			<point x="65" y="428" type="line" smooth="yes"/>
			<point x="83" y="425"/>
			<point x="91" y="415"/>
			<point x="91" y="380" type="curve" smooth="yes"/>
			<point x="91" y="149" type="line" smooth="yes"/>
			<point x="91" y="114"/>
			<point x="86" y="105"/>
			<point x="65" y="101" type="curve" smooth="yes"/>
			<point x="33" y="95" type="line"/>
		</contour>
		<contour>
			<point x="338" y="85" type="curve" smooth="yes"/>
			<point x="331" y="85"/>
			<point x="323" y="85"/>
			<point x="316" y="86" type="curve"/>
			<point x="316" y="224" type="line"/>
			<point x="339" y="224" type="line" smooth="yes"/>
			<point x="379" y="224"/>
			<point x="396" y="203"/>
			<point x="396" y="155" type="curve" smooth="yes"/>
			<point x="396" y="108"/>
			<point x="375" y="85"/>
		</contour>
		<contour>
			<point x="316" y="300" type="line"/>
			<point x="316" y="445" type="line"/>
			<point x="324" y="446"/>
			<point x="334" y="446"/>
			<point x="341" y="446" type="curve" smooth="yes"/>
			<point x="369" y="446"/>
			<point x="383" y="423"/>
			<point x="383" y="381" type="curve" smooth="yes"/>
			<point x="383" y="333"/>
			<point x="373" y="300"/>
			<point x="343" y="300" type="curve" smooth="yes"/>
		</contour>
	</outline>
</glyph>
<glyph name="ge-cy" format="2">
	<unicode hex="0433"/>
	<advance width="552"/>
	<outline>
		<contour>
			<point x="30" y="0" type="line"/>
			<point x="395" y="0" type="line"/>
			<point x="395" y="94" type="line"/>
			<point x="337" y="100" type="line" smooth="yes"/>
			<point x="316" y="102"/>
			<point x="313" y="116"/>
			<point x="313" y="144" type="curve" smooth="yes"/>
			<point x="313" y="437" type="line"/>
			<point x="352" y="437" type="line" smooth="yes"/>
			<point x="377" y="437"/>
			<point x="387" y="428"/>
			<point x="399" y="388" type="curve" smooth="yes"/>
			<point x="421" y="316" type="line"/>
			<point x="547" y="342" type="line"/>
			<point x="515" y="528" type="line"/>
			<point x="34" y="528" type="line"/>
			<point x="25" y="433" type="line"/>
			<point x="62" y="427" type="line" smooth="yes"/>
			<point x="80" y="424"/>
			<point x="88" y="414"/>
			<point x="88" y="379" type="curve" smooth="yes"/>
			<point x="88" y="149" type="line" smooth="yes"/>
			<point x="88" y="114"/>
			<point x="83" y="105"/>
			<point x="62" y="101" type="curve" smooth="yes"/>
			<point x="30" y="95" type="line"/>
		</contour>
	</outline>
	<anchor name="top" x="283" y="550"/>
</glyph>
<glyph name="pe-cy" format="2">
	<unicode hex="043F"/>
	<advance width="727"/>
	<outline>
		<contour>
			<point x="25" y="0" type="line"/>
			<point x="349" y="0" type="line"/>
			<point x="349" y="94" type="line"/>
			<point x="332" y="97" type="line" smooth="yes"/>
			<point x="311" y="101"/>
			<point x="308" y="113"/>
			<point x="308" y="141" type="curve" smooth="yes"/>
			<point x="308" y="414" type="line"/>
			<point x="420" y="414" type="line"/>
			<point x="420" y="139" type="line" smooth="yes"/>
			<point x="420" y="111"/>
			<point x="416" y="101"/>
			<point x="395" y="97" type="curve" smooth="yes"/>
			<point x="379" y="94" type="line"/>
			<point x="379" y="0" type="line"/>
			<point x="702" y="0" type="line"/>
			<point x="702" y="95" type="line"/>
			<point x="675" y="99" type="line" smooth="yes"/>
			<point x="649" y="103"/>
			<point x="645" y="113"/>
			<point x="645" y="140" type="curve" smooth="yes"/>
			<point x="645" y="389" type="line" smooth="yes"/>
			<point x="645" y="416"/>
			<point x="649" y="426"/>
			<point x="675" y="430" type="curve" smooth="yes"/>
			<point x="702" y="434" type="line"/>
			<point x="702" y="529" type="line"/>
			<point x="25" y="529" type="line"/>
			<point x="25" y="434" type="line"/>
			<point x="57" y="428" type="line" smooth="yes"/>
			<point x="78" y="424"/>
			<point x="83" y="415"/>
			<point x="83" y="380" type="curve" smooth="yes"/>
			<point x="83" y="149" type="line" smooth="yes"/>
			<point x="83" y="114"/>
			<point x="78" y="105"/>
			<point x="57" y="101" type="curve" smooth="yes"/>
			<point x="25" y="95" type="line"/>
		</contour>
	</outline>
</glyph>
<glyph name="te-cy" format="2">
	<unicode hex="0442"/>
	<advance width="653"/>
	<outline>
		<contour>
			<point x="136" y="0" type="line"/>
			<point x="510" y="0" type="line"/>
			<point x="510" y="94" type="line"/>
			<point x="463" y="97" type="line" smooth="yes"/>
			<point x="442" y="98"/>
			<point x="439" y="113"/>
			<point x="439" y="141" type="curve" smooth="yes"/>
			<point x="439" y="438" type="line"/>
			<point x="453" y="438" type="line" smooth="yes"/>
			<point x="468" y="438"/>
			<point x="483" y="429"/>
			<point x="495" y="389" type="curve" smooth="yes"/>
			<point x="518" y="311" type="line"/>
			<point x="638" y="343" type="line"/>
			<point x="606" y="529" type="line"/>
			<point x="47" y="529" type="line"/>
			<point x="15" y="343" type="line"/>
			<point x="135" y="310" type="line"/>
			<point x="158" y="388" type="line" smooth="yes"/>
			<point x="170" y="428"/>
			<point x="185" y="437"/>
			<point x="200" y="437" type="curve" smooth="yes"/>
			<point x="214" y="437" type="line"/>
			<point x="214" y="149" type="line" smooth="yes"/>
			<point x="214" y="114"/>
			<point x="209" y="103"/>
			<point x="188" y="101" type="curve" smooth="yes"/>
			<point x="136" y="95" type="line"/>
		</contour>
	</outline>
	<guideline x="416" y="430" angle="90"/>
</glyph>
<glyph name="ereversed-cy" format="2">
	<unicode hex="044D"/>
	<advance width="596"/>
	<outline>
		<contour>
			<point x="261" y="-14" type="curve" smooth="yes"/>
			<point x="441" y="-14"/>
			<point x="569" y="93"/>
			<point x="569" y="279" type="curve" smooth="yes"/>
			<point x="569" y="431"/>
			<point x="480" y="542"/>
			<point x="309" y="542" type="curve" smooth="yes"/>
			<point x="255" y="542"/>
			<point x="210" y="527"/>
			<point x="178" y="501" type="curve"/>
			<point x="168" y="538" type="line"/>
			<point x="64" y="538" type="line"/>
			<point x="74" y="349" type="line"/>
			<point x="166" y="349" type="line"/>
			<point x="166" y="411"/>
			<point x="208" y="439"/>
			<point x="253" y="439" type="curve" smooth="yes"/>
			<point x="311" y="439"/>
			<point x="349" y="396"/>
			<point x="349" y="311" type="curve"/>
			<point x="109" y="311" type="line"/>
			<point x="109" y="225" type="line"/>
			<point x="349" y="225" type="line"/>
			<point x="349" y="130"/>
			<point x="302" y="67"/>
			<point x="237" y="67" type="curve" smooth="yes"/>
			<point x="214" y="67"/>
			<point x="201" y="71"/>
			<point x="186" y="78" type="curve"/>
			<point x="201" y="91"/>
			<point x="212" y="112"/>
			<point x="212" y="134" type="curve" smooth="yes"/>
			<point x="212" y="159"/>
			<point x="192" y="191"/>
			<point x="126" y="191" type="curve" smooth="yes"/>
			<point x="69" y="191"/>
			<point x="35" y="158"/>
			<point x="35" y="106" type="curve" smooth="yes"/>
			<point x="35" y="41"/>
			<point x="106" y="-14"/>
		</contour>
	</outline>
	<anchor name="top" x="296" y="550"/>
</glyph>
<glyph name="iu-cy" format="2">
	<unicode hex="044E"/>
	<advance width="949"/>
	<outline>
		<contour>
			<point x="629" y="-18" type="curve" smooth="yes"/>
			<point x="811" y="-18"/>
			<point x="922" y="86"/>
			<point x="922" y="264" type="curve" smooth="yes"/>
			<point x="922" y="454"/>
			<point x="801" y="534"/>
			<point x="652" y="534" type="curve" smooth="yes"/>
			<point x="510" y="534"/>
			<point x="394" y="470"/>
			<point x="362" y="326" type="curve"/>
			<point x="308" y="326" type="line"/>
			<point x="308" y="388" type="line" smooth="yes"/>
			<point x="308" y="416"/>
			<point x="311" y="428"/>
			<point x="332" y="432" type="curve" smooth="yes"/>
			<point x="349" y="435" type="line"/>
			<point x="349" y="529" type="line"/>
			<point x="25" y="529" type="line"/>
			<point x="25" y="434" type="line"/>
			<point x="57" y="428" type="line" smooth="yes"/>
			<point x="78" y="424"/>
			<point x="83" y="415"/>
			<point x="83" y="380" type="curve" smooth="yes"/>
			<point x="83" y="149" type="line" smooth="yes"/>
			<point x="83" y="114"/>
			<point x="78" y="105"/>
			<point x="57" y="101" type="curve" smooth="yes"/>
			<point x="25" y="95" type="line"/>
			<point x="25" y="0" type="line"/>
			<point x="349" y="0" type="line"/>
			<point x="349" y="94" type="line"/>
			<point x="332" y="97" type="line" smooth="yes"/>
			<point x="311" y="101"/>
			<point x="308" y="113"/>
			<point x="308" y="141" type="curve" smooth="yes"/>
			<point x="308" y="211" type="line"/>
			<point x="356" y="211" type="line"/>
			<point x="370" y="65"/>
			<point x="471" y="-18"/>
		</contour>
		<contour>
			<point x="642" y="98" type="curve" smooth="yes"/>
			<point x="605" y="98"/>
			<point x="589" y="150"/>
			<point x="589" y="281" type="curve" smooth="yes"/>
			<point x="589" y="382"/>
			<point x="609" y="418"/>
			<point x="637" y="418" type="curve" smooth="yes"/>
			<point x="668" y="418"/>
			<point x="687" y="379"/>
			<point x="687" y="247" type="curve" smooth="yes"/>
			<point x="687" y="142"/>
			<point x="673" y="98"/>
		</contour>
	</outline>
	<anchor name="top" x="635" y="550"/>
</glyph>
<glyph name="dzhe-cy" format="2">
	<unicode hex="045F"/>
	<advance width="732"/>
	<outline>
		<contour>
			<point x="320" y="-179" type="line"/>
			<point x="413" y="-179" type="line"/>
			<point x="445" y="0" type="line"/>
			<point x="707" y="0" type="line"/>
			<point x="707" y="95" type="line"/>
			<point x="680" y="99" type="line" smooth="yes"/>
			<point x="654" y="103"/>
			<point x="650" y="113"/>
			<point x="650" y="140" type="curve" smooth="yes"/>
			<point x="650" y="389" type="line" smooth="yes"/>
			<point x="650" y="416"/>
			<point x="654" y="426"/>
			<point x="680" y="430" type="curve" smooth="yes"/>
			<point x="707" y="434" type="line"/>
			<point x="707" y="529" type="line"/>
			<point x="384" y="529" type="line"/>
			<point x="384" y="435" type="line"/>
			<point x="400" y="432" type="line" smooth="yes"/>
			<point x="421" y="428"/>
			<point x="425" y="418"/>
			<point x="425" y="390" type="curve" smooth="yes"/>
			<point x="425" y="115" type="line"/>
			<point x="313" y="115" type="line"/>
			<point x="313" y="388" type="line" smooth="yes"/>
			<point x="313" y="416"/>
			<point x="316" y="428"/>
			<point x="337" y="432" type="curve" smooth="yes"/>
			<point x="354" y="435" type="line"/>
			<point x="354" y="529" type="line"/>
			<point x="34" y="529" type="line"/>
			<point x="25" y="434" type="line"/>
			<point x="62" y="428" type="line" smooth="yes"/>
			<point x="80" y="425"/>
			<point x="88" y="415"/>
			<point x="88" y="380" type="curve" smooth="yes"/>
			<point x="88" y="149" type="line" smooth="yes"/>
			<point x="88" y="114"/>
			<point x="83" y="105"/>
			<point x="62" y="101" type="curve" smooth="yes"/>
			<point x="30" y="95" type="line"/>
			<point x="30" y="0" type="line"/>
			<point x="288" y="0" type="line"/>
		</contour>
	</outline>
</glyph>
<glyph name="Yat-cy" format="2">
	<unicode hex="0462"/>
	<advance width="835"/>
	<outline>
		<contour>
			<point x="172" y="0" type="line"/>
			<point x="530" y="0" type="line" smooth="yes"/>
			<point x="708" y="0"/>
			<point x="825" y="83"/>
			<point x="825" y="204" type="curve" smooth="yes"/>
			<point x="825" y="337"/>
			<point x="701" y="397"/>
			<point x="517" y="397" type="curve" smooth="yes"/>
			<point x="498" y="397"/>
			<point x="482" y="396"/>
			<point x="466" y="395" type="curve"/>
			<point x="466" y="476" type="line"/>
			<point x="478" y="476" type="line" smooth="yes"/>
			<point x="531" y="476"/>
			<point x="549" y="462"/>
			<point x="568" y="419" type="curve"/>
			<point x="704" y="443" type="line"/>
			<point x="686" y="591" type="line"/>
			<point x="466" y="590" type="line"/>
			<point x="466" y="598" type="line" smooth="yes"/>
			<point x="466" y="614"/>
			<point x="472" y="631"/>
			<point x="496" y="636" type="curve" smooth="yes"/>
			<point x="524" y="642" type="line"/>
			<point x="524" y="740" type="line"/>
			<point x="172" y="740" type="line"/>
			<point x="172" y="642" type="line"/>
			<point x="198" y="638" type="line" smooth="yes"/>
			<point x="224" y="634"/>
			<point x="231" y="625"/>
			<point x="231" y="590" type="curve"/>
			<point x="34" y="590" type="line"/>
			<point x="5" y="374" type="line"/>
			<point x="142" y="349" type="line"/>
			<point x="160" y="435"/>
			<point x="185" y="476"/>
			<point x="216" y="476" type="curve" smooth="yes"/>
			<point x="231" y="476" type="line"/>
			<point x="231" y="155" type="line" smooth="yes"/>
			<point x="231" y="115"/>
			<point x="224" y="109"/>
			<point x="200" y="104" type="curve" smooth="yes"/>
			<point x="172" y="98" type="line"/>
		</contour>
		<contour>
			<point x="466" y="113" type="curve"/>
			<point x="466" y="288" type="line"/>
			<point x="478" y="289"/>
			<point x="490" y="290"/>
			<point x="502" y="290" type="curve" smooth="yes"/>
			<point x="560" y="290"/>
			<point x="590" y="261"/>
			<point x="590" y="201" type="curve" smooth="yes"/>
			<point x="590" y="131"/>
			<point x="554" y="106"/>
			<point x="511" y="106" type="curve" smooth="yes"/>
			<point x="494" y="106"/>
			<point x="481" y="109"/>
		</contour>
	</outline>
</glyph>
<glyph name="zhedescender-cy" format="2">
	<unicode hex="0497"/>
	<advance width="1032"/>
	<outline>
		<contour>
			<point x="917" y="-179" type="curve"/>
			<point x="1027" y="-166" type="line"/>
			<point x="1027" y="81" type="line"/>
			<point x="977" y="109" type="line"/>
			<point x="969" y="100"/>
			<point x="960" y="93"/>
			<point x="942" y="93" type="curve" smooth="yes"/>
			<point x="921" y="93"/>
			<point x="905" y="110"/>
			<point x="871" y="171" type="curve" smooth="yes"/>
			<point x="839" y="229"/>
			<point x="794" y="252"/>
			<point x="730" y="267" type="curve"/>
			<point x="730" y="268" type="line"/>
			<point x="755" y="283"/>
			<point x="771" y="311"/>
			<point x="780" y="327" type="curve" smooth="yes"/>
			<point x="790" y="345"/>
			<point x="805" y="375"/>
			<point x="816" y="405" type="curve"/>
			<point x="833" y="373"/>
			<point x="857" y="357"/>
			<point x="890" y="357" type="curve" smooth="yes"/>
			<point x="930" y="357"/>
			<point x="974" y="405"/>
			<point x="974" y="455" type="curve" smooth="yes"/>
			<point x="974" y="502"/>
			<point x="930" y="528"/>
			<point x="871" y="528" type="curve" smooth="yes"/>
			<point x="804" y="528"/>
			<point x="756" y="504"/>
			<point x="715" y="412" type="curve" smooth="yes"/>
			<point x="687" y="350"/>
			<point x="674" y="330"/>
			<point x="660" y="314" type="curve" smooth="yes"/>
			<point x="647" y="299"/>
			<point x="630" y="296"/>
			<point x="613" y="296" type="curve"/>
			<point x="613" y="388" type="line" smooth="yes"/>
			<point x="613" y="416"/>
			<point x="616" y="428"/>
			<point x="637" y="432" type="curve" smooth="yes"/>
			<point x="654" y="435" type="line"/>
			<point x="654" y="529" type="line"/>
			<point x="334" y="529" type="line"/>
			<point x="325" y="434" type="line"/>
			<point x="362" y="428" type="line" smooth="yes"/>
			<point x="380" y="425"/>
			<point x="388" y="415"/>
			<point x="388" y="380" type="curve" smooth="yes"/>
			<point x="388" y="296" type="line"/>
			<point x="371" y="296"/>
			<point x="352" y="300"/>
			<point x="339" y="315" type="curve" smooth="yes"/>
			<point x="325" y="331"/>
			<point x="314" y="350"/>
			<point x="286" y="412" type="curve" smooth="yes"/>
			<point x="245" y="504"/>
			<point x="197" y="528"/>
			<point x="130" y="528" type="curve" smooth="yes"/>
			<point x="71" y="528"/>
			<point x="27" y="502"/>
			<point x="27" y="455" type="curve" smooth="yes"/>
			<point x="27" y="405"/>
			<point x="71" y="357"/>
			<point x="111" y="357" type="curve" smooth="yes"/>
			<point x="144" y="357"/>
			<point x="168" y="373"/>
			<point x="185" y="405" type="curve"/>
			<point x="196" y="375"/>
			<point x="211" y="345"/>
			<point x="221" y="327" type="curve" smooth="yes"/>
			<point x="230" y="311"/>
			<point x="246" y="283"/>
			<point x="271" y="268" type="curve"/>
			<point x="271" y="267" type="line"/>
			<point x="207" y="252"/>
			<point x="162" y="229"/>
			<point x="130" y="171" type="curve" smooth="yes"/>
			<point x="96" y="110"/>
			<point x="80" y="93"/>
			<point x="59" y="93" type="curve" smooth="yes"/>
			<point x="49" y="93"/>
			<point x="40" y="96"/>
			<point x="31" y="99" type="curve"/>
			<point x="5" y="28" type="line"/>
			<point x="33" y="5"/>
			<point x="85" y="-7"/>
			<point x="140" y="-7" type="curve" smooth="yes"/>
			<point x="224" y="-7"/>
			<point x="268" y="23"/>
			<point x="298" y="71" type="curve" smooth="yes"/>
			<point x="328" y="119"/>
			<point x="344" y="179"/>
			<point x="357" y="197" type="curve" smooth="yes"/>
			<point x="367" y="211"/>
			<point x="373" y="213"/>
			<point x="388" y="213" type="curve"/>
			<point x="388" y="149" type="line" smooth="yes"/>
			<point x="388" y="114"/>
			<point x="383" y="105"/>
			<point x="362" y="101" type="curve" smooth="yes"/>
			<point x="330" y="95" type="line"/>
			<point x="330" y="0" type="line"/>
			<point x="654" y="0" type="line"/>
			<point x="654" y="94" type="line"/>
			<point x="637" y="97" type="line" smooth="yes"/>
			<point x="616" y="101"/>
			<point x="613" y="113"/>
			<point x="613" y="141" type="curve" smooth="yes"/>
			<point x="613" y="213" type="line"/>
			<point x="628" y="213"/>
			<point x="634" y="211"/>
			<point x="644" y="197" type="curve" smooth="yes"/>
			<point x="657" y="179"/>
			<point x="674" y="119"/>
			<point x="703" y="71" type="curve" smooth="yes"/>
			<point x="731" y="24"/>
			<point x="762" y="-7"/>
			<point x="812" y="-7" type="curve" smooth="yes"/>
			<point x="853" y="-7"/>
			<point x="880" y="9"/>
			<point x="894" y="25" type="curve"/>
			<point x="910" y="0"/>
			<point x="917" y="-102"/>
		</contour>
	</outline>
</glyph>
<glyph name="Endescender-cy" format="2">
	<unicode hex="04A2"/>
	<advance width="888"/>
	<outline>
		<contour>
			<point x="747" y="-137" type="curve"/>
			<point x="878" y="-122" type="line"/>
			<point x="878" y="133" type="line"/>
			<point x="753" y="133" type="line"/>
			<point x="753" y="547" type="line" smooth="yes"/>
			<point x="753" y="584"/>
			<point x="760" y="594"/>
			<point x="784" y="598" type="curve" smooth="yes"/>
			<point x="811" y="602" type="line"/>
			<point x="811" y="700" type="line"/>
			<point x="460" y="700" type="line"/>
			<point x="460" y="602" type="line"/>
			<point x="485" y="596" type="line" smooth="yes"/>
			<point x="511" y="590"/>
			<point x="518" y="583"/>
			<point x="518" y="549" type="curve" smooth="yes"/>
			<point x="518" y="421" type="line"/>
			<point x="334" y="421" type="line"/>
			<point x="334" y="545" type="line" smooth="yes"/>
			<point x="334" y="581"/>
			<point x="340" y="591"/>
			<point x="364" y="596" type="curve" smooth="yes"/>
			<point x="392" y="602" type="line"/>
			<point x="392" y="700" type="line"/>
			<point x="40" y="700" type="line"/>
			<point x="40" y="602" type="line"/>
			<point x="66" y="598" type="line" smooth="yes"/>
			<point x="92" y="594"/>
			<point x="99" y="585"/>
			<point x="99" y="548" type="curve" smooth="yes"/>
			<point x="99" y="155" type="line" smooth="yes"/>
			<point x="99" y="115"/>
			<point x="92" y="109"/>
			<point x="68" y="104" type="curve" smooth="yes"/>
			<point x="40" y="98" type="line"/>
			<point x="40" y="0" type="line"/>
			<point x="392" y="0" type="line"/>
			<point x="392" y="98" type="line"/>
			<point x="366" y="104" type="line" smooth="yes"/>
			<point x="341" y="110"/>
			<point x="334" y="114"/>
			<point x="334" y="151" type="curve" smooth="yes"/>
			<point x="334" y="288" type="line"/>
			<point x="518" y="288" type="line"/>
			<point x="518" y="155" type="line" smooth="yes"/>
			<point x="518" y="115"/>
			<point x="511" y="109"/>
			<point x="487" y="104" type="curve" smooth="yes"/>
			<point x="460" y="98" type="line"/>
			<point x="460" y="0" type="line"/>
			<point x="665" y="0" type="line" smooth="yes"/>
			<point x="719" y="0"/>
			<point x="726" y="-24"/>
		</contour>
	</outline>
</glyph>
<glyph name="Ccedillaacute" format="2">
	<unicode hex="1E08"/>
	<advance width="794"/>
	<outline>
		<contour>
			<point x="451" y="-258" type="curve" smooth="yes"/>
			<point x="519" y="-258"/>
			<point x="588" y="-225"/>
			<point x="588" y="-140" type="curve" smooth="yes"/>
			<point x="588" y="-78"/>
			<point x="536" y="-31"/>
			<point x="450" y="-39" type="curve"/>
			<point x="460" y="-13" type="line"/>
			<point x="615" y="-1"/>
			<point x="706" y="73"/>
			<point x="751" y="116" type="curve"/>
			<point x="681" y="214" type="line"/>
			<point x="648" y="191"/>
			<point x="575" y="147"/>
			<point x="484" y="147" type="curve" smooth="yes"/>
			<point x="391" y="147"/>
			<point x="290" y="181"/>
			<point x="290" y="379" type="curve" smooth="yes"/>
			<point x="290" y="503"/>
			<point x="341" y="581"/>
			<point x="453" y="581" type="curve" smooth="yes"/>
			<point x="527" y="581"/>
			<point x="587" y="546"/>
			<point x="629" y="437" type="curve"/>
			<point x="742" y="458" type="line"/>
			<point x="700" y="714" type="line"/>
			<point x="615" y="714" type="line"/>
			<point x="601" y="667" type="line"/>
			<point x="552" y="696"/>
			<point x="497" y="714"/>
			<point x="432" y="714" type="curve" smooth="yes"/>
			<point x="197" y="714"/>
			<point x="48" y="569"/>
			<point x="48" y="345" type="curve" smooth="yes"/>
			<point x="48" y="133"/>
			<point x="165" y="11"/>
			<point x="357" y="-11" type="curve"/>
			<point x="336" y="-65" type="line"/>
			<point x="351" y="-109" type="line"/>
			<point x="363" y="-105"/>
			<point x="377" y="-103"/>
			<point x="392" y="-103" type="curve" smooth="yes"/>
			<point x="428" y="-103"/>
			<point x="443" y="-119"/>
			<point x="443" y="-135" type="curve" smooth="yes"/>
			<point x="443" y="-156"/>
			<point x="425" y="-169"/>
			<point x="393" y="-169" type="curve" smooth="yes"/>
			<point x="366" y="-169"/>
			<point x="342" y="-164"/>
			<point x="309" y="-154" type="curve"/>
			<point x="289" y="-221" type="line"/>
			<point x="318" y="-236"/>
			<point x="378" y="-258"/>
		</contour>
		<contour>
			<point x="342" y="742" type="line"/>
			<point x="528" y="817" type="line" smooth="yes"/>
			<point x="576" y="836"/>
			<point x="591" y="861"/>
			<point x="591" y="892" type="curve" smooth="yes"/>
			<point x="591" y="937"/>
			<point x="565" y="979"/>
			<point x="514" y="979" type="curve" smooth="yes"/>
			<point x="497" y="979"/>
			<point x="481" y="975"/>
			<point x="459" y="953" type="curve" smooth="yes"/>
			<point x="304" y="802" type="line"/>
		</contour>
	</outline>
	<anchor name="bottom" x="427" y="-30"/>
	<anchor name="top" x="418" y="730"/>
</glyph>
<glyph name="ecedillabreve" format="2">
	<unicode hex="1E1D"/>
	<advance width="670"/>
	<outline>
		<contour>
			<point x="373" y="-259" type="curve" smooth="yes"/>
			<point x="441" y="-259"/>
			<point x="510" y="-226"/>
			<point x="510" y="-141" type="curve" smooth="yes"/>
			<point x="510" y="-79"/>
			<point x="458" y="-32"/>
			<point x="372" y="-40" type="curve"/>
			<point x="382" y="-12" type="line"/>
			<point x="388" y="-11"/>
			<point x="394" y="-11"/>
			<point x="400" y="-10" type="curve" smooth="yes"/>
			<point x="503" y="3"/>
			<point x="582" y="52"/>
			<point x="635" y="113" type="curve"/>
			<point x="570" y="191" type="line"/>
			<point x="517" y="160"/>
			<point x="470" y="140"/>
			<point x="397" y="140" type="curve" smooth="yes"/>
			<point x="326" y="140"/>
			<point x="277" y="169"/>
			<point x="271" y="229" type="curve"/>
			<point x="615" y="229" type="line"/>
			<point x="622" y="259"/>
			<point x="625" y="297"/>
			<point x="625" y="330" type="curve" smooth="yes"/>
			<point x="625" y="470"/>
			<point x="525" y="542"/>
			<point x="363" y="542" type="curve" smooth="yes"/>
			<point x="176" y="542"/>
			<point x="40" y="441"/>
			<point x="40" y="246" type="curve" smooth="yes"/>
			<point x="40" y="109"/>
			<point x="121" y="10"/>
			<point x="279" y="-10" type="curve"/>
			<point x="258" y="-66" type="line"/>
			<point x="273" y="-110" type="line"/>
			<point x="285" y="-106"/>
			<point x="299" y="-104"/>
			<point x="314" y="-104" type="curve" smooth="yes"/>
			<point x="350" y="-104"/>
			<point x="365" y="-120"/>
			<point x="365" y="-136" type="curve" smooth="yes"/>
			<point x="365" y="-157"/>
			<point x="347" y="-170"/>
			<point x="315" y="-170" type="curve" smooth="yes"/>
			<point x="288" y="-170"/>
			<point x="264" y="-165"/>
			<point x="231" y="-155" type="curve"/>
			<point x="211" y="-222" type="line"/>
			<point x="240" y="-237"/>
			<point x="300" y="-259"/>
		</contour>
		<contour>
			<point x="270" y="331" type="line"/>
			<point x="272" y="387"/>
			<point x="298" y="437"/>
			<point x="355" y="437" type="curve" smooth="yes"/>
			<point x="394" y="437"/>
			<point x="415" y="414"/>
			<point x="415" y="381" type="curve" smooth="yes"/>
			<point x="415" y="368"/>
			<point x="414" y="352"/>
			<point x="411" y="331" type="curve"/>
		</contour>
		<contour>
			<point x="350" y="604" type="curve" smooth="yes"/>
			<point x="470" y="604"/>
			<point x="547" y="682"/>
			<point x="567" y="831" type="curve"/>
			<point x="485" y="848" type="line"/>
			<point x="464" y="783"/>
			<point x="429" y="739"/>
			<point x="353" y="739" type="curve" smooth="yes"/>
			<point x="285" y="739"/>
			<point x="236" y="774"/>
			<point x="219" y="848" type="curve"/>
			<point x="136" y="831" type="line"/>
			<point x="144" y="680"/>
			<point x="229" y="604"/>
		</contour>
	</outline>
	<anchor name="bottom" x="349" y="-31"/>
	<anchor name="top" x="353" y="561"/>
</glyph>
<glyph name="Germandbls" format="2">
	<unicode hex="1E9E"/>
	<advance width="921"/>
	<outline>
		<contour>
			<point x="657" y="-14" type="curve" smooth="yes"/>
			<point x="776" y="-14"/>
			<point x="889" y="48"/>
			<point x="889" y="197" type="curve" smooth="yes"/>
			<point x="889" y="319"/>
			<point x="808" y="394"/>
			<point x="671" y="400" type="curve"/>
			<point x="802" y="565" type="line"/>
			<point x="782" y="649" type="line"/>
			<point x="688" y="687"/>
			<point x="582" y="714"/>
			<point x="462" y="714" type="curve" smooth="yes"/>
			<point x="126" y="714"/>
			<point x="106" y="483"/>
			<point x="106" y="385" type="curve" smooth="yes"/>
			<point x="106" y="152" type="line" smooth="yes"/>
			<point x="106" y="108"/>
			<point x="95" y="104"/>
			<point x="72" y="102" type="curve" smooth="yes"/>
			<point x="36" y="99" type="line"/>
			<point x="36" y="0" type="line"/>
			<point x="340" y="0" type="line"/>
			<point x="340" y="426" type="line" smooth="yes"/>
			<point x="340" y="476"/>
			<point x="340" y="586"/>
			<point x="478" y="586" type="curve" smooth="yes"/>
			<point x="524" y="586"/>
			<point x="566" y="577"/>
			<point x="594" y="567" type="curve"/>
			<point x="450" y="384" type="line"/>
			<point x="489" y="292" type="line"/>
			<point x="516" y="298"/>
			<point x="542" y="302"/>
			<point x="563" y="302" type="curve" smooth="yes"/>
			<point x="635" y="302"/>
			<point x="669" y="267"/>
			<point x="669" y="205" type="curve" smooth="yes"/>
			<point x="669" y="144"/>
			<point x="639" y="113"/>
			<point x="593" y="113" type="curve" smooth="yes"/>
			<point x="566" y="113"/>
			<point x="529" y="120"/>
			<point x="494" y="197" type="curve"/>
			<point x="391" y="189" type="line"/>
			<point x="409" y="0" type="line"/>
			<point x="495" y="0" type="line"/>
			<point x="508" y="35" type="line"/>
			<point x="550" y="3"/>
			<point x="596" y="-14"/>
		</contour>
	</outline>
</glyph>
<glyph name="prosgegrammeni" format="2">
	<unicode hex="1FBE"/>
	<advance width="445"/>
	<outline>
		<contour>
			<point x="261" y="-14" type="curve" smooth="yes"/>
			<point x="326" y="-14"/>
			<point x="395" y="14"/>
			<point x="440" y="58" type="curve"/>
			<point x="394" y="149" type="line"/>
			<point x="382" y="137"/>
			<point x="358" y="129"/>
			<point x="338" y="129" type="curve" smooth="yes"/>
			<point x="304" y="129"/>
			<point x="290" y="146"/>
			<point x="290" y="188" type="curve" smooth="yes"/>
			<point x="290" y="233"/>
			<point x="290" y="235"/>
			<point x="305" y="409" type="curve"/>
			<point x="285" y="420" type="line"/>
			<point x="63" y="408" type="line"/>
			<point x="69" y="303"/>
			<point x="72" y="207"/>
			<point x="72" y="155" type="curve" smooth="yes"/>
			<point x="72" y="42"/>
			<point x="135" y="-14"/>
		</contour>
	</outline>
	<anchor name="_side" x="7" y="217"/>
</glyph>
<glyph name="psili" format="2">
	<unicode hex="1FBF"/>
	<advance width="489"/>
	<outline>
		<contour>
			<point x="203" y="573" type="line"/>
			<point x="277" y="600"/>
			<point x="325" y="662"/>
			<point x="325" y="732" type="curve" smooth="yes"/>
			<point x="325" y="793"/>
			<point x="289" y="830"/>
			<point x="229" y="830" type="curve" smooth="yes"/>
			<point x="178" y="830"/>
			<point x="148" y="803"/>
			<point x="148" y="758" type="curve" smooth="yes"/>
			<point x="148" y="717"/>
			<point x="172" y="696"/>
			<point x="216" y="696" type="curve"/>
			<point x="216" y="667"/>
			<point x="195" y="639"/>
			<point x="160" y="620" type="curve"/>
		</contour>
	</outline>
	<anchor name="_top" x="222" y="550"/>
</glyph>
<glyph name="dialytikavaria" format="2">
	<unicode hex="1FED"/>
	<advance width="680"/>
	<outline>
		<contour>
			<point x="403" y="577" type="line"/>
			<point x="445" y="596" type="line"/>
			<point x="393" y="814" type="line"/>
			<point x="381" y="829" type="line"/>
			<point x="367" y="843"/>
			<point x="346" y="851"/>
			<point x="324" y="851" type="curve" smooth="yes"/>
			<point x="277" y="851"/>
			<point x="243" y="819"/>
			<point x="243" y="775" type="curve" smooth="yes"/>
			<point x="243" y="749"/>
			<point x="254" y="728"/>
			<point x="282" y="699" type="curve" smooth="yes"/>
		</contour>
		<contour>
			<point x="117" y="599" type="curve" smooth="yes"/>
			<point x="181" y="599"/>
			<point x="224" y="638"/>
			<point x="224" y="696" type="curve" smooth="yes"/>
			<point x="224" y="759"/>
			<point x="188" y="791"/>
			<point x="117" y="791" type="curve" smooth="yes"/>
			<point x="53" y="791"/>
			<point x="10" y="754"/>
			<point x="10" y="697" type="curve" smooth="yes"/>
			<point x="10" y="637"/>
			<point x="51" y="599"/>
		</contour>
		<contour>
			<point x="561" y="599" type="curve" smooth="yes"/>
			<point x="626" y="599"/>
			<point x="669" y="638"/>
			<point x="669" y="696" type="curve" smooth="yes"/>
			<point x="669" y="759"/>
			<point x="633" y="791"/>
			<point x="561" y="791" type="curve" smooth="yes"/>
			<point x="497" y="791"/>
			<point x="455" y="753"/>
			<point x="455" y="697" type="curve" smooth="yes"/>
			<point x="455" y="637"/>
			<point x="496" y="599"/>
		</contour>
	</outline>
	<anchor name="_top" x="404" y="550"/>
</glyph>
<glyph name="quoteleft" format="2">
	<unicode hex="2018"/>
	<advance width="326"/>
	<outline>
		<contour>
			<point x="165" y="462" type="curve" smooth="yes"/>
			<point x="239" y="462"/>
			<point x="281" y="509"/>
			<point x="281" y="562" type="curve" smooth="yes"/>
			<point x="281" y="616"/>
			<point x="238" y="645"/>
			<point x="192" y="645" type="curve" smooth="yes"/>
			<point x="178" y="645" type="line"/>
			<point x="184" y="684"/>
			<point x="220" y="712"/>
			<point x="266" y="743" type="curve"/>
			<point x="220" y="807" type="line"/>
			<point x="106" y="748"/>
			<point x="45" y="663"/>
			<point x="45" y="576" type="curve" smooth="yes"/>
			<point x="45" y="516"/>
			<point x="87" y="462"/>
		</contour>
	</outline>
</glyph>
<glyph name="quotedblbase" format="2">
	<unicode hex="201E"/>
	<advance width="602"/>
	<outline>
		<contour>
			<point x="382" y="-203" type="line" smooth="yes"/>
			<point x="496" y="-144"/>
			<point x="557" y="-59"/>
			<point x="557" y="28" type="curve"/>
			<point x="557" y="88"/>
			<point x="515" y="142"/>
			<point x="437" y="142" type="curve"/>
			<point x="363" y="142"/>
			<point x="321" y="95"/>
			<point x="321" y="42" type="curve"/>
			<point x="321" y="-12"/>
			<point x="364" y="-41"/>
			<point x="410" y="-41" type="curve"/>
			<point x="424" y="-41" type="line" smooth="yes"/>
			<point x="418" y="-80"/>
			<point x="382" y="-108"/>
			<point x="336" y="-139" type="curve" smooth="yes"/>
		</contour>
		<contour>
			<point x="106" y="-203" type="line"/>
			<point x="220" y="-144"/>
			<point x="281" y="-59"/>
			<point x="281" y="28" type="curve" smooth="yes"/>
			<point x="281" y="88"/>
			<point x="239" y="142"/>
			<point x="161" y="142" type="curve" smooth="yes"/>
			<point x="87" y="142"/>
			<point x="45" y="95"/>
			<point x="45" y="42" type="curve" smooth="yes"/>
			<point x="45" y="-12"/>
			<point x="88" y="-41"/>
			<point x="134" y="-41" type="curve" smooth="yes"/>
			<point x="148" y="-41" type="line"/>
			<point x="142" y="-80"/>
			<point x="106" y="-108"/>
			<point x="60" y="-139" type="curve"/>
		</contour>
	</outline>
</glyph>
<glyph name="foursuperior" format="2">
	<unicode hex="2074"/>
	<advance width="496"/>
	<outline>
		<contour>
			<point x="235" y="362" type="line"/>
			<point x="413" y="362" type="line"/>
			<point x="413" y="443" type="line"/>
			<point x="476" y="443" type="line"/>
			<point x="476" y="534" type="line"/>
			<point x="413" y="534" type="line"/>
			<point x="413" y="813" type="line"/>
			<point x="394" y="827" type="line"/>
			<point x="239" y="816" type="line"/>
			<point x="14" y="516" type="line"/>
			<point x="26" y="443" type="line"/>
			<point x="235" y="443" type="line"/>
		</contour>
		<contour>
			<point x="126" y="534" type="line"/>
			<point x="235" y="664" type="line"/>
			<point x="235" y="653" type="line"/>
			<point x="235" y="534" type="line"/>
		</contour>
	</outline>
</glyph>
